<svg width="33" height="33" viewBox="0 0 33 33" fill="none" xmlns="http://www.w3.org/2000/svg">
<path d="M26.5 11.0078H24.6334C25.1667 10.3678 25.5 9.56781 25.5 8.67448C25.5 6.64781 23.86 5.00781 21.8334 5.00781C19.5934 5.00781 17.62 6.19448 16.5 7.95448C15.9305 7.05449 15.1432 6.31267 14.211 5.79761C13.2788 5.28256 12.2317 5.01092 11.1667 5.00781C9.14004 5.00781 7.50004 6.64781 7.50004 8.67448C7.50004 9.56781 7.83337 10.3678 8.36671 11.0078H6.50004C5.58004 11.0078 4.83337 11.7545 4.83337 12.6745V16.0078C4.83337 16.8078 5.40671 17.4478 6.16671 17.6078V26.6745C6.16671 27.5945 6.91337 28.3411 7.83337 28.3411H25.1667C26.0867 28.3411 26.8334 27.5945 26.8334 26.6745V17.6078C27.5934 17.4478 28.1667 16.8078 28.1667 16.0078V12.6745C28.1667 11.7545 27.42 11.0078 26.5 11.0078ZM26.1667 15.6745H17.5V13.0078H26.1667V15.6745ZM21.8334 7.00781C22.2754 7.00781 22.6993 7.18341 23.0119 7.49597C23.3244 7.80853 23.5 8.23245 23.5 8.67448C23.5 9.11651 23.3244 9.54043 23.0119 9.85299C22.6993 10.1656 22.2754 10.3411 21.8334 10.3411H17.62C18.0734 8.43448 19.7934 7.00781 21.8334 7.00781ZM11.1667 7.00781C13.2067 7.00781 14.9267 8.43448 15.38 10.3411H11.1667C10.7247 10.3411 10.3008 10.1656 9.9882 9.85299C9.67564 9.54043 9.50004 9.11651 9.50004 8.67448C9.50004 8.23245 9.67564 7.80853 9.9882 7.49597C10.3008 7.18341 10.7247 7.00781 11.1667 7.00781ZM6.83337 13.0078H15.5V15.6745H6.83337V13.0078ZM8.16671 17.6745H15.5V26.3411H8.16671V17.6745ZM24.8334 26.3411H17.5V17.6745H24.8334V26.3411Z" fill="black"/>
</svg>
