<svg width="24" height="24" viewBox="0 0 24 24" fill="none" xmlns="http://www.w3.org/2000/svg">
<path d="M16.768 5.714C17.1091 5.30769 17.5976 5.0535 18.1261 5.00737C18.6545 4.96124 19.1797 5.12693 19.586 5.468C19.9923 5.80906 20.2465 6.29757 20.2926 6.82605C20.3388 7.35453 20.1731 7.87968 19.832 8.286L10.833 19.01C10.6663 19.2175 10.4598 19.3895 10.2257 19.5162C9.99156 19.6428 9.73453 19.7215 9.46964 19.7475C9.20475 19.7735 8.93733 19.7464 8.68305 19.6677C8.42877 19.5891 8.19275 19.4604 7.98883 19.2894C7.7849 19.1183 7.61717 18.9083 7.49546 18.6716C7.37375 18.4349 7.30051 18.1763 7.28003 17.9109C7.25956 17.6455 7.29226 17.3787 7.37623 17.1262C7.46019 16.8736 7.59372 16.6403 7.769 16.44L16.768 5.714ZM3 12.74C3 12.2096 3.21071 11.7009 3.58579 11.3258C3.96086 10.9507 4.46957 10.74 5 10.74C5.53043 10.74 6.03914 10.9507 6.41421 11.3258C6.78929 11.7009 7 12.2096 7 12.74C7 13.2704 6.78929 13.7791 6.41421 14.1542C6.03914 14.5293 5.53043 14.74 5 14.74C4.46957 14.74 3.96086 14.5293 3.58579 14.1542C3.21071 13.7791 3 13.2704 3 12.74Z" fill="black"/>
</svg>
