<svg width="17" height="17" viewBox="0 0 17 17" fill="none" xmlns="http://www.w3.org/2000/svg">
<path fill-rule="evenodd" clip-rule="evenodd" d="M8.50002 1.47412C6.5118 1.47412 4.90002 3.0859 4.90002 5.07412V7.87412H4.50002C3.61637 7.87412 2.90002 8.59047 2.90002 9.47412V14.2741C2.90002 15.1578 3.61637 15.8741 4.50002 15.8741H12.5C13.3837 15.8741 14.1 15.1578 14.1 14.2741V9.47412C14.1 8.59047 13.3837 7.87412 12.5 7.87412H12.1V5.07412C12.1 3.0859 10.4882 1.47412 8.50002 1.47412ZM10.9 7.87412V5.07412C10.9 3.74864 9.82551 2.67412 8.50002 2.67412C7.17454 2.67412 6.10002 3.74864 6.10002 5.07412V7.87412H10.9Z" fill="#0F172A"/>
</svg>
