<?xml version="1.0" standalone="no"?>
<!DOCTYPE svg PUBLIC "-//W3C//DTD SVG 20010904//EN"
 "http://www.w3.org/TR/2001/REC-SVG-20010904/DTD/svg10.dtd">
<svg version="1.0" xmlns="http://www.w3.org/2000/svg"
 width="384.000000pt" height="384.000000pt" viewBox="0 0 384.000000 384.000000"
 preserveAspectRatio="xMidYMid meet">

<g transform="translate(0.000000,384.000000) scale(0.100000,-0.100000)"
fill="#835EC7" stroke="none">
<path d="M1089 3456 c-2 -2 -42 -6 -89 -10 -80 -5 -138 -17 -185 -35 -57 -22
-138 -66 -142 -78 -3 -7 -8 -11 -12 -8 -9 5 -141 -128 -141 -143 0 -5 -6 -12
-13 -15 -13 -5 -76 -120 -81 -148 -1 -8 -8 -32 -14 -54 -24 -83 -27 -224 -27
-1090 0 -1005 -2 -977 77 -1133 72 -146 223 -275 376 -322 121 -38 238 -42
1157 -38 778 4 888 6 949 21 193 47 353 174 441 352 69 140 68 116 72 1065 4
837 -1 1052 -28 1141 -5 19 -12 43 -14 54 -7 32 -57 127 -76 146 -11 11 -19
22 -18 25 2 12 -127 139 -141 139 -3 0 -14 8 -24 18 -48 48 -188 92 -336 106
-105 10 -1720 17 -1731 7z m1601 -616 l0 -150 190 0 c105 0 190 -3 190 -7 0
-5 -18 -75 -38 -158 l-38 -150 -37 0 -37 0 0 -605 1 -605 32 -20 c29 -18 32
-25 35 -77 2 -47 7 -58 23 -63 40 -13 59 -46 59 -102 l0 -53 -385 0 -385 0 0
55 c0 48 4 60 26 80 15 14 33 25 41 25 10 0 13 13 12 50 -2 53 15 84 52 95 18
6 19 23 19 349 0 270 -3 354 -15 399 -48 184 -196 334 -376 382 -79 21 -214
19 -290 -5 -131 -40 -251 -136 -312 -249 -59 -108 -67 -171 -67 -535 l0 -331
28 -13 c35 -15 52 -49 52 -102 0 -22 5 -40 10 -40 6 0 22 -11 35 -25 21 -20
25 -34 25 -80 l0 -55 -385 0 -385 0 0 49 c0 52 24 95 60 106 16 5 20 15 20 51
0 54 12 79 45 97 l25 13 3 602 2 602 -31 0 c-17 0 -36 6 -41 13 -6 6 -24 71
-42 142 -17 72 -34 138 -37 148 -5 16 8 17 185 17 l191 0 0 150 0 150 770 0
770 0 0 -150z"/>
</g>
</svg>
