<svg width="48" height="48" viewBox="0 0 48 48" fill="none" xmlns="http://www.w3.org/2000/svg">
<rect x="0.5" y="0.5" width="47" height="47" rx="23.5" fill="white" stroke="#E3E3E3"/>
<g clip-path="url(#clip0_292_445)">
<path d="M23.8658 25.1989C27.0605 25.1989 29.9658 26.1242 32.1032 27.4282C33.1698 28.0789 34.0818 28.8469 34.7405 29.6816C35.3885 30.5016 35.8658 31.4829 35.8658 32.5322C35.8658 33.6589 35.3178 34.5469 34.5285 35.1802C33.7818 35.7802 32.7965 36.1776 31.7498 36.4549C29.6458 37.0109 26.8378 37.1989 23.8658 37.1989C20.8938 37.1989 18.0858 37.0122 15.9818 36.4549C14.9352 36.1776 13.9498 35.7802 13.2032 35.1802C12.4125 34.5456 11.8658 33.6589 11.8658 32.5322C11.8658 31.4829 12.3432 30.5016 12.9912 29.6802C13.6498 28.8469 14.5605 28.0802 15.6285 27.4269C17.7658 26.1256 20.6725 25.1989 23.8658 25.1989ZM23.8658 10.5322C25.634 10.5322 27.3296 11.2346 28.5799 12.4848C29.8301 13.7351 30.5325 15.4308 30.5325 17.1989C30.5325 18.967 29.8301 20.6627 28.5799 21.9129C27.3296 23.1632 25.634 23.8656 23.8658 23.8656C22.0977 23.8656 20.402 23.1632 19.1518 21.9129C17.9016 20.6627 17.1992 18.967 17.1992 17.1989C17.1992 15.4308 17.9016 13.7351 19.1518 12.4848C20.402 11.2346 22.0977 10.5322 23.8658 10.5322Z" fill="#FF8200"/>
</g>
<defs>
<clipPath id="clip0_292_445">
<rect width="32" height="32" fill="white" transform="translate(7.86584 7.86572)"/>
</clipPath>
</defs>
</svg>
