<svg width="49" height="18" viewBox="0 0 49 18" fill="none" xmlns="http://www.w3.org/2000/svg">
<path d="M6.808 17.072C5.928 17.072 5.072 16.952 4.24 16.712C3.424 16.472 2.696 16.088 2.056 15.56C1.416 15.032 0.92 14.344 0.568 13.496C0.216 12.68 0.08 11.816 0.16 10.904C0.24 9.816 0.528 8.792 1.024 7.832C1.52 6.872 2.16 6 2.944 5.216C3.744 4.432 4.624 3.76 5.584 3.2C6.56 2.64 7.56 2.208 8.584 1.904C9.624 1.6 10.624 1.448 11.584 1.448H11.68C11.968 1.448 12.304 1.48 12.688 1.544C13.088 1.608 13.44 1.736 13.744 1.928C14.048 2.12 14.2 2.416 14.2 2.816C14.2 3.024 14.152 3.24 14.056 3.464C13.944 3.704 13.84 3.952 13.744 4.208C13.648 4.448 13.552 4.696 13.456 4.952L12.736 6.848L12.448 6.632C12.448 6.632 12.488 6.52 12.568 6.296C12.664 6.056 12.752 5.784 12.832 5.48C12.928 5.176 12.984 4.928 13 4.736C13.048 4.16 12.904 3.752 12.568 3.512C12.248 3.256 11.848 3.104 11.368 3.056C10.888 3.008 10.432 2.984 10 2.984C9.088 2.984 8.184 3.136 7.288 3.44C6.392 3.744 5.568 4.176 4.816 4.736C4.08 5.296 3.48 5.976 3.016 6.776C2.552 7.56 2.28 8.448 2.2 9.44C2.184 9.552 2.176 9.664 2.176 9.776C2.176 9.872 2.176 9.968 2.176 10.064C2.176 11.648 2.632 12.888 3.544 13.784C4.456 14.68 5.864 15.128 7.768 15.128C8.664 15.128 9.608 14.952 10.6 14.6C11.608 14.232 12.456 13.736 13.144 13.112C13.32 12.952 13.48 12.784 13.624 12.608C13.784 12.432 13.944 12.256 14.104 12.08L14.296 12.392C14.296 12.392 14.208 12.488 14.032 12.68C13.856 12.856 13.64 13.088 13.384 13.376C13.128 13.648 12.872 13.928 12.616 14.216C12.376 14.504 12.192 14.744 12.064 14.936C11.776 15.336 11.48 15.696 11.176 16.016C10.872 16.336 10.464 16.56 9.952 16.688C9.456 16.816 8.936 16.912 8.392 16.976C7.848 17.04 7.32 17.072 6.808 17.072ZM25.1539 4.088L24.8659 3.824C24.9619 3.44 25.0099 3.096 25.0099 2.792C25.0099 2.296 24.8899 1.912 24.6499 1.64C24.4099 1.368 24.0739 1.232 23.6419 1.232C23.2419 1.232 22.7859 1.36 22.2739 1.616L22.1539 1.4C22.6819 1.096 23.1379 0.871999 23.5219 0.727999C23.9219 0.583999 24.3059 0.487999 24.6739 0.439999C25.0579 0.375999 25.4739 0.335999 25.9219 0.319999L25.9939 0.391999C26.0099 0.423999 26.0179 0.487999 26.0179 0.584C26.0179 0.792 25.9699 1.04 25.8739 1.328C25.7939 1.616 25.7059 1.912 25.6099 2.216C25.5459 2.392 25.4819 2.568 25.4179 2.744C25.3699 2.904 25.3219 3.064 25.2739 3.224C25.1779 3.544 25.1379 3.832 25.1539 4.088ZM13.7539 17.24C13.7859 16.6 13.8419 15.824 13.9219 14.912C14.0179 13.984 14.1619 12.984 14.3539 11.912C14.5459 10.84 14.8179 9.76 15.1699 8.672C15.5379 7.568 16.0019 6.52 16.5619 5.528C17.1379 4.52 17.8419 3.624 18.6739 2.84C19.5219 2.056 20.5299 1.456 21.6979 1.04L23.6179 0.344L23.6659 0.535999C22.2739 1.128 21.1299 1.848 20.2339 2.696C19.3379 3.528 18.6259 4.448 18.0979 5.456C17.5699 6.448 17.1619 7.488 16.8739 8.576C16.5859 9.664 16.3619 10.752 16.2019 11.84C16.1859 11.904 16.1619 12.08 16.1299 12.368C16.0979 12.656 16.0579 13 16.0099 13.4C16.2499 12.936 16.5619 12.408 16.9459 11.816C17.3299 11.208 17.7459 10.608 18.1939 10.016C18.6579 9.408 19.1219 8.872 19.5859 8.408C20.0499 7.944 20.4739 7.632 20.8579 7.472C21.1459 7.264 21.4739 7.096 21.8419 6.968C21.9219 6.936 22.0659 6.888 22.2739 6.824C22.4979 6.744 22.7299 6.656 22.9699 6.56C23.2099 6.464 23.4179 6.384 23.5939 6.32C23.7699 6.256 23.8579 6.224 23.8579 6.224L23.9779 6.44L23.3059 6.728C23.0179 6.84 22.7219 7.096 22.4179 7.496C22.1139 7.88 21.8339 8.336 21.5779 8.864C21.3219 9.392 21.1219 9.92 20.9779 10.448C20.8179 11.088 20.6659 11.76 20.5219 12.464C20.3779 13.152 20.2739 13.8 20.2099 14.408C20.7219 13.656 21.3139 12.896 21.9859 12.128C22.6739 11.344 23.3459 10.736 24.0019 10.304L24.1939 10.544C23.7939 10.784 23.3779 11.168 22.9459 11.696C22.5139 12.224 22.0979 12.792 21.6979 13.4C21.3139 14.008 20.9859 14.576 20.7139 15.104C20.4419 15.632 20.2659 16.032 20.1859 16.304L18.2899 17.24C18.2739 17.16 18.2659 17.064 18.2659 16.952C18.2659 16.84 18.2659 16.72 18.2659 16.592C18.2659 16.112 18.2979 15.528 18.3619 14.84C18.4419 14.152 18.5459 13.448 18.6739 12.728C18.8019 11.992 18.9459 11.32 19.1059 10.712C19.2019 10.408 19.2899 10.128 19.3699 9.872C19.4659 9.6 19.5619 9.352 19.6579 9.128C19.1779 9.496 18.7059 9.992 18.2419 10.616C17.7779 11.24 17.3459 11.912 16.9459 12.632C16.5619 13.336 16.2499 14.016 16.0099 14.672C15.7859 15.312 15.6739 15.848 15.6739 16.28V16.304C15.4019 16.416 15.0819 16.568 14.7139 16.76C14.3459 16.952 14.0259 17.112 13.7539 17.24ZM31.9308 6.872C31.4188 6.92 30.9948 6.872 30.6588 6.728C30.3228 6.584 29.9468 6.512 29.5308 6.512C29.2908 6.512 29.0268 6.56 28.7388 6.656L28.6668 6.392C29.0508 6.2 29.4588 6.024 29.8908 5.864C30.3388 5.704 30.7628 5.624 31.1628 5.624C31.4188 5.624 31.6668 5.648 31.9068 5.696C32.1468 5.744 32.3948 5.792 32.6508 5.84C32.8268 5.856 33.0028 5.88 33.1788 5.912C33.3548 5.928 33.5388 5.936 33.7308 5.936C33.8748 5.936 34.0268 5.928 34.1868 5.912C34.3628 5.896 34.5388 5.872 34.7148 5.84L34.8108 6.008C34.8108 6.008 34.6828 6.048 34.4268 6.128C34.1868 6.208 33.8908 6.304 33.5388 6.416C33.1868 6.528 32.8588 6.632 32.5548 6.728C32.2508 6.808 32.0428 6.856 31.9308 6.872ZM28.9548 17.24C28.9388 17.16 28.9308 17.064 28.9308 16.952C28.9308 16.84 28.9308 16.72 28.9308 16.592C28.9308 16.112 28.9628 15.528 29.0268 14.84C29.1068 14.152 29.2108 13.448 29.3388 12.728C29.4668 11.992 29.6108 11.32 29.7708 10.712C30.0908 9.624 30.4268 8.792 30.7788 8.216C31.1468 7.64 31.6908 7.224 32.4108 6.968C32.4908 6.936 32.6348 6.888 32.8428 6.824C33.0668 6.744 33.2988 6.656 33.5388 6.56C33.7788 6.464 33.9868 6.384 34.1628 6.32C34.3388 6.256 34.4268 6.224 34.4268 6.224L34.5228 6.44L33.8748 6.728C33.5868 6.856 33.2908 7.12 32.9868 7.52C32.6828 7.904 32.4028 8.36 32.1468 8.888C31.8908 9.4 31.6908 9.92 31.5468 10.448C31.3868 11.088 31.2508 11.76 31.1388 12.464C31.0268 13.152 30.9388 13.8 30.8748 14.408C31.2268 13.912 31.6108 13.408 32.0268 12.896C32.4428 12.368 32.8748 11.88 33.3228 11.432C33.7868 10.968 34.2348 10.592 34.6668 10.304L34.8588 10.544C34.4588 10.784 34.0428 11.168 33.6108 11.696C33.1788 12.224 32.7628 12.792 32.3628 13.4C31.9788 14.008 31.6508 14.576 31.3788 15.104C31.1068 15.632 30.9308 16.032 30.8508 16.304L28.9548 17.24ZM23.3628 17.24C23.3468 17.16 23.3388 17.064 23.3388 16.952C23.3388 16.84 23.3388 16.72 23.3388 16.592C23.3388 16.112 23.3708 15.528 23.4348 14.84C23.5148 14.152 23.6188 13.448 23.7468 12.728C23.8748 11.992 24.0188 11.32 24.1788 10.712C24.4988 9.608 24.8668 8.776 25.2828 8.216C25.7148 7.64 26.2908 7.224 27.0108 6.968C27.1708 6.92 27.3868 6.848 27.6588 6.752C27.9308 6.64 28.1948 6.544 28.4508 6.464L28.5468 6.728L27.8508 7.088C27.5628 7.248 27.2508 7.648 26.9148 8.288C26.5788 8.928 26.2988 9.648 26.0748 10.448C25.9468 10.96 25.8188 11.496 25.6908 12.056C25.5788 12.616 25.4828 13.16 25.4028 13.688C25.4028 13.72 25.4268 13.736 25.4748 13.736C25.5548 13.736 25.6668 13.704 25.8108 13.64C25.9548 13.576 26.0348 13.536 26.0508 13.52C26.2268 13.408 26.4348 13.264 26.6748 13.088C26.9308 12.896 27.1868 12.68 27.4428 12.44C27.9708 11.96 28.4588 11.424 28.9068 10.832C29.3708 10.224 29.6588 9.648 29.7708 9.104C29.7708 9.072 29.8188 9.064 29.9148 9.08C30.0268 9.08 30.0828 9.08 30.0828 9.08C29.9708 9.784 29.6588 10.464 29.1468 11.12C28.6348 11.776 28.0988 12.408 27.5388 13.016C27.2828 13.288 27.0188 13.568 26.7467 13.856C26.4908 14.128 26.2508 14.424 26.0268 14.744C25.8188 15.016 25.6508 15.28 25.5228 15.536C25.4108 15.792 25.3548 16.04 25.3548 16.28L23.3628 17.24ZM39.5954 17.24C39.5634 16.312 39.6354 15.256 39.8114 14.072C39.9874 12.872 40.2434 11.64 40.5794 10.376C40.9314 9.096 41.3234 7.88 41.7554 6.728C41.4994 6.696 41.2354 6.656 40.9634 6.608C40.7074 6.56 40.4434 6.536 40.1714 6.536C40.0594 6.536 39.9314 6.544 39.7874 6.56C39.6594 6.576 39.5314 6.6 39.4034 6.632L39.3074 6.368L40.9874 5.768C41.0834 5.736 41.1794 5.72 41.2754 5.72C41.3874 5.72 41.4994 5.72 41.6114 5.72C41.7074 5.72 41.7954 5.72 41.8754 5.72C41.9714 5.72 42.0674 5.728 42.1634 5.744C42.7234 4.464 43.3074 3.384 43.9154 2.504C44.5234 1.608 45.1234 1.088 45.7154 0.943999L47.9474 0.391999L48.0434 0.559999C47.0834 1.008 46.2434 1.712 45.5234 2.672C44.8034 3.632 44.1874 4.712 43.6754 5.912C43.9474 5.928 44.2194 5.936 44.4914 5.936C44.7634 5.92 45.0514 5.88 45.3554 5.816L45.4754 5.984L43.2914 6.8C43.1474 7.184 42.9874 7.696 42.8114 8.336C42.6354 8.96 42.4594 9.64 42.2834 10.376C42.1074 11.112 41.9474 11.84 41.8034 12.56C41.6754 13.264 41.5794 13.888 41.5154 14.432C42.0274 13.68 42.6274 12.912 43.3154 12.128C44.0034 11.344 44.6754 10.736 45.3314 10.304L45.5234 10.544C45.1234 10.784 44.7074 11.168 44.2754 11.696C43.8434 12.224 43.4274 12.792 43.0274 13.4C42.6434 14.008 42.3154 14.576 42.0434 15.104C41.7714 15.632 41.5874 16.032 41.4914 16.304L39.5954 17.24ZM34.0034 17.24C33.9874 17.16 33.9794 17.064 33.9794 16.952C33.9794 16.84 33.9794 16.72 33.9794 16.592C33.9794 16.112 34.0114 15.528 34.0754 14.84C34.1554 14.152 34.2594 13.448 34.3874 12.728C34.5154 11.992 34.6594 11.32 34.8194 10.712C35.1394 9.608 35.5074 8.776 35.9234 8.216C36.3554 7.64 36.9394 7.224 37.6754 6.968C37.8354 6.92 38.0434 6.84 38.2994 6.728C38.5714 6.616 38.8354 6.52 39.0914 6.44L39.1874 6.704L38.5874 7.016C38.3954 7.112 38.1794 7.336 37.9394 7.688C37.7154 8.024 37.4914 8.44 37.2674 8.936C37.0434 9.416 36.8594 9.92 36.7154 10.448C36.4434 11.52 36.2194 12.6 36.0434 13.688C36.0434 13.72 36.0674 13.736 36.1154 13.736C36.1954 13.736 36.2914 13.704 36.4034 13.64C36.5314 13.576 36.6034 13.536 36.6194 13.52C37.0194 13.296 37.4914 12.936 38.0354 12.44C38.5474 11.96 39.0434 11.424 39.5234 10.832C40.0194 10.224 40.3154 9.648 40.4114 9.104C40.4274 9.072 40.4834 9.064 40.5794 9.08C40.6754 9.08 40.7234 9.08 40.7234 9.08C40.6114 9.784 40.2994 10.464 39.7874 11.12C39.2914 11.776 38.7634 12.408 38.2034 13.016C37.9474 13.288 37.6834 13.568 37.4114 13.856C37.1394 14.128 36.8914 14.424 36.6674 14.744C36.4594 15.016 36.2914 15.28 36.1634 15.536C36.0514 15.792 35.9954 16.04 35.9954 16.28L34.0034 17.24Z" fill="url(#paint0_linear_93_401)"/>
<defs>
<linearGradient id="paint0_linear_93_401" x1="21.5" y1="-6" x2="42.5023" y2="10.5163" gradientUnits="userSpaceOnUse">
<stop stop-color="#B79D43" stop-opacity="0.92"/>
<stop offset="1" stop-opacity="0.76"/>
</linearGradient>
</defs>
</svg>
