<svg width="51" height="51" viewBox="0 0 51 51" fill="none" xmlns="http://www.w3.org/2000/svg">
<rect x="0.523629" y="2.7999" width="47" height="47" rx="23.5" transform="rotate(-2.77599 0.523629 2.7999)" fill="white" stroke="#E3E3E3"/>
<g clip-path="url(#clip0_93_385)">
<path d="M25 26.3333C28.1947 26.3333 31.1 27.2587 33.2373 28.5627C34.304 29.2133 35.216 29.9813 35.8747 30.816C36.5227 31.636 37 32.6173 37 33.6667C37 34.7933 36.452 35.6813 35.6627 36.3147C34.916 36.9147 33.9307 37.312 32.884 37.5893C30.78 38.1453 27.972 38.3333 25 38.3333C22.028 38.3333 19.22 38.1467 17.116 37.5893C16.0693 37.312 15.084 36.9147 14.3373 36.3147C13.5467 35.68 13 34.7933 13 33.6667C13 32.6173 13.4773 31.636 14.1253 30.8147C14.784 29.9813 15.6947 29.2147 16.7627 28.5613C18.9 27.26 21.8067 26.3333 25 26.3333ZM25 11.6667C26.7681 11.6667 28.4638 12.369 29.714 13.6193C30.9643 14.8695 31.6667 16.5652 31.6667 18.3333C31.6667 20.1014 30.9643 21.7971 29.714 23.0474C28.4638 24.2976 26.7681 25 25 25C23.2319 25 21.5362 24.2976 20.286 23.0474C19.0357 21.7971 18.3333 20.1014 18.3333 18.3333C18.3333 16.5652 19.0357 14.8695 20.286 13.6193C21.5362 12.369 23.2319 11.6667 25 11.6667Z" fill="#434FB7"/>
</g>
<defs>
<clipPath id="clip0_93_385">
<rect width="32" height="32" fill="white" transform="translate(9 9)"/>
</clipPath>
</defs>
</svg>
