<svg width="44" height="18" viewBox="0 0 44 18" fill="none" xmlns="http://www.w3.org/2000/svg">
<path d="M10.608 16.736C9.392 16.704 8.4 16.68 7.632 16.664C6.864 16.648 6.24 16.632 5.76 16.616C5.296 16.6 4.888 16.6 4.536 16.616C4.296 16.616 3.944 16.624 3.48 16.64C3.016 16.656 2.504 16.672 1.944 16.688C1.384 16.688 0.848 16.688 0.336 16.688H0.312C0.264 16.688 0.24 16.664 0.24 16.616C0.24 16.552 0.28 16.48 0.36 16.4C0.456 16.304 0.536 16.264 0.6 16.28C0.984 16.28 1.328 16.288 1.632 16.304C1.936 16.304 2.2 16.304 2.424 16.304C3 16.304 3.424 16.248 3.696 16.136C3.968 16.008 4.184 15.752 4.344 15.368C4.504 14.984 4.696 14.392 4.92 13.592C5.416 11.848 5.824 10.176 6.144 8.576C6.464 6.96 6.776 5.28 7.08 3.536C7.128 3.216 7.064 2.944 6.888 2.72C6.728 2.48 6.544 2.344 6.336 2.312C6.176 2.28 5.904 2.256 5.52 2.24C5.152 2.224 4.784 2.216 4.416 2.216C4.048 2.2 3.808 2.2 3.696 2.216C3.616 2.216 3.576 2.184 3.576 2.12C3.576 2.056 3.616 1.992 3.696 1.928C3.776 1.848 3.856 1.808 3.936 1.808C4.592 1.808 5.36 1.824 6.24 1.856C7.12 1.888 7.936 1.904 8.688 1.904H9.12C9.584 1.888 10.168 1.816 10.872 1.688C11.592 1.544 12.312 1.472 13.032 1.472C13.656 1.472 14.24 1.584 14.784 1.808C15.328 2.032 15.768 2.384 16.104 2.864C16.456 3.328 16.632 3.936 16.632 4.688C16.632 4.848 16.624 5.016 16.608 5.192C16.592 5.352 16.568 5.52 16.536 5.696C16.392 6.432 16.072 7.152 15.576 7.856C15.096 8.56 14.52 9.184 13.848 9.728C13.176 10.272 12.488 10.68 11.784 10.952C11.336 11.112 10.936 11.224 10.584 11.288C10.248 11.352 9.944 11.384 9.672 11.384C9.272 11.384 8.952 11.336 8.712 11.24C8.472 11.144 8.312 11.048 8.232 10.952C8.136 10.824 8.088 10.688 8.088 10.544C8.088 10.4 8.128 10.28 8.208 10.184C8.288 10.072 8.36 10.056 8.424 10.136C8.536 10.248 8.632 10.368 8.712 10.496C8.792 10.624 8.88 10.728 8.976 10.808C9.184 10.968 9.416 11.048 9.672 11.048C10.392 11.048 11.064 10.776 11.688 10.232C12.328 9.672 12.856 8.944 13.272 8.048C13.688 7.152 13.928 6.2 13.992 5.192C14.056 4.296 13.896 3.552 13.512 2.96C13.144 2.368 12.608 2.072 11.904 2.072C11.168 2.072 10.616 2.328 10.248 2.84C9.896 3.352 9.568 4 9.264 4.784C9.2 4.976 9.096 5.32 8.952 5.816C8.808 6.312 8.632 7.016 8.424 7.928C8.232 8.824 8 9.984 7.728 11.408C7.712 11.536 7.672 11.816 7.608 12.248C7.544 12.664 7.488 13.128 7.44 13.64C7.392 14.136 7.384 14.568 7.416 14.936C7.448 15.288 7.576 15.592 7.8 15.848C8.024 16.088 8.304 16.224 8.64 16.256C8.96 16.304 9.36 16.328 9.84 16.328C10.032 16.328 10.224 16.328 10.416 16.328C10.608 16.312 10.784 16.296 10.944 16.28C10.992 16.28 11.016 16.304 11.016 16.352C11.016 16.416 10.968 16.504 10.872 16.616C10.792 16.712 10.704 16.752 10.608 16.736ZM15.8584 17.24C15.9224 16.728 16.0024 16.064 16.0984 15.248C16.2104 14.432 16.3544 13.528 16.5304 12.536C16.7064 11.544 16.9144 10.52 17.1544 9.464C17.3944 8.408 17.6744 7.384 17.9944 6.392C18.3304 5.4 18.7064 4.504 19.1224 3.704C19.5544 2.888 20.0264 2.232 20.5384 1.736C21.0664 1.224 21.6504 0.927999 22.2904 0.847999C22.4024 0.831999 22.6104 0.791999 22.9144 0.727999C23.2184 0.647999 23.5064 0.575999 23.7784 0.511999C24.0504 0.431999 24.1864 0.391999 24.1864 0.391999L24.2104 0.559999L23.6344 0.896C22.8984 1.328 22.2424 1.952 21.6664 2.768C21.0904 3.568 20.5864 4.48 20.1544 5.504C19.7224 6.512 19.3464 7.56 19.0264 8.648C18.7224 9.736 18.4664 10.784 18.2584 11.792C18.0664 12.784 17.9064 13.656 17.7784 14.408C18.2904 13.656 18.8824 12.896 19.5544 12.128C20.2424 11.344 20.9144 10.736 21.5704 10.304L21.7624 10.544C21.3624 10.784 20.9464 11.168 20.5144 11.696C20.0824 12.224 19.6664 12.792 19.2664 13.4C18.8824 14.008 18.5544 14.576 18.2824 15.104C18.0104 15.632 17.8344 16.032 17.7544 16.304L15.8584 17.24ZM26.1064 4.16L25.8424 3.896C25.9384 3.512 25.9864 3.176 25.9864 2.888C25.9864 2.376 25.8584 1.984 25.6024 1.712C25.3624 1.44 25.0264 1.304 24.5944 1.304C24.2104 1.304 23.7624 1.424 23.2504 1.664L23.1304 1.472C23.6584 1.168 24.1144 0.944 24.4984 0.8C24.8984 0.656 25.2824 0.559999 25.6504 0.511999C26.0184 0.447999 26.4264 0.407999 26.8744 0.391999L26.9464 0.464C26.9624 0.495999 26.9704 0.567999 26.9704 0.68C26.9704 0.887999 26.9304 1.136 26.8504 1.424C26.7704 1.712 26.6824 2 26.5864 2.288C26.5224 2.464 26.4584 2.64 26.3944 2.816C26.3304 2.976 26.2824 3.136 26.2504 3.296C26.2024 3.456 26.1624 3.608 26.1304 3.752C26.0984 3.88 26.0904 4.016 26.1064 4.16ZM30.1907 9.92L29.9027 9.728C29.9347 9.568 29.9587 9.424 29.9747 9.296C30.0067 9.152 30.0227 9.016 30.0227 8.888C30.0227 8.376 29.8707 7.984 29.5667 7.712C29.2787 7.44 28.8947 7.304 28.4147 7.304C27.9667 7.304 27.4467 7.44 26.8547 7.712L26.7347 7.52C27.4867 7.088 28.1827 6.752 28.8227 6.512C29.4787 6.272 30.1027 6.152 30.6947 6.152H30.7907C30.9667 6.152 31.0547 6.248 31.0547 6.44C31.0547 6.648 31.0147 6.896 30.9347 7.184C30.8547 7.456 30.7667 7.744 30.6707 8.048C30.6067 8.208 30.5507 8.368 30.5027 8.528C30.4547 8.672 30.4147 8.824 30.3827 8.984C30.2707 9.384 30.2067 9.696 30.1907 9.92ZM24.9587 17.024C24.4787 17.024 24.0307 16.952 23.6147 16.808C23.1987 16.664 22.9027 16.408 22.7267 16.04C22.6147 15.816 22.5347 15.56 22.4867 15.272C22.4547 14.968 22.4387 14.656 22.4387 14.336C22.4387 13.76 22.4947 13.152 22.6067 12.512C22.7347 11.856 22.8787 11.256 23.0387 10.712C23.3747 9.624 23.7507 8.792 24.1667 8.216C24.5827 7.64 25.1507 7.224 25.8707 6.968C25.9827 6.936 26.1587 6.872 26.3987 6.776C26.6547 6.68 26.9107 6.584 27.1667 6.488C27.4387 6.376 27.6547 6.296 27.8147 6.248L27.8387 6.536L26.4227 7.304C26.2147 7.416 25.9987 7.672 25.7747 8.072C25.5507 8.456 25.3427 8.92 25.1507 9.464C24.9587 10.008 24.7827 10.568 24.6227 11.144L26.1347 10.424C26.3267 10.376 26.5347 10.352 26.7587 10.352C26.9667 10.352 27.1667 10.368 27.3587 10.4C27.5667 10.432 27.7747 10.464 27.9827 10.496C28.3507 10.544 28.7267 10.568 29.1107 10.568C29.2707 10.568 29.4307 10.56 29.5907 10.544C29.7667 10.528 29.9347 10.504 30.0947 10.472L30.1907 10.64L27.9587 11.744C27.8627 11.76 27.7667 11.776 27.6707 11.792C27.5907 11.792 27.5027 11.792 27.4067 11.792C27.0227 11.792 26.6307 11.744 26.2307 11.648C25.8467 11.552 25.4627 11.504 25.0787 11.504C24.9827 11.504 24.8867 11.504 24.7907 11.504C24.7107 11.504 24.6227 11.52 24.5267 11.552C24.4467 11.936 24.3747 12.312 24.3107 12.68C24.2627 13.032 24.2387 13.368 24.2387 13.688C24.2387 14.184 24.3107 14.592 24.4547 14.912C24.6627 15.36 24.9667 15.712 25.3667 15.968C25.7667 16.208 26.2067 16.328 26.6867 16.328C27.3907 16.328 28.0867 16.04 28.7747 15.464C29.4627 14.888 29.9587 13.96 30.2627 12.68L30.5987 12.92C30.4547 13.32 30.3027 13.76 30.1427 14.24C29.9827 14.704 29.8387 15.272 29.7107 15.944C29.5507 16.2 29.3507 16.368 29.1107 16.448C28.8707 16.528 28.5987 16.568 28.2947 16.568C28.1827 16.568 28.0547 16.568 27.9107 16.568C27.7667 16.552 27.6227 16.544 27.4787 16.544C27.2547 16.656 26.9027 16.768 26.4227 16.88C25.9587 16.976 25.4707 17.024 24.9587 17.024ZM31.5497 16.832C31.6777 16.128 31.7897 15.408 31.8857 14.672C31.9817 13.92 32.0857 13.168 32.1977 12.416C32.3897 11.216 32.6377 10.04 32.9417 8.888C33.2617 7.736 33.6857 6.656 34.2137 5.648C34.7577 4.624 35.4617 3.72 36.3257 2.936C37.1897 2.152 38.2617 1.52 39.5417 1.04L41.4377 0.344L41.4857 0.535999C40.1417 1.112 39.0297 1.808 38.1497 2.624C37.2697 3.44 36.5657 4.336 36.0377 5.312C35.5097 6.288 35.1017 7.304 34.8137 8.36C34.5257 9.416 34.3017 10.472 34.1417 11.528C34.6057 10.648 35.1337 9.784 35.7257 8.936C36.3337 8.072 36.9977 7.312 37.7177 6.656C38.4537 6 39.2377 5.552 40.0697 5.312V5.672C39.3017 5.896 38.5737 6.336 37.8857 6.992C37.1977 7.648 36.5657 8.424 35.9897 9.32C35.4297 10.216 34.9497 11.152 34.5497 12.128C34.1657 13.104 33.8857 14.024 33.7097 14.888C33.6937 15 33.6697 15.168 33.6377 15.392C33.6057 15.616 33.5897 15.752 33.5897 15.8L31.5497 16.832ZM42.9977 4.232L42.6857 4.04C42.7817 3.656 42.8297 3.304 42.8297 2.984C42.8297 2.472 42.7097 2.08 42.4697 1.808C42.2297 1.52 41.8857 1.376 41.4377 1.376C41.0697 1.376 40.6297 1.496 40.1177 1.736L39.9977 1.544C40.7337 1.112 41.3497 0.824 41.8457 0.68C42.3577 0.536 42.9097 0.464 43.5017 0.464H43.5977C43.7737 0.464 43.8617 0.559999 43.8617 0.751999C43.8617 0.943999 43.8217 1.184 43.7417 1.472C43.6617 1.76 43.5657 2.048 43.4537 2.336C43.3897 2.512 43.3337 2.68 43.2857 2.84C43.2377 2.984 43.1977 3.136 43.1657 3.296C43.1337 3.472 43.0937 3.64 43.0457 3.8C43.0137 3.96 42.9977 4.104 42.9977 4.232ZM30.9977 17.816V17.504C31.5097 17.504 32.0857 17.432 32.7257 17.288C33.3817 17.16 34.0137 16.928 34.6217 16.592C35.2457 16.256 35.7497 15.792 36.1337 15.2C36.8697 14.064 37.3897 12.848 37.6937 11.552C37.9977 10.24 38.1577 8.752 38.1737 7.088C38.3977 6.944 38.6537 6.784 38.9417 6.608C39.2457 6.416 39.6297 6.216 40.0937 6.008V6.848C40.0937 8.24 39.9897 9.6 39.7817 10.928C39.5897 12.256 39.1657 13.44 38.5097 14.48C37.9497 15.344 37.2697 16.024 36.4697 16.52C35.6697 17 34.8057 17.336 33.8777 17.528C32.9497 17.72 31.9897 17.816 30.9977 17.816Z" fill="url(#paint0_linear_93_391)"/>
<defs>
<linearGradient id="paint0_linear_93_391" x1="20.5" y1="-6" x2="40.6627" y2="7.8319" gradientUnits="userSpaceOnUse">
<stop stop-color="#434FB7" stop-opacity="0.92"/>
<stop offset="1" stop-opacity="0.76"/>
</linearGradient>
</defs>
</svg>
