<svg width="169" height="161" viewBox="0 0 169 161" fill="none" xmlns="http://www.w3.org/2000/svg">
<rect width="169" height="161" rx="9.36709" fill="#F5F5F5"/>
<rect x="63.75" y="32.75" width="42.5" height="74.5" rx="4.25" stroke="#E60023" stroke-width="1.5"/>
<path d="M37.0243 124.876C37.689 124.876 38.2569 124.989 38.728 125.216C39.1992 125.435 39.5609 125.755 39.8133 126.176C40.0742 126.596 40.2046 127.105 40.2046 127.703C40.2046 128.064 40.1499 128.422 40.0405 128.775C39.9311 129.12 39.7545 129.436 39.5105 129.722C39.2749 129.999 38.9636 130.222 38.5766 130.391C38.1896 130.559 37.7184 130.643 37.1632 130.643H35.8128V134H34.5887V124.876H37.0243ZM37.1505 129.469C37.5123 129.469 37.811 129.411 38.0465 129.293C38.2821 129.175 38.4672 129.028 38.6018 128.851C38.7364 128.666 38.8332 128.472 38.8921 128.271C38.951 128.069 38.9804 127.888 38.9804 127.728C38.9804 127.543 38.951 127.353 38.8921 127.16C38.8332 126.958 38.7322 126.777 38.5892 126.617C38.4546 126.449 38.2737 126.314 38.0465 126.213C37.8278 126.104 37.5544 126.049 37.2263 126.049H35.8128V129.469H37.1505ZM41.8039 128.775H42.9775V134H41.8039V128.775ZM41.7155 126.882C41.7155 126.697 41.787 126.542 41.9301 126.415C42.0815 126.289 42.2456 126.226 42.4222 126.226C42.5989 126.226 42.7546 126.289 42.8892 126.415C43.0322 126.542 43.1037 126.697 43.1037 126.882C43.1037 127.076 43.0322 127.236 42.8892 127.362C42.7546 127.48 42.5989 127.539 42.4222 127.539C42.2456 127.539 42.0815 127.475 41.9301 127.349C41.787 127.223 41.7155 127.067 41.7155 126.882ZM46.0556 128.775L46.1566 130.05L46.1061 129.848C46.2744 129.461 46.5478 129.154 46.9264 128.927C47.305 128.691 47.7425 128.573 48.2389 128.573C48.7352 128.573 49.1391 128.721 49.4504 129.015C49.7701 129.301 49.9341 129.676 49.9426 130.138V134H48.7563V130.555C48.7479 130.269 48.6637 130.037 48.5039 129.861C48.3524 129.676 48.1127 129.583 47.7845 129.583C47.4817 129.583 47.2082 129.667 46.9642 129.835C46.7203 130.004 46.5268 130.235 46.3837 130.53C46.2491 130.824 46.1818 131.165 46.1818 131.552V134H45.0081V128.775H46.0556ZM52.4884 126.478H53.6621V128.801H55.1008V129.722H53.6621V134H52.4884V129.722H51.5293V128.801H52.4884V126.478ZM58.942 134.126C58.3446 134.126 57.8314 134.008 57.4023 133.773C56.9733 133.529 56.6409 133.201 56.4054 132.788C56.1782 132.368 56.0646 131.888 56.0646 131.35C56.0646 130.837 56.195 130.37 56.4558 129.949C56.7167 129.528 57.0658 129.192 57.5033 128.939C57.9408 128.687 58.4288 128.561 58.9672 128.561C59.6571 128.561 60.2292 128.763 60.6835 129.167C61.1379 129.57 61.4449 130.126 61.6048 130.832L57.3014 132.347L57.0237 131.653L60.5573 130.365L60.3049 130.53C60.204 130.252 60.0357 130.012 59.8001 129.81C59.5646 129.6 59.2575 129.495 58.8789 129.495C58.5592 129.495 58.2731 129.575 58.0207 129.734C57.7683 129.886 57.5706 130.096 57.4276 130.365C57.2846 130.635 57.213 130.942 57.213 131.287C57.213 131.648 57.2888 131.968 57.4402 132.246C57.5916 132.515 57.7978 132.73 58.0586 132.889C58.3278 133.041 58.6307 133.117 58.9672 133.117C59.1944 133.117 59.4131 133.075 59.6235 132.99C59.8422 132.906 60.0441 132.797 60.2292 132.662L60.7719 133.533C60.5111 133.71 60.2166 133.853 59.8885 133.962C59.5688 134.072 59.2533 134.126 58.942 134.126ZM64.1229 128.775L64.2365 130.29L64.1734 130.088C64.308 129.768 64.5015 129.499 64.7539 129.28C65.0147 129.053 65.2839 128.88 65.5616 128.763C65.8476 128.637 66.0958 128.573 66.3061 128.573L66.243 129.734C65.8476 129.709 65.4985 129.785 65.1956 129.962C64.9011 130.138 64.6655 130.374 64.4889 130.668C64.3206 130.963 64.2365 131.278 64.2365 131.615V134H63.0754V128.775H64.1229ZM70.0214 134.126C69.4241 134.126 68.9109 134.008 68.4818 133.773C68.0527 133.529 67.7204 133.201 67.4848 132.788C67.2577 132.368 67.1441 131.888 67.1441 131.35C67.1441 130.837 67.2745 130.37 67.5353 129.949C67.7961 129.528 68.1453 129.192 68.5828 128.939C69.0203 128.687 69.5082 128.561 70.0467 128.561C70.7366 128.561 71.3087 128.763 71.763 129.167C72.2173 129.57 72.5244 130.126 72.6843 130.832L68.3808 132.347L68.1032 131.653L71.6368 130.365L71.3844 130.53C71.2834 130.252 71.1152 130.012 70.8796 129.81C70.644 129.6 70.3369 129.495 69.9583 129.495C69.6386 129.495 69.3526 129.575 69.1002 129.734C68.8478 129.886 68.6501 130.096 68.507 130.365C68.364 130.635 68.2925 130.942 68.2925 131.287C68.2925 131.648 68.3682 131.968 68.5197 132.246C68.6711 132.515 68.8772 132.73 69.138 132.889C69.4073 133.041 69.7101 133.117 70.0467 133.117C70.2738 133.117 70.4926 133.075 70.7029 132.99C70.9217 132.906 71.1236 132.797 71.3087 132.662L71.8513 133.533C71.5905 133.71 71.2961 133.853 70.9679 133.962C70.6482 134.072 70.3327 134.126 70.0214 134.126ZM75.6188 134.101C75.2486 134.101 74.8868 134.038 74.5335 133.912C74.1885 133.777 73.9025 133.579 73.6753 133.319L74.1675 132.637C74.3862 132.847 74.6092 133.007 74.8364 133.117C75.0719 133.218 75.3033 133.268 75.5305 133.268C75.6987 133.268 75.8544 133.247 75.9974 133.205C76.1404 133.163 76.254 133.096 76.3381 133.003C76.4307 132.902 76.477 132.767 76.477 132.599C76.477 132.414 76.4139 132.267 76.2877 132.157C76.1699 132.048 76.0142 131.96 75.8207 131.892C75.6356 131.825 75.4379 131.762 75.2276 131.703C74.7985 131.56 74.4704 131.362 74.2432 131.11C74.0161 130.858 73.9025 130.551 73.9025 130.189C73.9025 129.911 73.9698 129.655 74.1044 129.419C74.2474 129.175 74.4536 128.977 74.7228 128.826C75.0004 128.674 75.3412 128.599 75.745 128.599C76.1068 128.599 76.4307 128.645 76.7167 128.737C77.0028 128.822 77.272 128.965 77.5244 129.167L77.0575 129.899C76.906 129.739 76.7252 129.621 76.5148 129.545C76.3045 129.469 76.1152 129.427 75.9469 129.419C75.8039 129.411 75.6651 129.432 75.5305 129.482C75.4043 129.533 75.2991 129.604 75.215 129.697C75.1308 129.789 75.0888 129.899 75.0888 130.025C75.0888 130.201 75.1477 130.344 75.2654 130.454C75.3832 130.563 75.5347 130.651 75.7198 130.719C75.9133 130.778 76.1026 130.841 76.2877 130.908C76.5485 130.984 76.7798 131.085 76.9818 131.211C77.1837 131.337 77.3435 131.493 77.4613 131.678C77.5875 131.863 77.6506 132.094 77.6506 132.372C77.6506 132.683 77.5749 132.974 77.4235 133.243C77.2804 133.504 77.0575 133.714 76.7546 133.874C76.4601 134.025 76.0815 134.101 75.6188 134.101ZM79.7989 126.478H80.9725V128.801H82.4112V129.722H80.9725V134H79.7989V129.722H78.8398V128.801H79.7989V126.478ZM88.1127 124.876H89.3368V132.826H93.9684V134H88.1127V124.876ZM95.2186 131.337C95.2186 130.816 95.3406 130.344 95.5846 129.924C95.837 129.503 96.1819 129.171 96.6194 128.927C97.0569 128.683 97.5533 128.561 98.1086 128.561C98.6807 128.561 99.1813 128.683 99.6104 128.927C100.039 129.171 100.372 129.503 100.607 129.924C100.843 130.344 100.961 130.816 100.961 131.337C100.961 131.859 100.843 132.334 100.607 132.763C100.372 133.184 100.035 133.516 99.5978 133.76C99.1687 134.004 98.6681 134.126 98.096 134.126C97.5407 134.126 97.0443 134.013 96.6068 133.785C96.1777 133.55 95.837 133.226 95.5846 132.814C95.3406 132.393 95.2186 131.901 95.2186 131.337ZM96.3923 131.35C96.3923 131.686 96.468 131.993 96.6194 132.271C96.7709 132.54 96.9728 132.755 97.2252 132.915C97.486 133.075 97.7721 133.154 98.0834 133.154C98.4115 133.154 98.7017 133.075 98.9541 132.915C99.2149 132.755 99.4169 132.54 99.5599 132.271C99.7029 131.993 99.7744 131.686 99.7744 131.35C99.7744 131.013 99.7029 130.71 99.5599 130.441C99.4169 130.164 99.2149 129.945 98.9541 129.785C98.7017 129.617 98.4115 129.533 98.0834 129.533C97.7637 129.533 97.4734 129.617 97.2126 129.785C96.9602 129.953 96.7583 130.176 96.6068 130.454C96.4638 130.723 96.3923 131.022 96.3923 131.35ZM103.597 128.775L103.698 130.05L103.648 129.848C103.816 129.461 104.089 129.154 104.468 128.927C104.847 128.691 105.284 128.573 105.781 128.573C106.277 128.573 106.681 128.721 106.992 129.015C107.312 129.301 107.476 129.676 107.484 130.138V134H106.298V130.555C106.29 130.269 106.205 130.037 106.046 129.861C105.894 129.676 105.654 129.583 105.326 129.583C105.023 129.583 104.75 129.667 104.506 129.835C104.262 130.004 104.068 130.235 103.925 130.53C103.791 130.824 103.723 131.165 103.723 131.552V134H102.55V128.775H103.597ZM112.037 136.587C111.65 136.587 111.309 136.541 111.015 136.448C110.72 136.364 110.451 136.242 110.207 136.082C109.971 135.922 109.744 135.742 109.525 135.54L110.207 134.745C110.484 135.005 110.766 135.207 111.052 135.35C111.338 135.493 111.658 135.565 112.011 135.565C112.407 135.565 112.739 135.498 113.008 135.363C113.286 135.237 113.496 135.056 113.639 134.82C113.782 134.593 113.854 134.328 113.854 134.025L113.867 132.612L113.968 132.839C113.816 133.201 113.543 133.508 113.147 133.76C112.752 134.004 112.272 134.126 111.709 134.126C111.229 134.126 110.787 134.004 110.384 133.76C109.988 133.516 109.668 133.188 109.424 132.776C109.189 132.355 109.071 131.884 109.071 131.362C109.071 130.816 109.197 130.336 109.45 129.924C109.702 129.503 110.034 129.171 110.447 128.927C110.859 128.683 111.309 128.561 111.797 128.561C112.26 128.561 112.68 128.658 113.059 128.851C113.446 129.036 113.728 129.276 113.904 129.57L113.841 129.785L113.968 128.775H115.04V134.038C115.04 134.509 114.918 134.938 114.674 135.325C114.43 135.712 114.085 136.019 113.639 136.246C113.194 136.474 112.659 136.587 112.037 136.587ZM110.245 131.337C110.245 131.674 110.325 131.981 110.484 132.258C110.644 132.536 110.859 132.755 111.128 132.915C111.406 133.075 111.713 133.154 112.049 133.154C112.361 133.154 112.638 133.1 112.882 132.99C113.135 132.873 113.345 132.717 113.513 132.523C113.682 132.322 113.799 132.09 113.867 131.829V130.795C113.791 130.542 113.665 130.323 113.488 130.138C113.311 129.945 113.101 129.798 112.857 129.697C112.613 129.587 112.344 129.533 112.049 129.533C111.713 129.533 111.406 129.608 111.128 129.76C110.859 129.911 110.644 130.126 110.484 130.403C110.325 130.673 110.245 130.984 110.245 131.337ZM123.787 124.876C124.451 124.876 125.019 124.989 125.49 125.216C125.962 125.435 126.323 125.755 126.576 126.176C126.837 126.596 126.967 127.105 126.967 127.703C126.967 128.064 126.912 128.422 126.803 128.775C126.694 129.12 126.517 129.436 126.273 129.722C126.037 129.999 125.726 130.222 125.339 130.391C124.952 130.559 124.481 130.643 123.926 130.643H122.575V134H121.351V124.876H123.787ZM123.913 129.469C124.275 129.469 124.573 129.411 124.809 129.293C125.045 129.175 125.23 129.028 125.364 128.851C125.499 128.666 125.596 128.472 125.654 128.271C125.713 128.069 125.743 127.888 125.743 127.728C125.743 127.543 125.713 127.353 125.654 127.16C125.596 126.958 125.495 126.777 125.352 126.617C125.217 126.449 125.036 126.314 124.809 126.213C124.59 126.104 124.317 126.049 123.989 126.049H122.575V129.469H123.913ZM128.566 128.775H129.74V134H128.566V128.775ZM128.478 126.882C128.478 126.697 128.549 126.542 128.692 126.415C128.844 126.289 129.008 126.226 129.185 126.226C129.361 126.226 129.517 126.289 129.652 126.415C129.795 126.542 129.866 126.697 129.866 126.882C129.866 127.076 129.795 127.236 129.652 127.362C129.517 127.48 129.361 127.539 129.185 127.539C129.008 127.539 128.844 127.475 128.692 127.349C128.549 127.223 128.478 127.067 128.478 126.882ZM132.818 128.775L132.919 130.05L132.868 129.848C133.037 129.461 133.31 129.154 133.689 128.927C134.067 128.691 134.505 128.573 135.001 128.573C135.498 128.573 135.901 128.721 136.213 129.015C136.532 129.301 136.697 129.676 136.705 130.138V134H135.519V130.555C135.51 130.269 135.426 130.037 135.266 129.861C135.115 129.676 134.875 129.583 134.547 129.583C134.244 129.583 133.971 129.667 133.727 129.835C133.483 130.004 133.289 130.235 133.146 130.53C133.011 130.824 132.944 131.165 132.944 131.552V134H131.771V128.775H132.818Z" fill="#262626"/>
<path d="M57.8649 141.748H59.2377V147H58.4635V142.49H57.8649V141.748ZM62.5588 147.024C62.2342 147.024 61.9362 146.963 61.6649 146.84C61.3935 146.718 61.1594 146.542 60.9625 146.314C60.7709 146.079 60.622 145.797 60.5155 145.468C60.4091 145.138 60.3559 144.768 60.3559 144.358C60.3559 143.911 60.4065 143.523 60.5076 143.193C60.6087 142.858 60.755 142.578 60.9465 142.355C61.1434 142.131 61.3775 141.966 61.6489 141.86C61.9203 141.748 62.2236 141.692 62.5588 141.692C62.8834 141.692 63.1787 141.754 63.4447 141.876C63.7161 141.998 63.9476 142.177 64.1391 142.411C64.336 142.639 64.4876 142.919 64.5941 143.249C64.7058 143.573 64.7617 143.943 64.7617 144.358C64.7617 144.779 64.7058 145.154 64.5941 145.484C64.4876 145.813 64.336 146.093 64.1391 146.322C63.9476 146.55 63.7161 146.726 63.4447 146.848C63.1787 146.965 62.8834 147.024 62.5588 147.024ZM62.5508 146.282C62.8594 146.282 63.1175 146.202 63.325 146.042C63.5378 145.877 63.6975 145.648 63.8039 145.356C63.9103 145.063 63.9635 144.725 63.9635 144.342C63.9635 143.959 63.9103 143.627 63.8039 143.345C63.6975 143.057 63.5378 142.834 63.325 142.674C63.1175 142.514 62.8594 142.435 62.5508 142.435C62.2422 142.435 61.9841 142.517 61.7766 142.682C61.5691 142.842 61.4121 143.065 61.3057 143.352C61.2046 143.64 61.1541 143.975 61.1541 144.358C61.1541 144.736 61.2046 145.071 61.3057 145.364C61.4121 145.651 61.5691 145.877 61.7766 146.042C61.9841 146.202 62.2422 146.282 62.5508 146.282ZM67.5316 147.024C67.207 147.024 66.909 146.963 66.6377 146.84C66.3663 146.718 66.1322 146.542 65.9353 146.314C65.7437 146.079 65.5948 145.797 65.4883 145.468C65.3819 145.138 65.3287 144.768 65.3287 144.358C65.3287 143.911 65.3793 143.523 65.4804 143.193C65.5815 142.858 65.7278 142.578 65.9193 142.355C66.1162 142.131 66.3503 141.966 66.6217 141.86C66.8931 141.748 67.1964 141.692 67.5316 141.692C67.8562 141.692 68.1515 141.754 68.4175 141.876C68.6889 141.998 68.9204 142.177 69.1119 142.411C69.3088 142.639 69.4604 142.919 69.5669 143.249C69.6786 143.573 69.7345 143.943 69.7345 144.358C69.7345 144.779 69.6786 145.154 69.5669 145.484C69.4604 145.813 69.3088 146.093 69.1119 146.322C68.9204 146.55 68.6889 146.726 68.4175 146.848C68.1515 146.965 67.8562 147.024 67.5316 147.024ZM67.5236 146.282C67.8322 146.282 68.0903 146.202 68.2978 146.042C68.5106 145.877 68.6703 145.648 68.7767 145.356C68.8831 145.063 68.9363 144.725 68.9363 144.342C68.9363 143.959 68.8831 143.627 68.7767 143.345C68.6703 143.057 68.5106 142.834 68.2978 142.674C68.0903 142.514 67.8322 142.435 67.5236 142.435C67.215 142.435 66.9569 142.517 66.7494 142.682C66.5419 142.842 66.3849 143.065 66.2785 143.352C66.1774 143.64 66.1269 143.975 66.1269 144.358C66.1269 144.736 66.1774 145.071 66.2785 145.364C66.3849 145.651 66.5419 145.877 66.7494 146.042C66.9569 146.202 67.215 146.282 67.5236 146.282ZM72.5044 147.024C72.1798 147.024 71.8818 146.963 71.6105 146.84C71.3391 146.718 71.105 146.542 70.9081 146.314C70.7166 146.079 70.5676 145.797 70.4611 145.468C70.3547 145.138 70.3015 144.768 70.3015 144.358C70.3015 143.911 70.3521 143.523 70.4532 143.193C70.5543 142.858 70.7006 142.578 70.8921 142.355C71.089 142.131 71.3231 141.966 71.5945 141.86C71.8659 141.748 72.1692 141.692 72.5044 141.692C72.829 141.692 73.1243 141.754 73.3903 141.876C73.6617 141.998 73.8932 142.177 74.0847 142.411C74.2816 142.639 74.4332 142.919 74.5397 143.249C74.6514 143.573 74.7073 143.943 74.7073 144.358C74.7073 144.779 74.6514 145.154 74.5397 145.484C74.4332 145.813 74.2816 146.093 74.0847 146.322C73.8932 146.55 73.6617 146.726 73.3903 146.848C73.1243 146.965 72.829 147.024 72.5044 147.024ZM72.4964 146.282C72.805 146.282 73.0631 146.202 73.2706 146.042C73.4834 145.877 73.6431 145.648 73.7495 145.356C73.8559 145.063 73.9091 144.725 73.9091 144.342C73.9091 143.959 73.8559 143.627 73.7495 143.345C73.6431 143.057 73.4834 142.834 73.2706 142.674C73.0631 142.514 72.805 142.435 72.4964 142.435C72.1878 142.435 71.9297 142.517 71.7222 142.682C71.5147 142.842 71.3577 143.065 71.2513 143.352C71.1502 143.64 71.0997 143.975 71.0997 144.358C71.0997 144.736 71.1502 145.071 71.2513 145.364C71.3577 145.651 71.5147 145.877 71.7222 146.042C71.9297 146.202 72.1878 146.282 72.4964 146.282ZM79.404 144.925L80.1941 143.696H80.9444L79.6753 145.468L79.404 144.925ZM81.0721 147H80.1782L77.664 143.696H78.5819L81.0721 147ZM79.3241 145.771L78.4542 147H77.7039L78.965 145.276L79.3241 145.771ZM84.1709 147C84.5114 146.67 84.836 146.346 85.1446 146.026C85.4532 145.707 85.7299 145.398 85.9747 145.1C86.2247 144.802 86.4216 144.515 86.5653 144.238C86.709 143.956 86.7808 143.685 86.7808 143.424C86.7808 143.249 86.7515 143.1 86.693 142.977C86.6345 142.85 86.5573 142.746 86.4615 142.666C86.3711 142.586 86.2673 142.528 86.1503 142.49C86.0332 142.448 85.9135 142.427 85.7911 142.427C85.6155 142.427 85.4665 142.456 85.3441 142.514C85.2217 142.568 85.1206 142.639 85.0408 142.73C84.9663 142.82 84.9105 142.916 84.8732 143.017C84.8413 143.118 84.8253 143.219 84.8253 143.321C84.8253 143.496 84.8519 143.656 84.9052 143.799C84.9584 143.938 85.0355 144.06 85.1366 144.167L84.6577 144.59C84.5353 144.51 84.4289 144.398 84.3385 144.254C84.2533 144.111 84.1868 143.956 84.1389 143.791C84.0964 143.621 84.0751 143.47 84.0751 143.337C84.0751 143.049 84.1443 142.78 84.2826 142.53C84.4263 142.275 84.6338 142.07 84.9052 141.916C85.1818 141.762 85.5171 141.684 85.9108 141.684C86.246 141.684 86.5387 141.762 86.7888 141.916C87.0389 142.07 87.2331 142.275 87.3714 142.53C87.5098 142.78 87.5789 143.057 87.5789 143.36C87.5789 143.627 87.5257 143.887 87.4193 144.143C87.3129 144.398 87.1692 144.651 86.9883 144.901C86.8127 145.151 86.6158 145.398 86.3977 145.643C86.1848 145.883 85.972 146.125 85.7592 146.369L85.4239 146.258H87.7545V147H84.1709ZM88.5201 141.748H89.8929V147H89.1187V142.49H88.5201V141.748ZM93.214 147.024C92.8894 147.024 92.5914 146.963 92.3201 146.84C92.0487 146.718 91.8146 146.542 91.6177 146.314C91.4262 146.079 91.2772 145.797 91.1708 145.468C91.0643 145.138 91.0111 144.768 91.0111 144.358C91.0111 143.911 91.0617 143.523 91.1628 143.193C91.2639 142.858 91.4102 142.578 91.6017 142.355C91.7986 142.131 92.0327 141.966 92.3041 141.86C92.5755 141.748 92.8788 141.692 93.214 141.692C93.5386 141.692 93.8339 141.754 94.0999 141.876C94.3713 141.998 94.6028 142.177 94.7943 142.411C94.9912 142.639 95.1428 142.919 95.2493 143.249C95.361 143.573 95.4169 143.943 95.4169 144.358C95.4169 144.779 95.361 145.154 95.2493 145.484C95.1428 145.813 94.9912 146.093 94.7943 146.322C94.6028 146.55 94.3713 146.726 94.0999 146.848C93.8339 146.965 93.5386 147.024 93.214 147.024ZM93.206 146.282C93.5146 146.282 93.7727 146.202 93.9802 146.042C94.1931 145.877 94.3527 145.648 94.4591 145.356C94.5655 145.063 94.6187 144.725 94.6187 144.342C94.6187 143.959 94.5655 143.627 94.4591 143.345C94.3527 143.057 94.1931 142.834 93.9802 142.674C93.7727 142.514 93.5146 142.435 93.206 142.435C92.8974 142.435 92.6393 142.517 92.4318 142.682C92.2243 142.842 92.0673 143.065 91.9609 143.352C91.8598 143.64 91.8093 143.975 91.8093 144.358C91.8093 144.736 91.8598 145.071 91.9609 145.364C92.0673 145.651 92.2243 145.877 92.4318 146.042C92.6393 146.202 92.8974 146.282 93.206 146.282ZM98.1868 147.024C97.8622 147.024 97.5642 146.963 97.2929 146.84C97.0215 146.718 96.7874 146.542 96.5905 146.314C96.399 146.079 96.25 145.797 96.1436 145.468C96.0371 145.138 95.9839 144.768 95.9839 144.358C95.9839 143.911 96.0345 143.523 96.1356 143.193C96.2367 142.858 96.383 142.578 96.5746 142.355C96.7714 142.131 97.0055 141.966 97.2769 141.86C97.5483 141.748 97.8516 141.692 98.1868 141.692C98.5114 141.692 98.8067 141.754 99.0727 141.876C99.3441 141.998 99.5756 142.177 99.7671 142.411C99.964 142.639 100.116 142.919 100.222 143.249C100.334 143.573 100.39 143.943 100.39 144.358C100.39 144.779 100.334 145.154 100.222 145.484C100.116 145.813 99.964 146.093 99.7671 146.322C99.5756 146.55 99.3441 146.726 99.0727 146.848C98.8067 146.965 98.5114 147.024 98.1868 147.024ZM98.1788 146.282C98.4874 146.282 98.7455 146.202 98.953 146.042C99.1659 145.877 99.3255 145.648 99.4319 145.356C99.5383 145.063 99.5915 144.725 99.5915 144.342C99.5915 143.959 99.5383 143.627 99.4319 143.345C99.3255 143.057 99.1659 142.834 98.953 142.674C98.7455 142.514 98.4874 142.435 98.1788 142.435C97.8702 142.435 97.6121 142.517 97.4046 142.682C97.1971 142.842 97.0401 143.065 96.9337 143.352C96.8326 143.64 96.7821 143.975 96.7821 144.358C96.7821 144.736 96.8326 145.071 96.9337 145.364C97.0401 145.651 97.1971 145.877 97.4046 146.042C97.6121 146.202 97.8702 146.282 98.1788 146.282ZM105.789 147.08C105.539 147.08 105.297 147.021 105.062 146.904C104.834 146.787 104.655 146.63 104.528 146.433L104.576 146.202V148.588H103.841V143.648H104.48L104.584 144.494L104.504 144.262C104.663 144.06 104.866 143.893 105.11 143.76C105.355 143.627 105.629 143.56 105.932 143.56C106.241 143.56 106.518 143.634 106.762 143.783C107.013 143.932 107.209 144.14 107.353 144.406C107.497 144.672 107.569 144.983 107.569 145.34C107.569 145.696 107.491 146.005 107.337 146.266C107.183 146.526 106.97 146.729 106.699 146.872C106.433 147.011 106.129 147.08 105.789 147.08ZM105.645 146.489C105.858 146.489 106.052 146.441 106.228 146.346C106.409 146.244 106.552 146.109 106.659 145.938C106.765 145.763 106.818 145.566 106.818 145.348C106.818 145.124 106.768 144.927 106.667 144.757C106.566 144.582 106.43 144.443 106.26 144.342C106.095 144.241 105.908 144.191 105.701 144.191C105.509 144.191 105.336 144.228 105.182 144.302C105.028 144.377 104.9 144.481 104.799 144.614C104.698 144.741 104.626 144.89 104.584 145.061V145.611C104.61 145.782 104.674 145.933 104.775 146.066C104.876 146.199 105.001 146.303 105.15 146.377C105.305 146.452 105.469 146.489 105.645 146.489ZM109.74 144.925L110.53 143.696H111.28L110.011 145.468L109.74 144.925ZM111.408 147H110.514L108 143.696H108.918L111.408 147ZM109.66 145.771L108.79 147H108.04L109.301 145.276L109.66 145.771Z" fill="#262626"/>
<path d="M84.4999 54.9999C76.4919 54.9999 70 61.5009 70 69.5202C70 75.6718 73.8219 80.9305 79.2158 83.0462C79.0891 81.8973 78.9745 80.1305 79.2661 78.8763C79.5296 77.7431 80.9664 71.6588 80.9664 71.6588C80.9664 71.6588 80.5326 70.7889 80.5326 69.503C80.5326 67.4839 81.7013 65.9766 83.1564 65.9766C84.3934 65.9766 84.991 66.9066 84.991 68.0219C84.991 69.2678 84.1989 71.1304 83.7901 72.8565C83.4485 74.3018 84.5138 75.4804 85.9373 75.4804C88.5144 75.4804 90.4955 72.7592 90.4955 68.8312C90.4955 65.3545 88.0008 62.9238 84.4387 62.9238C80.313 62.9238 77.8913 66.0226 77.8913 69.2252C77.8913 70.4732 78.3714 71.8114 78.9705 72.5389C79.089 72.6826 79.1063 72.8086 79.071 72.9553C78.961 73.4139 78.7163 74.4002 78.6683 74.6021C78.6051 74.8679 78.4582 74.9243 78.1834 74.7962C76.3724 73.9521 75.2402 71.3006 75.2402 69.171C75.2402 64.5906 78.5635 60.3841 84.8209 60.3841C89.8509 60.3841 93.7598 63.9735 93.7598 68.7704C93.7598 73.7746 90.609 77.802 86.2357 77.802C84.7663 77.802 83.385 77.0376 82.9122 76.1347C82.9122 76.1347 82.1851 78.907 82.0089 79.5864C81.6815 80.8476 80.7978 82.4286 80.2067 83.393C81.5634 83.8137 83.0052 84.0405 84.4999 84.0405C92.5081 84.0405 99 77.5395 99 69.5202C99 61.5009 92.5081 54.9999 84.4999 54.9999Z" fill="#E60023"/>
</svg>
