<svg width="169" height="161" viewBox="0 0 169 161" fill="none" xmlns="http://www.w3.org/2000/svg">
<rect width="169" height="161" rx="9.36709" fill="#F5F5F5"/>
<rect x="45.75" y="32.75" width="78.5" height="74.5" rx="4.25" stroke="#1877F2" stroke-width="1.5"/>
<path d="M39.3326 124.876H44.7466V126.049H40.5568V128.965H44.2292V130.126H40.5568V134H39.3326V124.876ZM47.9667 134.126C47.4787 134.126 47.0328 134.021 46.6289 133.811C46.2335 133.6 45.918 133.293 45.6824 132.889C45.4553 132.477 45.3417 131.977 45.3417 131.388C45.3417 130.807 45.4637 130.307 45.7077 129.886C45.9517 129.457 46.2756 129.129 46.6794 128.902C47.0917 128.674 47.5418 128.561 48.0298 128.561C48.5177 128.561 48.93 128.674 49.2665 128.902C49.6031 129.12 49.8597 129.381 50.0363 129.684L49.9606 129.886L50.0742 128.775H51.1595V134H49.9859V132.637L50.1121 132.94C50.0784 133.024 50.0027 133.133 49.8849 133.268C49.7755 133.394 49.6241 133.525 49.4306 133.659C49.2455 133.794 49.0309 133.907 48.787 134C48.543 134.084 48.2695 134.126 47.9667 134.126ZM48.2822 133.154C48.5766 133.154 48.8416 133.1 49.0772 132.99C49.3128 132.881 49.5063 132.73 49.6577 132.536C49.8176 132.334 49.927 132.094 49.9859 131.817V130.795C49.9186 130.542 49.8008 130.323 49.6325 130.138C49.4642 129.945 49.2623 129.798 49.0267 129.697C48.7912 129.587 48.5304 129.533 48.2443 129.533C47.933 129.533 47.647 129.608 47.3861 129.76C47.1253 129.911 46.915 130.121 46.7551 130.391C46.6037 130.66 46.528 130.975 46.528 131.337C46.528 131.674 46.6079 131.981 46.7678 132.258C46.9276 132.536 47.1422 132.755 47.4114 132.915C47.6806 133.075 47.9709 133.154 48.2822 133.154ZM57.4309 133.52C57.1953 133.706 56.9134 133.853 56.5853 133.962C56.2572 134.072 55.9291 134.126 55.601 134.126C55.0289 134.126 54.5283 134.013 54.0992 133.785C53.6701 133.558 53.3336 133.243 53.0896 132.839C52.854 132.427 52.7362 131.943 52.7362 131.388C52.7362 130.832 52.8624 130.349 53.1148 129.936C53.3756 129.524 53.7122 129.209 54.1244 128.99C54.5451 128.763 54.9952 128.649 55.4748 128.649C55.8954 128.649 56.2698 128.708 56.5979 128.826C56.9345 128.944 57.2205 129.103 57.4561 129.305L56.8756 130.063C56.7241 129.945 56.539 129.84 56.3203 129.747C56.1016 129.655 55.8534 129.608 55.5757 129.608C55.2728 129.608 54.991 129.688 54.7302 129.848C54.4778 129.999 54.2759 130.21 54.1244 130.479C53.9814 130.748 53.9099 131.051 53.9099 131.388C53.9099 131.707 53.9856 132.006 54.137 132.284C54.2885 132.553 54.4988 132.767 54.768 132.927C55.0373 133.079 55.3444 133.154 55.6893 133.154C55.9165 133.154 56.1226 133.121 56.3077 133.054C56.5012 132.986 56.6737 132.894 56.8251 132.776L57.4309 133.52ZM61.369 134.126C60.7716 134.126 60.2584 134.008 59.8293 133.773C59.4003 133.529 59.0679 133.201 58.8324 132.788C58.6052 132.368 58.4916 131.888 58.4916 131.35C58.4916 130.837 58.622 130.37 58.8828 129.949C59.1437 129.528 59.4928 129.192 59.9303 128.939C60.3678 128.687 60.8558 128.561 61.3942 128.561C62.0841 128.561 62.6562 128.763 63.1105 129.167C63.5649 129.57 63.8719 130.126 64.0318 130.832L59.7284 132.347L59.4507 131.653L62.9843 130.365L62.7319 130.53C62.631 130.252 62.4627 130.012 62.2271 129.81C61.9916 129.6 61.6845 129.495 61.3059 129.495C60.9862 129.495 60.7001 129.575 60.4477 129.734C60.1953 129.886 59.9976 130.096 59.8546 130.365C59.7116 130.635 59.64 130.942 59.64 131.287C59.64 131.648 59.7158 131.968 59.8672 132.246C60.0186 132.515 60.2248 132.73 60.4856 132.889C60.7548 133.041 61.0577 133.117 61.3942 133.117C61.6214 133.117 61.8401 133.075 62.0505 132.99C62.2692 132.906 62.4711 132.797 62.6562 132.662L63.1989 133.533C62.9381 133.71 62.6436 133.853 62.3155 133.962C61.9958 134.072 61.6803 134.126 61.369 134.126ZM68.6827 134.126C68.2031 134.126 67.7782 134.021 67.408 133.811C67.0463 133.6 66.756 133.335 66.5373 133.016L66.6761 132.65V134H65.5024V124.232H66.6635V129.974L66.6256 129.533C66.8359 129.246 67.1346 129.015 67.5216 128.838C67.917 128.653 68.3545 128.561 68.8341 128.561C69.3052 128.561 69.7343 128.674 70.1213 128.902C70.5083 129.129 70.8154 129.448 71.0426 129.861C71.2782 130.264 71.396 130.748 71.396 131.312C71.396 131.901 71.2698 132.406 71.0174 132.826C70.7734 133.247 70.4452 133.571 70.033 133.798C69.6207 134.017 69.1706 134.126 68.6827 134.126ZM68.4429 133.129C68.7794 133.129 69.0823 133.049 69.3515 132.889C69.6207 132.73 69.8311 132.515 69.9825 132.246C70.134 131.968 70.2097 131.653 70.2097 131.299C70.2097 130.963 70.1297 130.66 69.9699 130.391C69.8185 130.113 69.6081 129.894 69.3389 129.734C69.0781 129.575 68.7794 129.495 68.4429 129.495C68.1568 129.495 67.8918 129.549 67.6478 129.659C67.4038 129.768 67.1977 129.92 67.0294 130.113C66.8612 130.298 66.7434 130.517 66.6761 130.769V131.817C66.7434 132.069 66.857 132.296 67.0168 132.498C67.1767 132.692 67.3786 132.847 67.6226 132.965C67.8666 133.075 68.14 133.129 68.4429 133.129ZM72.5289 131.337C72.5289 130.816 72.6509 130.344 72.8949 129.924C73.1473 129.503 73.4922 129.171 73.9297 128.927C74.3672 128.683 74.8636 128.561 75.4189 128.561C75.991 128.561 76.4916 128.683 76.9206 128.927C77.3497 129.171 77.6821 129.503 77.9176 129.924C78.1532 130.344 78.271 130.816 78.271 131.337C78.271 131.859 78.1532 132.334 77.9176 132.763C77.6821 133.184 77.3455 133.516 76.908 133.76C76.4789 134.004 75.9784 134.126 75.4063 134.126C74.851 134.126 74.3546 134.013 73.9171 133.785C73.488 133.55 73.1473 133.226 72.8949 132.814C72.6509 132.393 72.5289 131.901 72.5289 131.337ZM73.7026 131.35C73.7026 131.686 73.7783 131.993 73.9297 132.271C74.0812 132.54 74.2831 132.755 74.5355 132.915C74.7963 133.075 75.0823 133.154 75.3936 133.154C75.7217 133.154 76.012 133.075 76.2644 132.915C76.5252 132.755 76.7271 132.54 76.8702 132.271C77.0132 131.993 77.0847 131.686 77.0847 131.35C77.0847 131.013 77.0132 130.71 76.8702 130.441C76.7271 130.164 76.5252 129.945 76.2644 129.785C76.012 129.617 75.7217 129.533 75.3936 129.533C75.0739 129.533 74.7837 129.617 74.5229 129.785C74.2705 129.953 74.0685 130.176 73.9171 130.454C73.7741 130.723 73.7026 131.022 73.7026 131.35ZM79.4058 131.337C79.4058 130.816 79.5278 130.344 79.7718 129.924C80.0242 129.503 80.3691 129.171 80.8066 128.927C81.2441 128.683 81.7405 128.561 82.2958 128.561C82.8679 128.561 83.3685 128.683 83.7976 128.927C84.2266 129.171 84.559 129.503 84.7945 129.924C85.0301 130.344 85.1479 130.816 85.1479 131.337C85.1479 131.859 85.0301 132.334 84.7945 132.763C84.559 133.184 84.2224 133.516 83.7849 133.76C83.3559 134.004 82.8553 134.126 82.2832 134.126C81.7279 134.126 81.2315 134.013 80.794 133.785C80.3649 133.55 80.0242 133.226 79.7718 132.814C79.5278 132.393 79.4058 131.901 79.4058 131.337ZM80.5795 131.35C80.5795 131.686 80.6552 131.993 80.8066 132.271C80.9581 132.54 81.16 132.755 81.4124 132.915C81.6732 133.075 81.9592 133.154 82.2705 133.154C82.5987 133.154 82.8889 133.075 83.1413 132.915C83.4021 132.755 83.604 132.54 83.7471 132.271C83.8901 131.993 83.9616 131.686 83.9616 131.35C83.9616 131.013 83.8901 130.71 83.7471 130.441C83.604 130.164 83.4021 129.945 83.1413 129.785C82.8889 129.617 82.5987 129.533 82.2705 129.533C81.9508 129.533 81.6606 129.617 81.3998 129.785C81.1474 129.953 80.9454 130.176 80.794 130.454C80.651 130.723 80.5795 131.022 80.5795 131.35ZM86.737 134V124.232H87.9107V134H86.737ZM89.1727 130.53L91.5705 134H90.1949L88.3902 131.186L89.1727 130.53ZM87.5447 132.334L87.4311 131.211L90.5987 128.662L91.3181 129.28L87.5447 132.334ZM99.7413 124.876C100.406 124.876 100.974 124.989 101.445 125.216C101.916 125.435 102.278 125.755 102.53 126.176C102.791 126.596 102.922 127.105 102.922 127.703C102.922 128.064 102.867 128.422 102.757 128.775C102.648 129.12 102.471 129.436 102.227 129.722C101.992 129.999 101.681 130.222 101.294 130.391C100.907 130.559 100.435 130.643 99.8801 130.643H98.5298V134H97.3057V124.876H99.7413ZM99.8675 129.469C100.229 129.469 100.528 129.411 100.764 129.293C100.999 129.175 101.184 129.028 101.319 128.851C101.453 128.666 101.55 128.472 101.609 128.271C101.668 128.069 101.697 127.888 101.697 127.728C101.697 127.543 101.668 127.353 101.609 127.16C101.55 126.958 101.449 126.777 101.306 126.617C101.172 126.449 100.991 126.314 100.764 126.213C100.545 126.104 100.271 126.049 99.9432 126.049H98.5298V129.469H99.8675ZM105.568 128.775L105.682 130.29L105.619 130.088C105.753 129.768 105.947 129.499 106.199 129.28C106.46 129.053 106.729 128.88 107.007 128.763C107.293 128.637 107.541 128.573 107.752 128.573L107.688 129.734C107.293 129.709 106.944 129.785 106.641 129.962C106.347 130.138 106.111 130.374 105.934 130.668C105.766 130.963 105.682 131.278 105.682 131.615V134H104.521V128.775H105.568ZM108.59 131.337C108.59 130.816 108.711 130.344 108.955 129.924C109.208 129.503 109.553 129.171 109.99 128.927C110.428 128.683 110.924 128.561 111.479 128.561C112.052 128.561 112.552 128.683 112.981 128.927C113.41 129.171 113.743 129.503 113.978 129.924C114.214 130.344 114.332 130.816 114.332 131.337C114.332 131.859 114.214 132.334 113.978 132.763C113.743 133.184 113.406 133.516 112.969 133.76C112.54 134.004 112.039 134.126 111.467 134.126C110.912 134.126 110.415 134.013 109.978 133.785C109.549 133.55 109.208 133.226 108.955 132.814C108.711 132.393 108.59 131.901 108.59 131.337ZM109.763 131.35C109.763 131.686 109.839 131.993 109.99 132.271C110.142 132.54 110.344 132.755 110.596 132.915C110.857 133.075 111.143 133.154 111.454 133.154C111.782 133.154 112.073 133.075 112.325 132.915C112.586 132.755 112.788 132.54 112.931 132.271C113.074 131.993 113.145 131.686 113.145 131.35C113.145 131.013 113.074 130.71 112.931 130.441C112.788 130.164 112.586 129.945 112.325 129.785C112.073 129.617 111.782 129.533 111.454 129.533C111.135 129.533 110.844 129.617 110.583 129.785C110.331 129.953 110.129 130.176 109.978 130.454C109.835 130.723 109.763 131.022 109.763 131.35ZM116.35 134V129.823H115.454V128.775H116.35V126.567C116.35 125.81 116.518 125.229 116.855 124.825C117.2 124.421 117.704 124.22 118.369 124.22C118.546 124.22 118.739 124.245 118.95 124.295C119.168 124.346 119.358 124.43 119.517 124.548L119.025 125.393C118.95 125.317 118.865 125.267 118.773 125.242C118.689 125.208 118.596 125.191 118.495 125.191C118.184 125.191 117.944 125.296 117.776 125.507C117.608 125.717 117.523 126.075 117.523 126.579V128.775H119.013V129.823H117.523V134H116.35ZM120.022 128.775H121.196V134H120.022V128.775ZM119.934 126.882C119.934 126.697 120.01 126.546 120.161 126.428C120.312 126.302 120.477 126.239 120.653 126.239C120.821 126.239 120.977 126.302 121.12 126.428C121.263 126.546 121.335 126.701 121.335 126.895C121.335 127.088 121.263 127.248 121.12 127.375C120.977 127.492 120.821 127.551 120.653 127.551C120.477 127.551 120.312 127.488 120.161 127.362C120.01 127.236 119.934 127.076 119.934 126.882ZM123.241 124.232H124.415V134H123.241V124.232ZM128.869 134.126C128.271 134.126 127.758 134.008 127.329 133.773C126.9 133.529 126.568 133.201 126.332 132.788C126.105 132.368 125.991 131.888 125.991 131.35C125.991 130.837 126.122 130.37 126.382 129.949C126.643 129.528 126.992 129.192 127.43 128.939C127.867 128.687 128.355 128.561 128.894 128.561C129.584 128.561 130.156 128.763 130.61 129.167C131.065 129.57 131.372 130.126 131.531 130.832L127.228 132.347L126.95 131.653L130.484 130.365L130.232 130.53C130.131 130.252 129.962 130.012 129.727 129.81C129.491 129.6 129.184 129.495 128.806 129.495C128.486 129.495 128.2 129.575 127.947 129.734C127.695 129.886 127.497 130.096 127.354 130.365C127.211 130.635 127.14 130.942 127.14 131.287C127.14 131.648 127.215 131.968 127.367 132.246C127.518 132.515 127.724 132.73 127.985 132.889C128.254 133.041 128.557 133.117 128.894 133.117C129.121 133.117 129.34 133.075 129.55 132.99C129.769 132.906 129.971 132.797 130.156 132.662L130.699 133.533C130.438 133.71 130.143 133.853 129.815 133.962C129.495 134.072 129.18 134.126 128.869 134.126Z" fill="#262626"/>
<path d="M57.8482 141.748H59.221V147H58.4468V142.49H57.8482V141.748ZM62.542 147.024C62.2175 147.024 61.9195 146.963 61.6481 146.84C61.3767 146.718 61.1426 146.542 60.9458 146.314C60.7542 146.079 60.6052 145.797 60.4988 145.468C60.3924 145.138 60.3392 144.768 60.3392 144.358C60.3392 143.911 60.3897 143.523 60.4908 143.193C60.5919 142.858 60.7382 142.578 60.9298 142.355C61.1267 142.131 61.3608 141.966 61.6322 141.86C61.9035 141.748 62.2068 141.692 62.542 141.692C62.8666 141.692 63.1619 141.754 63.428 141.876C63.6993 141.998 63.9308 142.177 64.1224 142.411C64.3192 142.639 64.4709 142.919 64.5773 143.249C64.689 143.573 64.7449 143.943 64.7449 144.358C64.7449 144.779 64.689 145.154 64.5773 145.484C64.4709 145.813 64.3192 146.093 64.1224 146.322C63.9308 146.55 63.6993 146.726 63.428 146.848C63.1619 146.965 62.8666 147.024 62.542 147.024ZM62.5341 146.282C62.8427 146.282 63.1007 146.202 63.3083 146.042C63.5211 145.877 63.6807 145.648 63.7871 145.356C63.8936 145.063 63.9468 144.725 63.9468 144.342C63.9468 143.959 63.8936 143.627 63.7871 143.345C63.6807 143.057 63.5211 142.834 63.3083 142.674C63.1007 142.514 62.8427 142.435 62.5341 142.435C62.2254 142.435 61.9674 142.517 61.7599 142.682C61.5523 142.842 61.3954 143.065 61.289 143.352C61.1879 143.64 61.1373 143.975 61.1373 144.358C61.1373 144.736 61.1879 145.071 61.289 145.364C61.3954 145.651 61.5523 145.877 61.7599 146.042C61.9674 146.202 62.2254 146.282 62.5341 146.282ZM65.2481 145.348C65.2481 145.076 65.2987 144.842 65.3998 144.645C65.5062 144.449 65.6365 144.284 65.7909 144.151C65.9505 144.012 66.1128 143.909 66.2777 143.839C66.1181 143.738 65.9851 143.613 65.8786 143.464C65.7775 143.315 65.727 143.124 65.727 142.89C65.727 142.655 65.7855 142.448 65.9026 142.267C66.025 142.086 66.1899 141.945 66.3974 141.844C66.605 141.738 66.8417 141.684 67.1078 141.684C67.3685 141.684 67.6026 141.738 67.8102 141.844C68.0177 141.945 68.1826 142.083 68.305 142.259C68.4274 142.435 68.4886 142.634 68.4886 142.858C68.4886 143.108 68.4354 143.307 68.3289 143.456C68.2278 143.605 68.0975 143.733 67.9379 143.839C68.1028 143.914 68.2651 144.02 68.4247 144.159C68.5843 144.292 68.7147 144.457 68.8158 144.653C68.9222 144.85 68.9754 145.082 68.9754 145.348C68.9754 145.651 68.8903 145.933 68.72 146.194C68.5551 146.455 68.3316 146.665 68.0496 146.824C67.7729 146.984 67.4563 147.064 67.0998 147.064C66.7433 147.064 66.4267 146.984 66.15 146.824C65.8733 146.665 65.6525 146.455 65.4876 146.194C65.3279 145.933 65.2481 145.651 65.2481 145.348ZM66.0383 145.308C66.0383 145.51 66.0862 145.694 66.1819 145.859C66.2777 146.024 66.4054 146.157 66.565 146.258C66.7247 146.359 66.9029 146.409 67.0998 146.409C67.302 146.409 67.4856 146.359 67.6505 146.258C67.8208 146.157 67.9538 146.024 68.0496 145.859C68.1507 145.694 68.2012 145.513 68.2012 145.316C68.2012 145.114 68.1534 144.933 68.0576 144.773C67.9618 144.608 67.8314 144.475 67.6665 144.374C67.5069 144.273 67.3286 144.222 67.1317 144.222C66.9349 144.217 66.7539 144.265 66.589 144.366C66.424 144.462 66.291 144.592 66.1899 144.757C66.0888 144.922 66.0383 145.106 66.0383 145.308ZM66.4773 142.985C66.4773 143.15 66.5411 143.291 66.6688 143.408C66.8018 143.52 66.9535 143.576 67.1237 143.576C67.294 143.576 67.4403 143.52 67.5627 143.408C67.6904 143.291 67.7543 143.15 67.7543 142.985C67.7543 142.794 67.6904 142.637 67.5627 142.514C67.4403 142.392 67.294 142.331 67.1237 142.331C66.9482 142.331 66.7965 142.392 66.6688 142.514C66.5411 142.637 66.4773 142.794 66.4773 142.985ZM71.6926 147.024C71.368 147.024 71.0701 146.963 70.7987 146.84C70.5273 146.718 70.2932 146.542 70.0963 146.314C69.9048 146.079 69.7558 145.797 69.6494 145.468C69.543 145.138 69.4897 144.768 69.4897 144.358C69.4897 143.911 69.5403 143.523 69.6414 143.193C69.7425 142.858 69.8888 142.578 70.0804 142.355C70.2772 142.131 70.5114 141.966 70.7827 141.86C71.0541 141.748 71.3574 141.692 71.6926 141.692C72.0172 141.692 72.3125 141.754 72.5786 141.876C72.8499 141.998 73.0814 142.177 73.2729 142.411C73.4698 142.639 73.6215 142.919 73.7279 143.249C73.8396 143.573 73.8955 143.943 73.8955 144.358C73.8955 144.779 73.8396 145.154 73.7279 145.484C73.6215 145.813 73.4698 146.093 73.2729 146.322C73.0814 146.55 72.8499 146.726 72.5786 146.848C72.3125 146.965 72.0172 147.024 71.6926 147.024ZM71.6846 146.282C71.9932 146.282 72.2513 146.202 72.4588 146.042C72.6717 145.877 72.8313 145.648 72.9377 145.356C73.0441 145.063 73.0973 144.725 73.0973 144.342C73.0973 143.959 73.0441 143.627 72.9377 143.345C72.8313 143.057 72.6717 142.834 72.4588 142.674C72.2513 142.514 71.9932 142.435 71.6846 142.435C71.376 142.435 71.118 142.517 70.9104 142.682C70.7029 142.842 70.5459 143.065 70.4395 143.352C70.3384 143.64 70.2879 143.975 70.2879 144.358C70.2879 144.736 70.3384 145.071 70.4395 145.364C70.5459 145.651 70.7029 145.877 70.9104 146.042C71.118 146.202 71.376 146.282 71.6846 146.282ZM78.5922 144.925L79.3823 143.696H80.1326L78.8635 145.468L78.5922 144.925ZM80.2603 147H79.3664L76.8522 143.696H77.7701L80.2603 147ZM78.5124 145.771L77.6424 147H76.8921L78.1532 145.276L78.5124 145.771ZM83.3591 141.748H84.7319V147H83.9577V142.49H83.3591V141.748ZM88.053 147.024C87.7284 147.024 87.4304 146.963 87.1591 146.84C86.8877 146.718 86.6536 146.542 86.4567 146.314C86.2651 146.079 86.1161 145.797 86.0097 145.468C85.9033 145.138 85.8501 144.768 85.8501 144.358C85.8501 143.911 85.9006 143.523 86.0017 143.193C86.1028 142.858 86.2492 142.578 86.4407 142.355C86.6376 142.131 86.8717 141.966 87.1431 141.86C87.4145 141.748 87.7178 141.692 88.053 141.692C88.3776 141.692 88.6729 141.754 88.9389 141.876C89.2103 141.998 89.4417 142.177 89.6333 142.411C89.8302 142.639 89.9818 142.919 90.0882 143.249C90.2 143.573 90.2558 143.943 90.2558 144.358C90.2558 144.779 90.2 145.154 90.0882 145.484C89.9818 145.813 89.8302 146.093 89.6333 146.322C89.4417 146.55 89.2103 146.726 88.9389 146.848C88.6729 146.965 88.3776 147.024 88.053 147.024ZM88.045 146.282C88.3536 146.282 88.6117 146.202 88.8192 146.042C89.032 145.877 89.1917 145.648 89.2981 145.356C89.4045 145.063 89.4577 144.725 89.4577 144.342C89.4577 143.959 89.4045 143.627 89.2981 143.345C89.1917 143.057 89.032 142.834 88.8192 142.674C88.6117 142.514 88.3536 142.435 88.045 142.435C87.7364 142.435 87.4783 142.517 87.2708 142.682C87.0633 142.842 86.9063 143.065 86.7999 143.352C86.6988 143.64 86.6482 143.975 86.6482 144.358C86.6482 144.736 86.6988 145.071 86.7999 145.364C86.9063 145.651 87.0633 145.877 87.2708 146.042C87.4783 146.202 87.7364 146.282 88.045 146.282ZM90.759 145.348C90.759 145.076 90.8096 144.842 90.9107 144.645C91.0171 144.449 91.1475 144.284 91.3018 144.151C91.4614 144.012 91.6237 143.909 91.7887 143.839C91.629 143.738 91.496 143.613 91.3896 143.464C91.2885 143.315 91.2379 143.124 91.2379 142.89C91.2379 142.655 91.2965 142.448 91.4135 142.267C91.5359 142.086 91.7009 141.945 91.9084 141.844C92.1159 141.738 92.3527 141.684 92.6187 141.684C92.8794 141.684 93.1136 141.738 93.3211 141.844C93.5286 141.945 93.6936 142.083 93.8159 142.259C93.9383 142.435 93.9995 142.634 93.9995 142.858C93.9995 143.108 93.9463 143.307 93.8399 143.456C93.7388 143.605 93.6084 143.733 93.4488 143.839C93.6137 143.914 93.776 144.02 93.9357 144.159C94.0953 144.292 94.2256 144.457 94.3267 144.653C94.4332 144.85 94.4864 145.082 94.4864 145.348C94.4864 145.651 94.4012 145.933 94.231 146.194C94.066 146.455 93.8425 146.665 93.5605 146.824C93.2838 146.984 92.9672 147.064 92.6107 147.064C92.2542 147.064 91.9376 146.984 91.6609 146.824C91.3843 146.665 91.1634 146.455 90.9985 146.194C90.8389 145.933 90.759 145.651 90.759 145.348ZM91.5492 145.308C91.5492 145.51 91.5971 145.694 91.6929 145.859C91.7887 146.024 91.9164 146.157 92.076 146.258C92.2356 146.359 92.4139 146.409 92.6107 146.409C92.8129 146.409 92.9965 146.359 93.1615 146.258C93.3317 146.157 93.4648 146.024 93.5605 145.859C93.6616 145.694 93.7122 145.513 93.7122 145.316C93.7122 145.114 93.6643 144.933 93.5685 144.773C93.4727 144.608 93.3424 144.475 93.1774 144.374C93.0178 144.273 92.8395 144.222 92.6427 144.222C92.4458 144.217 92.2649 144.265 92.0999 144.366C91.935 144.462 91.802 144.592 91.7009 144.757C91.5998 144.922 91.5492 145.106 91.5492 145.308ZM91.9882 142.985C91.9882 143.15 92.052 143.291 92.1797 143.408C92.3128 143.52 92.4644 143.576 92.6347 143.576C92.805 143.576 92.9513 143.52 93.0737 143.408C93.2014 143.291 93.2652 143.15 93.2652 142.985C93.2652 142.794 93.2014 142.637 93.0737 142.514C92.9513 142.392 92.805 142.331 92.6347 142.331C92.4591 142.331 92.3074 142.392 92.1797 142.514C92.052 142.637 91.9882 142.794 91.9882 142.985ZM97.2035 147.024C96.879 147.024 96.581 146.963 96.3096 146.84C96.0383 146.718 95.8041 146.542 95.6073 146.314C95.4157 146.079 95.2667 145.797 95.1603 145.468C95.0539 145.138 95.0007 144.768 95.0007 144.358C95.0007 143.911 95.0512 143.523 95.1523 143.193C95.2534 142.858 95.3997 142.578 95.5913 142.355C95.7882 142.131 96.0223 141.966 96.2937 141.86C96.565 141.748 96.8683 141.692 97.2035 141.692C97.5281 141.692 97.8234 141.754 98.0895 141.876C98.3609 141.998 98.5923 142.177 98.7839 142.411C98.9807 142.639 99.1324 142.919 99.2388 143.249C99.3505 143.573 99.4064 143.943 99.4064 144.358C99.4064 144.779 99.3505 145.154 99.2388 145.484C99.1324 145.813 98.9807 146.093 98.7839 146.322C98.5923 146.55 98.3609 146.726 98.0895 146.848C97.8234 146.965 97.5281 147.024 97.2035 147.024ZM97.1956 146.282C97.5042 146.282 97.7622 146.202 97.9698 146.042C98.1826 145.877 98.3422 145.648 98.4486 145.356C98.5551 145.063 98.6083 144.725 98.6083 144.342C98.6083 143.959 98.5551 143.627 98.4486 143.345C98.3422 143.057 98.1826 142.834 97.9698 142.674C97.7622 142.514 97.5042 142.435 97.1956 142.435C96.8869 142.435 96.6289 142.517 96.4214 142.682C96.2138 142.842 96.0569 143.065 95.9505 143.352C95.8494 143.64 95.7988 143.975 95.7988 144.358C95.7988 144.736 95.8494 145.071 95.9505 145.364C96.0569 145.651 96.2138 145.877 96.4214 146.042C96.6289 146.202 96.8869 146.282 97.1956 146.282ZM104.805 147.08C104.555 147.08 104.313 147.021 104.079 146.904C103.85 146.787 103.672 146.63 103.544 146.433L103.592 146.202V148.588H102.858V143.648H103.497L103.6 144.494L103.52 144.262C103.68 144.06 103.882 143.893 104.127 143.76C104.372 143.627 104.646 143.56 104.949 143.56C105.258 143.56 105.534 143.634 105.779 143.783C106.029 143.932 106.226 144.14 106.37 144.406C106.514 144.672 106.585 144.983 106.585 145.34C106.585 145.696 106.508 146.005 106.354 146.266C106.2 146.526 105.987 146.729 105.715 146.872C105.449 147.011 105.146 147.08 104.805 147.08ZM104.662 146.489C104.875 146.489 105.069 146.441 105.244 146.346C105.425 146.244 105.569 146.109 105.675 145.938C105.782 145.763 105.835 145.566 105.835 145.348C105.835 145.124 105.785 144.927 105.683 144.757C105.582 144.582 105.447 144.443 105.276 144.342C105.111 144.241 104.925 144.191 104.718 144.191C104.526 144.191 104.353 144.228 104.199 144.302C104.045 144.377 103.917 144.481 103.816 144.614C103.715 144.741 103.643 144.89 103.6 145.061V145.611C103.627 145.782 103.691 145.933 103.792 146.066C103.893 146.199 104.018 146.303 104.167 146.377C104.321 146.452 104.486 146.489 104.662 146.489ZM108.756 144.925L109.547 143.696H110.297L109.028 145.468L108.756 144.925ZM110.424 147H109.531L107.016 143.696H107.934L110.424 147ZM108.677 145.771L107.807 147H107.056L108.317 145.276L108.677 145.771Z" fill="#262626"/>
<path d="M64.8507 74.5953H63.1551V70.3584H62V68.979H63.1551V67.9974C63.1551 66.8342 63.6659 66 65.357 66C65.7147 66 66.2762 66.0723 66.2762 66.0723V67.3532H65.6864C65.0855 67.3532 64.8508 67.5364 64.8508 68.0429V68.979H66.2537L66.1287 70.3584H64.8508L64.8507 74.5953ZM68.7414 68.8687C68.7167 68.8687 68.6913 68.8696 68.6662 68.8703C67.0939 68.8703 66.3745 70.0557 66.3745 71.7385C66.3745 73.8584 67.3076 74.7068 68.6784 74.7068C69.4628 74.7068 69.9781 74.3759 70.2913 73.7584V74.5959H71.904V68.9796H70.2913V69.8433C70.0355 69.2876 69.5058 68.8753 68.7414 68.8687ZM69.1515 70.1959C69.8119 70.1959 70.2083 70.6576 70.2083 71.4429L70.2098 72.245C70.2098 72.7743 69.8824 73.3936 69.1515 73.3936C68.0279 73.3936 68.0579 72.1774 68.0579 71.7724C68.0579 70.4099 68.6566 70.1959 69.1515 70.1959ZM72.5554 71.788C72.5554 71.1056 72.5228 68.8724 75.4255 68.8724C76.5907 68.8724 77.0772 69.2437 77.0772 69.2437L76.6862 70.4595C76.6862 70.4595 76.2002 70.1913 75.5671 70.1913C74.7562 70.1913 74.2387 70.6625 74.2387 71.4916L74.2396 72.0861C74.2396 72.8827 74.7389 73.4145 75.5688 73.4145C76.1456 73.4145 76.6772 73.1438 76.6772 73.1438L77.0673 74.3341C77.0673 74.3341 76.6224 74.7078 75.4336 74.7078C72.6698 74.7078 72.5554 72.7042 72.5554 71.788H72.5554ZM86.5336 68.8703C88.106 68.8703 88.8367 70.0557 88.8367 71.7385C88.8367 73.8584 87.9035 74.7068 86.5327 74.7068C85.7484 74.7068 85.1686 74.376 84.8554 73.7584V74.5959L83.2629 74.5953V66.1708L84.9537 66.023V69.7672C85.1978 69.1121 85.9997 68.8703 86.5336 68.8703ZM86.0596 70.1959C85.3992 70.1959 84.9537 70.6576 84.9537 71.4429L84.9522 72.245C84.9512 72.7743 85.2607 73.3936 86.0596 73.3936C87.1833 73.3936 87.1532 72.1774 87.1532 71.7724C87.1532 70.4099 86.5546 70.1959 86.0596 70.1959ZM80.0109 68.8749C78.2276 68.8749 77.2861 69.8495 77.2861 71.5815V71.9032C77.2861 74.1512 78.6082 74.7299 80.1845 74.7299C81.7166 74.7299 82.4101 74.3004 82.4101 74.3004L82.0937 73.1565C82.0937 73.1565 81.278 73.5044 80.3872 73.5044C79.4638 73.5044 79.0667 73.2685 78.9649 72.379H82.5453V71.4613C82.5453 69.5826 81.4886 68.8749 80.0109 68.8749L80.0109 68.8749ZM80.0539 70.0203C80.6712 70.0203 81.0712 70.3997 81.0493 71.2797H78.968C79.0041 70.3536 79.4355 70.0203 80.0539 70.0203ZM92.2081 68.8672C90.3768 68.8672 89.4126 69.9016 89.4126 71.7554C89.4126 74.2989 91.0746 74.7083 92.2112 74.7083C93.8751 74.7083 94.9821 73.8104 94.9821 71.7785C94.9821 69.6637 93.7374 68.8672 92.2081 68.8672ZM92.1851 70.2005C92.9904 70.2005 93.3095 70.8046 93.3095 71.4922V72.0834C93.3095 72.9164 92.863 73.3982 92.182 73.3982C91.5452 73.3982 91.0976 72.9475 91.0976 72.0834V71.4922C91.0976 70.5706 91.6302 70.2005 92.1851 70.2005ZM98.3505 68.8672C96.5192 68.8672 95.5551 69.9016 95.5551 71.7554C95.5551 74.2989 97.217 74.7083 98.3536 74.7083C100.017 74.7083 101.125 73.8104 101.125 71.7785C101.125 69.6637 99.8798 68.8672 98.3505 68.8672ZM98.3275 70.2005C99.1328 70.2005 99.4518 70.8046 99.4518 71.4922V72.0834C99.4518 72.9164 99.0053 73.3982 98.3245 73.3982C97.6876 73.3982 97.24 72.9475 97.24 72.0834V71.4922C97.24 70.5706 97.7726 70.2005 98.3275 70.2005ZM101.763 74.5953V66.1708L103.459 66.023V71.6696L105.142 68.979H106.932L105.177 71.7657L107 74.5953H105.204L103.459 71.8478V74.5953H101.763Z" fill="#1877F2"/>
</svg>
