<svg width="169" height="161" viewBox="0 0 169 161" fill="none" xmlns="http://www.w3.org/2000/svg">
<rect width="169" height="161" rx="9.36709" fill="#F5F5F5"/>
<rect x="38.75" y="38.75" width="92.5" height="52.5" rx="4.25" stroke="#1877F2" stroke-width="1.5"/>
<path d="M45.7975 124.876H51.2115V126.049H47.0217V128.965H50.6941V130.126H47.0217V134H45.7975V124.876ZM54.4316 134.126C53.9436 134.126 53.4977 134.021 53.0939 133.811C52.6984 133.6 52.3829 133.293 52.1474 132.889C51.9202 132.477 51.8066 131.977 51.8066 131.388C51.8066 130.807 51.9286 130.307 52.1726 129.886C52.4166 129.457 52.7405 129.129 53.1443 128.902C53.5566 128.674 54.0067 128.561 54.4947 128.561C54.9826 128.561 55.3949 128.674 55.7314 128.902C56.068 129.12 56.3246 129.381 56.5013 129.684L56.4255 129.886L56.5391 128.775H57.6244V134H56.4508V132.637L56.577 132.94C56.5433 133.024 56.4676 133.133 56.3498 133.268C56.2404 133.394 56.089 133.525 55.8955 133.659C55.7104 133.794 55.4959 133.907 55.2519 134C55.0079 134.084 54.7345 134.126 54.4316 134.126ZM54.7471 133.154C55.0415 133.154 55.3066 133.1 55.5421 132.99C55.7777 132.881 55.9712 132.73 56.1227 132.536C56.2825 132.334 56.3919 132.094 56.4508 131.817V130.795C56.3835 130.542 56.2657 130.323 56.0974 130.138C55.9291 129.945 55.7272 129.798 55.4917 129.697C55.2561 129.587 54.9953 129.533 54.7092 129.533C54.3979 129.533 54.1119 129.608 53.8511 129.76C53.5902 129.911 53.3799 130.121 53.2201 130.391C53.0686 130.66 52.9929 130.975 52.9929 131.337C52.9929 131.674 53.0728 131.981 53.2327 132.258C53.3925 132.536 53.6071 132.755 53.8763 132.915C54.1455 133.075 54.4358 133.154 54.7471 133.154ZM63.8958 133.52C63.6602 133.706 63.3784 133.853 63.0502 133.962C62.7221 134.072 62.394 134.126 62.0659 134.126C61.4938 134.126 60.9932 134.013 60.5641 133.785C60.135 133.558 59.7985 133.243 59.5545 132.839C59.3189 132.427 59.2011 131.943 59.2011 131.388C59.2011 130.832 59.3273 130.349 59.5797 129.936C59.8406 129.524 60.1771 129.209 60.5893 128.99C61.01 128.763 61.4601 128.649 61.9397 128.649C62.3603 128.649 62.7347 128.708 63.0629 128.826C63.3994 128.944 63.6854 129.103 63.921 129.305L63.3405 130.063C63.1891 129.945 63.004 129.84 62.7852 129.747C62.5665 129.655 62.3183 129.608 62.0406 129.608C61.7378 129.608 61.4559 129.688 61.1951 129.848C60.9427 129.999 60.7408 130.21 60.5893 130.479C60.4463 130.748 60.3748 131.051 60.3748 131.388C60.3748 131.707 60.4505 132.006 60.602 132.284C60.7534 132.553 60.9637 132.767 61.233 132.927C61.5022 133.079 61.8093 133.154 62.1542 133.154C62.3814 133.154 62.5875 133.121 62.7726 133.054C62.9661 132.986 63.1386 132.894 63.29 132.776L63.8958 133.52ZM67.8339 134.126C67.2366 134.126 66.7233 134.008 66.2943 133.773C65.8652 133.529 65.5329 133.201 65.2973 132.788C65.0701 132.368 64.9565 131.888 64.9565 131.35C64.9565 130.837 65.0869 130.37 65.3478 129.949C65.6086 129.528 65.9577 129.192 66.3952 128.939C66.8327 128.687 67.3207 128.561 67.8591 128.561C68.549 128.561 69.1211 128.763 69.5755 129.167C70.0298 129.57 70.3369 130.126 70.4967 130.832L66.1933 132.347L65.9157 131.653L69.4493 130.365L69.1969 130.53C69.0959 130.252 68.9276 130.012 68.6921 129.81C68.4565 129.6 68.1494 129.495 67.7708 129.495C67.4511 129.495 67.165 129.575 66.9126 129.734C66.6602 129.886 66.4625 130.096 66.3195 130.365C66.1765 130.635 66.105 130.942 66.105 131.287C66.105 131.648 66.1807 131.968 66.3321 132.246C66.4836 132.515 66.6897 132.73 66.9505 132.889C67.2197 133.041 67.5226 133.117 67.8591 133.117C68.0863 133.117 68.305 133.075 68.5154 132.99C68.7341 132.906 68.936 132.797 69.1211 132.662L69.6638 133.533C69.403 133.71 69.1085 133.853 68.7804 133.962C68.4607 134.072 68.1452 134.126 67.8339 134.126ZM75.1476 134.126C74.668 134.126 74.2431 134.021 73.873 133.811C73.5112 133.6 73.2209 133.335 73.0022 133.016L73.141 132.65V134H71.9673V124.232H73.1284V129.974L73.0905 129.533C73.3008 129.246 73.5995 129.015 73.9865 128.838C74.382 128.653 74.8195 128.561 75.299 128.561C75.7702 128.561 76.1992 128.674 76.5863 128.902C76.9733 129.129 77.2803 129.448 77.5075 129.861C77.7431 130.264 77.8609 130.748 77.8609 131.312C77.8609 131.901 77.7347 132.406 77.4823 132.826C77.2383 133.247 76.9102 133.571 76.4979 133.798C76.0857 134.017 75.6355 134.126 75.1476 134.126ZM74.9078 133.129C75.2443 133.129 75.5472 133.049 75.8164 132.889C76.0857 132.73 76.296 132.515 76.4474 132.246C76.5989 131.968 76.6746 131.653 76.6746 131.299C76.6746 130.963 76.5947 130.66 76.4348 130.391C76.2834 130.113 76.073 129.894 75.8038 129.734C75.543 129.575 75.2443 129.495 74.9078 129.495C74.6217 129.495 74.3567 129.549 74.1127 129.659C73.8687 129.768 73.6626 129.92 73.4944 130.113C73.3261 130.298 73.2083 130.517 73.141 130.769V131.817C73.2083 132.069 73.3219 132.296 73.4817 132.498C73.6416 132.692 73.8435 132.847 74.0875 132.965C74.3315 133.075 74.6049 133.129 74.9078 133.129ZM78.9938 131.337C78.9938 130.816 79.1158 130.344 79.3598 129.924C79.6122 129.503 79.9571 129.171 80.3946 128.927C80.8321 128.683 81.3285 128.561 81.8838 128.561C82.4559 128.561 82.9565 128.683 83.3856 128.927C83.8146 129.171 84.147 129.503 84.3825 129.924C84.6181 130.344 84.7359 130.816 84.7359 131.337C84.7359 131.859 84.6181 132.334 84.3825 132.763C84.147 133.184 83.8104 133.516 83.3729 133.76C82.9439 134.004 82.4433 134.126 81.8712 134.126C81.3159 134.126 80.8195 134.013 80.382 133.785C79.9529 133.55 79.6122 133.226 79.3598 132.814C79.1158 132.393 78.9938 131.901 78.9938 131.337ZM80.1675 131.35C80.1675 131.686 80.2432 131.993 80.3946 132.271C80.5461 132.54 80.748 132.755 81.0004 132.915C81.2612 133.075 81.5473 133.154 81.8585 133.154C82.1867 133.154 82.4769 133.075 82.7293 132.915C82.9901 132.755 83.1921 132.54 83.3351 132.271C83.4781 131.993 83.5496 131.686 83.5496 131.35C83.5496 131.013 83.4781 130.71 83.3351 130.441C83.1921 130.164 82.9901 129.945 82.7293 129.785C82.4769 129.617 82.1867 129.533 81.8585 129.533C81.5388 129.533 81.2486 129.617 80.9878 129.785C80.7354 129.953 80.5334 130.176 80.382 130.454C80.239 130.723 80.1675 131.022 80.1675 131.35ZM85.8707 131.337C85.8707 130.816 85.9927 130.344 86.2367 129.924C86.4891 129.503 86.834 129.171 87.2715 128.927C87.709 128.683 88.2054 128.561 88.7607 128.561C89.3328 128.561 89.8334 128.683 90.2625 128.927C90.6915 129.171 91.0239 129.503 91.2594 129.924C91.495 130.344 91.6128 130.816 91.6128 131.337C91.6128 131.859 91.495 132.334 91.2594 132.763C91.0239 133.184 90.6873 133.516 90.2498 133.76C89.8208 134.004 89.3202 134.126 88.7481 134.126C88.1928 134.126 87.6964 134.013 87.2589 133.785C86.8298 133.55 86.4891 133.226 86.2367 132.814C85.9927 132.393 85.8707 131.901 85.8707 131.337ZM87.0444 131.35C87.0444 131.686 87.1201 131.993 87.2715 132.271C87.423 132.54 87.6249 132.755 87.8773 132.915C88.1381 133.075 88.4242 133.154 88.7354 133.154C89.0636 133.154 89.3538 133.075 89.6062 132.915C89.867 132.755 90.069 132.54 90.212 132.271C90.355 131.993 90.4265 131.686 90.4265 131.35C90.4265 131.013 90.355 130.71 90.212 130.441C90.069 130.164 89.867 129.945 89.6062 129.785C89.3538 129.617 89.0636 129.533 88.7354 129.533C88.4157 129.533 88.1255 129.617 87.8647 129.785C87.6123 129.953 87.4104 130.176 87.2589 130.454C87.1159 130.723 87.0444 131.022 87.0444 131.35ZM93.2019 134V124.232H94.3756V134H93.2019ZM95.6376 130.53L98.0354 134H96.6598L94.8552 131.186L95.6376 130.53ZM94.0096 132.334L93.896 131.211L97.0637 128.662L97.783 129.28L94.0096 132.334ZM106.206 124.876C106.871 124.876 107.439 124.989 107.91 125.216C108.381 125.435 108.743 125.755 108.995 126.176C109.256 126.596 109.386 127.105 109.386 127.703C109.386 128.064 109.332 128.422 109.222 128.775C109.113 129.12 108.936 129.436 108.692 129.722C108.457 129.999 108.146 130.222 107.758 130.391C107.371 130.559 106.9 130.643 106.345 130.643H104.995V134H103.771V124.876H106.206ZM106.332 129.469C106.694 129.469 106.993 129.411 107.228 129.293C107.464 129.175 107.649 129.028 107.784 128.851C107.918 128.666 108.015 128.472 108.074 128.271C108.133 128.069 108.162 127.888 108.162 127.728C108.162 127.543 108.133 127.353 108.074 127.16C108.015 126.958 107.914 126.777 107.771 126.617C107.637 126.449 107.456 126.314 107.228 126.213C107.01 126.104 106.736 126.049 106.408 126.049H104.995V129.469H106.332ZM110.531 131.337C110.531 130.816 110.653 130.344 110.897 129.924C111.15 129.503 111.495 129.171 111.932 128.927C112.37 128.683 112.866 128.561 113.421 128.561C113.994 128.561 114.494 128.683 114.923 128.927C115.352 129.171 115.685 129.503 115.92 129.924C116.156 130.344 116.274 130.816 116.274 131.337C116.274 131.859 116.156 132.334 115.92 132.763C115.685 133.184 115.348 133.516 114.911 133.76C114.482 134.004 113.981 134.126 113.409 134.126C112.854 134.126 112.357 134.013 111.92 133.785C111.491 133.55 111.15 133.226 110.897 132.814C110.653 132.393 110.531 131.901 110.531 131.337ZM111.705 131.35C111.705 131.686 111.781 131.993 111.932 132.271C112.084 132.54 112.286 132.755 112.538 132.915C112.799 133.075 113.085 133.154 113.396 133.154C113.724 133.154 114.015 133.075 114.267 132.915C114.528 132.755 114.73 132.54 114.873 132.271C115.016 131.993 115.087 131.686 115.087 131.35C115.087 131.013 115.016 130.71 114.873 130.441C114.73 130.164 114.528 129.945 114.267 129.785C114.015 129.617 113.724 129.533 113.396 129.533C113.076 129.533 112.786 129.617 112.525 129.785C112.273 129.953 112.071 130.176 111.92 130.454C111.777 130.723 111.705 131.022 111.705 131.35ZM119.327 134.101C118.956 134.101 118.595 134.038 118.241 133.912C117.896 133.777 117.61 133.579 117.383 133.319L117.875 132.637C118.094 132.847 118.317 133.007 118.544 133.117C118.78 133.218 119.011 133.268 119.238 133.268C119.407 133.268 119.562 133.247 119.705 133.205C119.848 133.163 119.962 133.096 120.046 133.003C120.138 132.902 120.185 132.767 120.185 132.599C120.185 132.414 120.122 132.267 119.995 132.157C119.878 132.048 119.722 131.96 119.529 131.892C119.343 131.825 119.146 131.762 118.935 131.703C118.506 131.56 118.178 131.362 117.951 131.11C117.724 130.858 117.61 130.551 117.61 130.189C117.61 129.911 117.678 129.655 117.812 129.419C117.955 129.175 118.161 128.977 118.431 128.826C118.708 128.674 119.049 128.599 119.453 128.599C119.815 128.599 120.138 128.645 120.425 128.737C120.711 128.822 120.98 128.965 121.232 129.167L120.765 129.899C120.614 129.739 120.433 129.621 120.223 129.545C120.012 129.469 119.823 129.427 119.655 129.419C119.512 129.411 119.373 129.432 119.238 129.482C119.112 129.533 119.007 129.604 118.923 129.697C118.839 129.789 118.797 129.899 118.797 130.025C118.797 130.201 118.855 130.344 118.973 130.454C119.091 130.563 119.242 130.651 119.428 130.719C119.621 130.778 119.81 130.841 119.995 130.908C120.256 130.984 120.488 131.085 120.69 131.211C120.891 131.337 121.051 131.493 121.169 131.678C121.295 131.863 121.358 132.094 121.358 132.372C121.358 132.683 121.283 132.974 121.131 133.243C120.988 133.504 120.765 133.714 120.462 133.874C120.168 134.025 119.789 134.101 119.327 134.101ZM123.507 126.478H124.68V128.801H126.119V129.722H124.68V134H123.507V129.722H122.548V128.801H123.507V126.478Z" fill="#262626"/>
<path d="M59.8875 141.748H61.2603V147H60.4861V142.49H59.8875V141.748ZM62.5142 147C62.8548 146.67 63.1794 146.346 63.488 146.026C63.7966 145.707 64.0733 145.398 64.318 145.1C64.5681 144.802 64.765 144.515 64.9087 144.238C65.0523 143.956 65.1242 143.685 65.1242 143.424C65.1242 143.249 65.0949 143.1 65.0364 142.977C64.9778 142.85 64.9007 142.746 64.8049 142.666C64.7144 142.586 64.6107 142.528 64.4936 142.49C64.3766 142.448 64.2568 142.427 64.1345 142.427C63.9589 142.427 63.8099 142.456 63.6875 142.514C63.5651 142.568 63.464 142.639 63.3842 142.73C63.3097 142.82 63.2538 142.916 63.2166 143.017C63.1847 143.118 63.1687 143.219 63.1687 143.321C63.1687 143.496 63.1953 143.656 63.2485 143.799C63.3017 143.938 63.3789 144.06 63.48 144.167L63.0011 144.59C62.8787 144.51 62.7723 144.398 62.6818 144.254C62.5967 144.111 62.5302 143.956 62.4823 143.791C62.4397 143.621 62.4185 143.47 62.4185 143.337C62.4185 143.049 62.4876 142.78 62.626 142.53C62.7696 142.275 62.9772 142.07 63.2485 141.916C63.5252 141.762 63.8604 141.684 64.2542 141.684C64.5894 141.684 64.8821 141.762 65.1321 141.916C65.3822 142.07 65.5764 142.275 65.7148 142.53C65.8531 142.78 65.9223 143.057 65.9223 143.36C65.9223 143.627 65.8691 143.887 65.7627 144.143C65.6563 144.398 65.5126 144.651 65.3317 144.901C65.1561 145.151 64.9592 145.398 64.7411 145.643C64.5282 145.883 64.3154 146.125 64.1025 146.369L63.7673 146.258H66.0979V147H62.5142ZM68.9307 147.024C68.6061 147.024 68.3081 146.963 68.0368 146.84C67.7654 146.718 67.5313 146.542 67.3344 146.314C67.1428 146.079 66.9939 145.797 66.8874 145.468C66.781 145.138 66.7278 144.768 66.7278 144.358C66.7278 143.911 66.7784 143.523 66.8794 143.193C66.9805 142.858 67.1269 142.578 67.3184 142.355C67.5153 142.131 67.7494 141.966 68.0208 141.86C68.2922 141.748 68.5955 141.692 68.9307 141.692C69.2553 141.692 69.5506 141.754 69.8166 141.876C70.088 141.998 70.3194 142.177 70.511 142.411C70.7079 142.639 70.8595 142.919 70.9659 143.249C71.0777 143.573 71.1335 143.943 71.1335 144.358C71.1335 144.779 71.0777 145.154 70.9659 145.484C70.8595 145.813 70.7079 146.093 70.511 146.322C70.3194 146.55 70.088 146.726 69.8166 146.848C69.5506 146.965 69.2553 147.024 68.9307 147.024ZM68.9227 146.282C69.2313 146.282 69.4894 146.202 69.6969 146.042C69.9097 145.877 70.0694 145.648 70.1758 145.356C70.2822 145.063 70.3354 144.725 70.3354 144.342C70.3354 143.959 70.2822 143.627 70.1758 143.345C70.0694 143.057 69.9097 142.834 69.6969 142.674C69.4894 142.514 69.2313 142.435 68.9227 142.435C68.6141 142.435 68.356 142.517 68.1485 142.682C67.941 142.842 67.784 143.065 67.6776 143.352C67.5765 143.64 67.5259 143.975 67.5259 144.358C67.5259 144.736 67.5765 145.071 67.6776 145.364C67.784 145.651 67.941 145.877 68.1485 146.042C68.356 146.202 68.6141 146.282 68.9227 146.282ZM73.9035 147.024C73.5789 147.024 73.2809 146.963 73.0096 146.84C72.7382 146.718 72.5041 146.542 72.3072 146.314C72.1156 146.079 71.9667 145.797 71.8602 145.468C71.7538 145.138 71.7006 144.768 71.7006 144.358C71.7006 143.911 71.7512 143.523 71.8523 143.193C71.9533 142.858 72.0997 142.578 72.2912 142.355C72.4881 142.131 72.7222 141.966 72.9936 141.86C73.265 141.748 73.5683 141.692 73.9035 141.692C74.2281 141.692 74.5234 141.754 74.7894 141.876C75.0608 141.998 75.2922 142.177 75.4838 142.411C75.6807 142.639 75.8323 142.919 75.9387 143.249C76.0505 143.573 76.1063 143.943 76.1063 144.358C76.1063 144.779 76.0505 145.154 75.9387 145.484C75.8323 145.813 75.6807 146.093 75.4838 146.322C75.2922 146.55 75.0608 146.726 74.7894 146.848C74.5234 146.965 74.2281 147.024 73.9035 147.024ZM73.8955 146.282C74.2041 146.282 74.4622 146.202 74.6697 146.042C74.8825 145.877 75.0422 145.648 75.1486 145.356C75.255 145.063 75.3082 144.725 75.3082 144.342C75.3082 143.959 75.255 143.627 75.1486 143.345C75.0422 143.057 74.8825 142.834 74.6697 142.674C74.4622 142.514 74.2041 142.435 73.8955 142.435C73.5869 142.435 73.3288 142.517 73.1213 142.682C72.9138 142.842 72.7568 143.065 72.6504 143.352C72.5493 143.64 72.4987 143.975 72.4987 144.358C72.4987 144.736 72.5493 145.071 72.6504 145.364C72.7568 145.651 72.9138 145.877 73.1213 146.042C73.3288 146.202 73.5869 146.282 73.8955 146.282ZM80.803 144.925L81.5932 143.696H82.3435L81.0744 145.468L80.803 144.925ZM82.4712 147H81.5772L79.0631 143.696H79.981L82.4712 147ZM80.7232 145.771L79.8533 147H79.103L80.3641 145.276L80.7232 145.771ZM87.3338 147.064C86.9827 147.064 86.6634 146.981 86.3761 146.816C86.0941 146.646 85.8679 146.407 85.6977 146.098C85.5327 145.784 85.4502 145.414 85.4502 144.989C85.4502 144.643 85.5167 144.316 85.6498 144.007C85.7881 143.693 85.9717 143.4 86.2005 143.129C86.4293 142.852 86.6873 142.597 86.9747 142.363C87.2673 142.123 87.5653 141.905 87.8686 141.708L88.3794 142.267C87.9484 142.48 87.5866 142.722 87.2939 142.993C87.0013 143.259 86.7751 143.531 86.6155 143.807C86.4559 144.084 86.3601 144.345 86.3282 144.59L86.1366 144.566C86.2803 144.268 86.4692 144.039 86.7033 143.879C86.9374 143.72 87.2327 143.64 87.5892 143.64C87.8606 143.64 88.116 143.712 88.3555 143.855C88.5949 143.999 88.7891 144.196 88.9381 144.446C89.0924 144.696 89.1696 144.983 89.1696 145.308C89.1696 145.664 89.0818 145.976 88.9062 146.242C88.7359 146.502 88.5098 146.705 88.2278 146.848C87.9511 146.992 87.6531 147.064 87.3338 147.064ZM87.3019 146.369C87.4988 146.369 87.677 146.327 87.8367 146.242C88.0016 146.151 88.132 146.026 88.2278 145.867C88.3235 145.707 88.3714 145.523 88.3714 145.316C88.3714 145.108 88.3235 144.927 88.2278 144.773C88.132 144.619 88.0016 144.499 87.8367 144.414C87.677 144.329 87.4988 144.286 87.3019 144.286C87.105 144.286 86.9268 144.329 86.7672 144.414C86.6075 144.494 86.4798 144.606 86.3841 144.749C86.2883 144.888 86.2404 145.042 86.2404 145.212V145.348C86.2404 145.529 86.2856 145.699 86.3761 145.859C86.4718 146.013 86.5996 146.138 86.7592 146.234C86.9241 146.324 87.105 146.369 87.3019 146.369ZM92.9841 141.748L91.5793 144.007L91.1164 143.791C91.1856 143.754 91.2627 143.728 91.3479 143.712C91.433 143.696 91.5181 143.688 91.6033 143.688C91.8002 143.677 91.9917 143.698 92.1779 143.752C92.3642 143.805 92.5318 143.893 92.6808 144.015C92.8298 144.137 92.9468 144.3 93.032 144.502C93.1224 144.704 93.1676 144.954 93.1676 145.252C93.1676 145.625 93.0825 145.946 92.9122 146.218C92.742 146.489 92.5158 146.699 92.2338 146.848C91.9571 146.992 91.6485 147.064 91.308 147.064C91.0526 147.064 90.7972 147.013 90.5417 146.912C90.2917 146.806 90.0841 146.667 89.9192 146.497L90.3103 145.859C90.4114 145.976 90.5497 146.082 90.7253 146.178C90.9062 146.274 91.0925 146.322 91.284 146.322C91.4862 146.322 91.6671 146.276 91.8268 146.186C91.9917 146.095 92.1221 145.968 92.2178 145.803C92.3189 145.633 92.3695 145.436 92.3695 145.212C92.3695 144.904 92.279 144.661 92.0981 144.486C91.9225 144.31 91.6804 144.222 91.3718 144.222C91.2175 144.222 91.0871 144.236 90.9807 144.262C90.8743 144.284 90.7785 144.31 90.6934 144.342L90.6695 144.31L91.9066 142.387L92.146 142.49H90.2225V141.748H92.9841ZM96.1642 147.024C95.8396 147.024 95.5416 146.963 95.2702 146.84C94.9989 146.718 94.7648 146.542 94.5679 146.314C94.3763 146.079 94.2273 145.797 94.1209 145.468C94.0145 145.138 93.9613 144.768 93.9613 144.358C93.9613 143.911 94.0118 143.523 94.1129 143.193C94.214 142.858 94.3604 142.578 94.5519 142.355C94.7488 142.131 94.9829 141.966 95.2543 141.86C95.5256 141.748 95.8289 141.692 96.1642 141.692C96.4887 141.692 96.7841 141.754 97.0501 141.876C97.3215 141.998 97.5529 142.177 97.7445 142.411C97.9414 142.639 98.093 142.919 98.1994 143.249C98.3112 143.573 98.367 143.943 98.367 144.358C98.367 144.779 98.3112 145.154 98.1994 145.484C98.093 145.813 97.9414 146.093 97.7445 146.322C97.5529 146.55 97.3215 146.726 97.0501 146.848C96.7841 146.965 96.4887 147.024 96.1642 147.024ZM96.1562 146.282C96.4648 146.282 96.7229 146.202 96.9304 146.042C97.1432 145.877 97.3028 145.648 97.4093 145.356C97.5157 145.063 97.5689 144.725 97.5689 144.342C97.5689 143.959 97.5157 143.627 97.4093 143.345C97.3028 143.057 97.1432 142.834 96.9304 142.674C96.7229 142.514 96.4648 142.435 96.1562 142.435C95.8476 142.435 95.5895 142.517 95.382 142.682C95.1745 142.842 95.0175 143.065 94.9111 143.352C94.81 143.64 94.7594 143.975 94.7594 144.358C94.7594 144.736 94.81 145.071 94.9111 145.364C95.0175 145.651 95.1745 145.877 95.382 146.042C95.5895 146.202 95.8476 146.282 96.1562 146.282ZM103.766 147.08C103.516 147.08 103.274 147.021 103.04 146.904C102.811 146.787 102.633 146.63 102.505 146.433L102.553 146.202V148.588H101.819V143.648H102.457L102.561 144.494L102.481 144.262C102.641 144.06 102.843 143.893 103.088 143.76C103.332 143.627 103.606 143.56 103.91 143.56C104.218 143.56 104.495 143.634 104.74 143.783C104.99 143.932 105.187 144.14 105.33 144.406C105.474 144.672 105.546 144.983 105.546 145.34C105.546 145.696 105.469 146.005 105.314 146.266C105.16 146.526 104.947 146.729 104.676 146.872C104.41 147.011 104.107 147.08 103.766 147.08ZM103.622 146.489C103.835 146.489 104.029 146.441 104.205 146.346C104.386 146.244 104.53 146.109 104.636 145.938C104.742 145.763 104.796 145.566 104.796 145.348C104.796 145.124 104.745 144.927 104.644 144.757C104.543 144.582 104.407 144.443 104.237 144.342C104.072 144.241 103.886 144.191 103.678 144.191C103.487 144.191 103.314 144.228 103.16 144.302C103.005 144.377 102.877 144.481 102.776 144.614C102.675 144.741 102.603 144.89 102.561 145.061V145.611C102.588 145.782 102.651 145.933 102.752 146.066C102.854 146.199 102.979 146.303 103.128 146.377C103.282 146.452 103.447 146.489 103.622 146.489ZM107.717 144.925L108.507 143.696H109.257L107.988 145.468L107.717 144.925ZM109.385 147H108.491L105.977 143.696H106.895L109.385 147ZM107.637 145.771L106.767 147H106.017L107.278 145.276L107.637 145.771Z" fill="#262626"/>
<path d="M64.8507 69.5953H63.1551V65.3584H62V63.979H63.1551V62.9974C63.1551 61.8342 63.6659 61 65.357 61C65.7147 61 66.2762 61.0723 66.2762 61.0723V62.3532H65.6864C65.0855 62.3532 64.8508 62.5364 64.8508 63.0429V63.979H66.2537L66.1287 65.3584H64.8508L64.8507 69.5953ZM68.7414 63.8687C68.7167 63.8687 68.6913 63.8696 68.6662 63.8703C67.0939 63.8703 66.3745 65.0557 66.3745 66.7385C66.3745 68.8584 67.3076 69.7068 68.6784 69.7068C69.4628 69.7068 69.9781 69.3759 70.2913 68.7584V69.5959H71.904V63.9796H70.2913V64.8433C70.0355 64.2876 69.5058 63.8753 68.7414 63.8687ZM69.1515 65.1959C69.8119 65.1959 70.2083 65.6576 70.2083 66.4429L70.2098 67.245C70.2098 67.7743 69.8824 68.3936 69.1515 68.3936C68.0279 68.3936 68.0579 67.1774 68.0579 66.7724C68.0579 65.4099 68.6566 65.1959 69.1515 65.1959ZM72.5554 66.788C72.5554 66.1056 72.5228 63.8724 75.4255 63.8724C76.5907 63.8724 77.0772 64.2437 77.0772 64.2437L76.6862 65.4595C76.6862 65.4595 76.2002 65.1913 75.5671 65.1913C74.7562 65.1913 74.2387 65.6625 74.2387 66.4916L74.2396 67.0861C74.2396 67.8827 74.7389 68.4145 75.5688 68.4145C76.1456 68.4145 76.6772 68.1438 76.6772 68.1438L77.0673 69.3341C77.0673 69.3341 76.6224 69.7078 75.4336 69.7078C72.6698 69.7078 72.5554 67.7042 72.5554 66.788H72.5554ZM86.5336 63.8703C88.106 63.8703 88.8367 65.0557 88.8367 66.7385C88.8367 68.8584 87.9035 69.7068 86.5327 69.7068C85.7484 69.7068 85.1686 69.376 84.8554 68.7584V69.5959L83.2629 69.5953V61.1708L84.9537 61.023V64.7672C85.1978 64.1121 85.9997 63.8703 86.5336 63.8703ZM86.0596 65.1959C85.3992 65.1959 84.9537 65.6576 84.9537 66.4429L84.9522 67.245C84.9512 67.7743 85.2607 68.3936 86.0596 68.3936C87.1833 68.3936 87.1532 67.1774 87.1532 66.7724C87.1532 65.4099 86.5546 65.1959 86.0596 65.1959ZM80.0109 63.8749C78.2276 63.8749 77.2861 64.8495 77.2861 66.5815V66.9032C77.2861 69.1512 78.6082 69.7299 80.1845 69.7299C81.7166 69.7299 82.4101 69.3004 82.4101 69.3004L82.0937 68.1565C82.0937 68.1565 81.278 68.5044 80.3872 68.5044C79.4638 68.5044 79.0667 68.2685 78.9649 67.379H82.5453V66.4613C82.5453 64.5826 81.4886 63.8749 80.0109 63.8749L80.0109 63.8749ZM80.0539 65.0203C80.6712 65.0203 81.0712 65.3997 81.0493 66.2797H78.968C79.0041 65.3536 79.4355 65.0203 80.0539 65.0203ZM92.2081 63.8672C90.3768 63.8672 89.4126 64.9016 89.4126 66.7554C89.4126 69.2989 91.0746 69.7083 92.2112 69.7083C93.8751 69.7083 94.9821 68.8104 94.9821 66.7785C94.9821 64.6637 93.7374 63.8672 92.2081 63.8672ZM92.1851 65.2005C92.9904 65.2005 93.3095 65.8046 93.3095 66.4922V67.0834C93.3095 67.9164 92.863 68.3982 92.182 68.3982C91.5452 68.3982 91.0976 67.9475 91.0976 67.0834V66.4922C91.0976 65.5706 91.6302 65.2005 92.1851 65.2005ZM98.3505 63.8672C96.5192 63.8672 95.5551 64.9016 95.5551 66.7554C95.5551 69.2989 97.217 69.7083 98.3536 69.7083C100.017 69.7083 101.125 68.8104 101.125 66.7785C101.125 64.6637 99.8798 63.8672 98.3505 63.8672ZM98.3275 65.2005C99.1328 65.2005 99.4518 65.8046 99.4518 66.4922V67.0834C99.4518 67.9164 99.0053 68.3982 98.3245 68.3982C97.6876 68.3982 97.24 67.9475 97.24 67.0834V66.4922C97.24 65.5706 97.7726 65.2005 98.3275 65.2005ZM101.763 69.5953V61.1708L103.459 61.023V66.6696L105.142 63.979H106.932L105.177 66.7657L107 69.5953H105.204L103.459 66.8478V69.5953H101.763Z" fill="#1877F2"/>
</svg>
