<svg width="169" height="161" viewBox="0 0 169 161" fill="none" xmlns="http://www.w3.org/2000/svg">
<rect width="169" height="161" rx="9.36709" fill="#F5F5F5"/>
<rect x="45.75" y="32.75" width="78.5" height="74.5" rx="4.25" stroke="#E60023" stroke-width="1.5"/>
<path d="M49.9577 124.876C50.6224 124.876 51.1903 124.989 51.6614 125.216C52.1326 125.435 52.4943 125.755 52.7467 126.176C53.0075 126.596 53.1379 127.105 53.1379 127.703C53.1379 128.064 53.0833 128.422 52.9739 128.775C52.8645 129.12 52.6878 129.436 52.4438 129.722C52.2083 129.999 51.897 130.222 51.51 130.391C51.123 130.559 50.6518 130.643 50.0965 130.643H48.7462V134H47.5221V124.876H49.9577ZM50.0839 129.469C50.4457 129.469 50.7444 129.411 50.9799 129.293C51.2155 129.175 51.4006 129.028 51.5352 128.851C51.6698 128.666 51.7666 128.472 51.8255 128.271C51.8844 128.069 51.9138 127.888 51.9138 127.728C51.9138 127.543 51.8844 127.353 51.8255 127.16C51.7666 126.958 51.6656 126.777 51.5226 126.617C51.388 126.449 51.2071 126.314 50.9799 126.213C50.7612 126.104 50.4878 126.049 50.1596 126.049H48.7462V129.469H50.0839ZM54.7372 128.775H55.9109V134H54.7372V128.775ZM54.6489 126.882C54.6489 126.697 54.7204 126.542 54.8634 126.415C55.0149 126.289 55.1789 126.226 55.3556 126.226C55.5323 126.226 55.6879 126.289 55.8226 126.415C55.9656 126.542 56.0371 126.697 56.0371 126.882C56.0371 127.076 55.9656 127.236 55.8226 127.362C55.6879 127.48 55.5323 127.539 55.3556 127.539C55.1789 127.539 55.0149 127.475 54.8634 127.349C54.7204 127.223 54.6489 127.067 54.6489 126.882ZM58.989 128.775L59.0899 130.05L59.0395 129.848C59.2077 129.461 59.4812 129.154 59.8598 128.927C60.2384 128.691 60.6759 128.573 61.1722 128.573C61.6686 128.573 62.0725 128.721 62.3838 129.015C62.7035 129.301 62.8675 129.676 62.8759 130.138V134H61.6897V130.555C61.6812 130.269 61.5971 130.037 61.4373 129.861C61.2858 129.676 61.046 129.583 60.7179 129.583C60.415 129.583 60.1416 129.667 59.8976 129.835C59.6536 130.004 59.4601 130.235 59.3171 130.53C59.1825 130.824 59.1152 131.165 59.1152 131.552V134H57.9415V128.775H58.989ZM65.4218 126.478H66.5955V128.801H68.0342V129.722H66.5955V134H65.4218V129.722H64.4627V128.801H65.4218V126.478ZM71.8754 134.126C71.278 134.126 70.7648 134.008 70.3357 133.773C69.9066 133.529 69.5743 133.201 69.3387 132.788C69.1116 132.368 68.998 131.888 68.998 131.35C68.998 130.837 69.1284 130.37 69.3892 129.949C69.65 129.528 69.9992 129.192 70.4367 128.939C70.8742 128.687 71.3622 128.561 71.9006 128.561C72.5905 128.561 73.1626 128.763 73.6169 129.167C74.0712 129.57 74.3783 130.126 74.5382 130.832L70.2348 132.347L69.9571 131.653L73.4907 130.365L73.2383 130.53C73.1374 130.252 72.9691 130.012 72.7335 129.81C72.498 129.6 72.1909 129.495 71.8123 129.495C71.4926 129.495 71.2065 129.575 70.9541 129.734C70.7017 129.886 70.504 130.096 70.361 130.365C70.2179 130.635 70.1464 130.942 70.1464 131.287C70.1464 131.648 70.2221 131.968 70.3736 132.246C70.525 132.515 70.7312 132.73 70.992 132.889C71.2612 133.041 71.5641 133.117 71.9006 133.117C72.1278 133.117 72.3465 133.075 72.5568 132.99C72.7756 132.906 72.9775 132.797 73.1626 132.662L73.7053 133.533C73.4445 133.71 73.15 133.853 72.8219 133.962C72.5022 134.072 72.1867 134.126 71.8754 134.126ZM77.0563 128.775L77.1698 130.29L77.1067 130.088C77.2414 129.768 77.4349 129.499 77.6873 129.28C77.9481 129.053 78.2173 128.88 78.4949 128.763C78.781 128.637 79.0292 128.573 79.2395 128.573L79.1764 129.734C78.781 129.709 78.4318 129.785 78.129 129.962C77.8345 130.138 77.5989 130.374 77.4222 130.668C77.254 130.963 77.1698 131.278 77.1698 131.615V134H76.0088V128.775H77.0563ZM82.9548 134.126C82.3575 134.126 81.8443 134.008 81.4152 133.773C80.9861 133.529 80.6538 133.201 80.4182 132.788C80.191 132.368 80.0775 131.888 80.0775 131.35C80.0775 130.837 80.2079 130.37 80.4687 129.949C80.7295 129.528 81.0787 129.192 81.5161 128.939C81.9536 128.687 82.4416 128.561 82.9801 128.561C83.67 128.561 84.2421 128.763 84.6964 129.167C85.1507 129.57 85.4578 130.126 85.6176 130.832L81.3142 132.347L81.0366 131.653L84.5702 130.365L84.3178 130.53C84.2168 130.252 84.0486 130.012 83.813 129.81C83.5774 129.6 83.2703 129.495 82.8917 129.495C82.572 129.495 82.286 129.575 82.0336 129.734C81.7812 129.886 81.5835 130.096 81.4404 130.365C81.2974 130.635 81.2259 130.942 81.2259 131.287C81.2259 131.648 81.3016 131.968 81.453 132.246C81.6045 132.515 81.8106 132.73 82.0714 132.889C82.3407 133.041 82.6435 133.117 82.9801 133.117C83.2072 133.117 83.426 133.075 83.6363 132.99C83.855 132.906 84.057 132.797 84.2421 132.662L84.7847 133.533C84.5239 133.71 84.2294 133.853 83.9013 133.962C83.5816 134.072 83.2661 134.126 82.9548 134.126ZM88.5522 134.101C88.182 134.101 87.8202 134.038 87.4669 133.912C87.1219 133.777 86.8359 133.579 86.6087 133.319L87.1009 132.637C87.3196 132.847 87.5426 133.007 87.7697 133.117C88.0053 133.218 88.2367 133.268 88.4638 133.268C88.6321 133.268 88.7878 133.247 88.9308 133.205C89.0738 133.163 89.1874 133.096 89.2715 133.003C89.3641 132.902 89.4103 132.767 89.4103 132.599C89.4103 132.414 89.3472 132.267 89.221 132.157C89.1033 132.048 88.9476 131.96 88.7541 131.892C88.569 131.825 88.3713 131.762 88.161 131.703C87.7319 131.56 87.4038 131.362 87.1766 131.11C86.9494 130.858 86.8359 130.551 86.8359 130.189C86.8359 129.911 86.9032 129.655 87.0378 129.419C87.1808 129.175 87.3869 128.977 87.6562 128.826C87.9338 128.674 88.2745 128.599 88.6784 128.599C89.0402 128.599 89.3641 128.645 89.6501 128.737C89.9362 128.822 90.2054 128.965 90.4578 129.167L89.9909 129.899C89.8394 129.739 89.6585 129.621 89.4482 129.545C89.2379 129.469 89.0486 129.427 88.8803 129.419C88.7373 129.411 88.5985 129.432 88.4638 129.482C88.3376 129.533 88.2325 129.604 88.1483 129.697C88.0642 129.789 88.0221 129.899 88.0221 130.025C88.0221 130.201 88.081 130.344 88.1988 130.454C88.3166 130.563 88.468 130.651 88.6531 130.719C88.8466 130.778 89.0359 130.841 89.221 130.908C89.4819 130.984 89.7132 131.085 89.9151 131.211C90.1171 131.337 90.2769 131.493 90.3947 131.678C90.5209 131.863 90.584 132.094 90.584 132.372C90.584 132.683 90.5083 132.974 90.3568 133.243C90.2138 133.504 89.9909 133.714 89.688 133.874C89.3935 134.025 89.0149 134.101 88.5522 134.101ZM92.7323 126.478H93.9059V128.801H95.3446V129.722H93.9059V134H92.7323V129.722H91.7731V128.801H92.7323V126.478ZM103.482 124.876C104.146 124.876 104.714 124.989 105.185 125.216C105.657 125.435 106.018 125.755 106.271 126.176C106.532 126.596 106.662 127.105 106.662 127.703C106.662 128.064 106.607 128.422 106.498 128.775C106.389 129.12 106.212 129.436 105.968 129.722C105.732 129.999 105.421 130.222 105.034 130.391C104.647 130.559 104.176 130.643 103.621 130.643H102.27V134H101.046V124.876H103.482ZM103.608 129.469C103.97 129.469 104.268 129.411 104.504 129.293C104.74 129.175 104.925 129.028 105.059 128.851C105.194 128.666 105.291 128.472 105.349 128.271C105.408 128.069 105.438 127.888 105.438 127.728C105.438 127.543 105.408 127.353 105.349 127.16C105.291 126.958 105.19 126.777 105.047 126.617C104.912 126.449 104.731 126.314 104.504 126.213C104.285 126.104 104.012 126.049 103.684 126.049H102.27V129.469H103.608ZM107.807 131.337C107.807 130.816 107.929 130.344 108.173 129.924C108.425 129.503 108.77 129.171 109.208 128.927C109.645 128.683 110.142 128.561 110.697 128.561C111.269 128.561 111.77 128.683 112.199 128.927C112.628 129.171 112.96 129.503 113.196 129.924C113.431 130.344 113.549 130.816 113.549 131.337C113.549 131.859 113.431 132.334 113.196 132.763C112.96 133.184 112.624 133.516 112.186 133.76C111.757 134.004 111.256 134.126 110.684 134.126C110.129 134.126 109.633 134.013 109.195 133.785C108.766 133.55 108.425 133.226 108.173 132.814C107.929 132.393 107.807 131.901 107.807 131.337ZM108.981 131.35C108.981 131.686 109.056 131.993 109.208 132.271C109.359 132.54 109.561 132.755 109.813 132.915C110.074 133.075 110.36 133.154 110.672 133.154C111 133.154 111.29 133.075 111.542 132.915C111.803 132.755 112.005 132.54 112.148 132.271C112.291 131.993 112.363 131.686 112.363 131.35C112.363 131.013 112.291 130.71 112.148 130.441C112.005 130.164 111.803 129.945 111.542 129.785C111.29 129.617 111 129.533 110.672 129.533C110.352 129.533 110.062 129.617 109.801 129.785C109.548 129.953 109.347 130.176 109.195 130.454C109.052 130.723 108.981 131.022 108.981 131.35ZM116.602 134.101C116.232 134.101 115.87 134.038 115.517 133.912C115.172 133.777 114.886 133.579 114.659 133.319L115.151 132.637C115.37 132.847 115.592 133.007 115.82 133.117C116.055 133.218 116.287 133.268 116.514 133.268C116.682 133.268 116.838 133.247 116.981 133.205C117.124 133.163 117.237 133.096 117.321 133.003C117.414 132.902 117.46 132.767 117.46 132.599C117.46 132.414 117.397 132.267 117.271 132.157C117.153 132.048 116.997 131.96 116.804 131.892C116.619 131.825 116.421 131.762 116.211 131.703C115.782 131.56 115.454 131.362 115.226 131.11C114.999 130.858 114.886 130.551 114.886 130.189C114.886 129.911 114.953 129.655 115.088 129.419C115.231 129.175 115.437 128.977 115.706 128.826C115.984 128.674 116.324 128.599 116.728 128.599C117.09 128.599 117.414 128.645 117.7 128.737C117.986 128.822 118.255 128.965 118.508 129.167L118.041 129.899C117.889 129.739 117.708 129.621 117.498 129.545C117.288 129.469 117.098 129.427 116.93 129.419C116.787 129.411 116.648 129.432 116.514 129.482C116.388 129.533 116.282 129.604 116.198 129.697C116.114 129.789 116.072 129.899 116.072 130.025C116.072 130.201 116.131 130.344 116.249 130.454C116.366 130.563 116.518 130.651 116.703 130.719C116.897 130.778 117.086 130.841 117.271 130.908C117.532 130.984 117.763 131.085 117.965 131.211C118.167 131.337 118.327 131.493 118.445 131.678C118.571 131.863 118.634 132.094 118.634 132.372C118.634 132.683 118.558 132.974 118.407 133.243C118.264 133.504 118.041 133.714 117.738 133.874C117.443 134.025 117.065 134.101 116.602 134.101ZM120.782 126.478H121.956V128.801H123.394V129.722H121.956V134H120.782V129.722H119.823V128.801H120.782V126.478Z" fill="#262626"/>
<path d="M57.8482 141.748H59.221V147H58.4468V142.49H57.8482V141.748ZM62.542 147.024C62.2175 147.024 61.9195 146.963 61.6481 146.84C61.3767 146.718 61.1426 146.542 60.9458 146.314C60.7542 146.079 60.6052 145.797 60.4988 145.468C60.3924 145.138 60.3392 144.768 60.3392 144.358C60.3392 143.911 60.3897 143.523 60.4908 143.193C60.5919 142.858 60.7382 142.578 60.9298 142.355C61.1267 142.131 61.3608 141.966 61.6322 141.86C61.9035 141.748 62.2068 141.692 62.542 141.692C62.8666 141.692 63.1619 141.754 63.428 141.876C63.6993 141.998 63.9308 142.177 64.1224 142.411C64.3192 142.639 64.4709 142.919 64.5773 143.249C64.689 143.573 64.7449 143.943 64.7449 144.358C64.7449 144.779 64.689 145.154 64.5773 145.484C64.4709 145.813 64.3192 146.093 64.1224 146.322C63.9308 146.55 63.6993 146.726 63.428 146.848C63.1619 146.965 62.8666 147.024 62.542 147.024ZM62.5341 146.282C62.8427 146.282 63.1007 146.202 63.3083 146.042C63.5211 145.877 63.6807 145.648 63.7871 145.356C63.8936 145.063 63.9468 144.725 63.9468 144.342C63.9468 143.959 63.8936 143.627 63.7871 143.345C63.6807 143.057 63.5211 142.834 63.3083 142.674C63.1007 142.514 62.8427 142.435 62.5341 142.435C62.2254 142.435 61.9674 142.517 61.7599 142.682C61.5523 142.842 61.3954 143.065 61.289 143.352C61.1879 143.64 61.1373 143.975 61.1373 144.358C61.1373 144.736 61.1879 145.071 61.289 145.364C61.3954 145.651 61.5523 145.877 61.7599 146.042C61.9674 146.202 62.2254 146.282 62.5341 146.282ZM65.2481 145.348C65.2481 145.076 65.2987 144.842 65.3998 144.645C65.5062 144.449 65.6365 144.284 65.7909 144.151C65.9505 144.012 66.1128 143.909 66.2777 143.839C66.1181 143.738 65.9851 143.613 65.8786 143.464C65.7775 143.315 65.727 143.124 65.727 142.89C65.727 142.655 65.7855 142.448 65.9026 142.267C66.025 142.086 66.1899 141.945 66.3974 141.844C66.605 141.738 66.8417 141.684 67.1078 141.684C67.3685 141.684 67.6026 141.738 67.8102 141.844C68.0177 141.945 68.1826 142.083 68.305 142.259C68.4274 142.435 68.4886 142.634 68.4886 142.858C68.4886 143.108 68.4354 143.307 68.3289 143.456C68.2278 143.605 68.0975 143.733 67.9379 143.839C68.1028 143.914 68.2651 144.02 68.4247 144.159C68.5843 144.292 68.7147 144.457 68.8158 144.653C68.9222 144.85 68.9754 145.082 68.9754 145.348C68.9754 145.651 68.8903 145.933 68.72 146.194C68.5551 146.455 68.3316 146.665 68.0496 146.824C67.7729 146.984 67.4563 147.064 67.0998 147.064C66.7433 147.064 66.4267 146.984 66.15 146.824C65.8733 146.665 65.6525 146.455 65.4876 146.194C65.3279 145.933 65.2481 145.651 65.2481 145.348ZM66.0383 145.308C66.0383 145.51 66.0862 145.694 66.1819 145.859C66.2777 146.024 66.4054 146.157 66.565 146.258C66.7247 146.359 66.9029 146.409 67.0998 146.409C67.302 146.409 67.4856 146.359 67.6505 146.258C67.8208 146.157 67.9538 146.024 68.0496 145.859C68.1507 145.694 68.2012 145.513 68.2012 145.316C68.2012 145.114 68.1534 144.933 68.0576 144.773C67.9618 144.608 67.8314 144.475 67.6665 144.374C67.5069 144.273 67.3286 144.222 67.1317 144.222C66.9349 144.217 66.7539 144.265 66.589 144.366C66.424 144.462 66.291 144.592 66.1899 144.757C66.0888 144.922 66.0383 145.106 66.0383 145.308ZM66.4773 142.985C66.4773 143.15 66.5411 143.291 66.6688 143.408C66.8018 143.52 66.9535 143.576 67.1237 143.576C67.294 143.576 67.4403 143.52 67.5627 143.408C67.6904 143.291 67.7543 143.15 67.7543 142.985C67.7543 142.794 67.6904 142.637 67.5627 142.514C67.4403 142.392 67.294 142.331 67.1237 142.331C66.9482 142.331 66.7965 142.392 66.6688 142.514C66.5411 142.637 66.4773 142.794 66.4773 142.985ZM71.6926 147.024C71.368 147.024 71.0701 146.963 70.7987 146.84C70.5273 146.718 70.2932 146.542 70.0963 146.314C69.9048 146.079 69.7558 145.797 69.6494 145.468C69.543 145.138 69.4897 144.768 69.4897 144.358C69.4897 143.911 69.5403 143.523 69.6414 143.193C69.7425 142.858 69.8888 142.578 70.0804 142.355C70.2772 142.131 70.5114 141.966 70.7827 141.86C71.0541 141.748 71.3574 141.692 71.6926 141.692C72.0172 141.692 72.3125 141.754 72.5786 141.876C72.8499 141.998 73.0814 142.177 73.2729 142.411C73.4698 142.639 73.6215 142.919 73.7279 143.249C73.8396 143.573 73.8955 143.943 73.8955 144.358C73.8955 144.779 73.8396 145.154 73.7279 145.484C73.6215 145.813 73.4698 146.093 73.2729 146.322C73.0814 146.55 72.8499 146.726 72.5786 146.848C72.3125 146.965 72.0172 147.024 71.6926 147.024ZM71.6846 146.282C71.9932 146.282 72.2513 146.202 72.4588 146.042C72.6717 145.877 72.8313 145.648 72.9377 145.356C73.0441 145.063 73.0973 144.725 73.0973 144.342C73.0973 143.959 73.0441 143.627 72.9377 143.345C72.8313 143.057 72.6717 142.834 72.4588 142.674C72.2513 142.514 71.9932 142.435 71.6846 142.435C71.376 142.435 71.118 142.517 70.9104 142.682C70.7029 142.842 70.5459 143.065 70.4395 143.352C70.3384 143.64 70.2879 143.975 70.2879 144.358C70.2879 144.736 70.3384 145.071 70.4395 145.364C70.5459 145.651 70.7029 145.877 70.9104 146.042C71.118 146.202 71.376 146.282 71.6846 146.282ZM78.5922 144.925L79.3823 143.696H80.1326L78.8635 145.468L78.5922 144.925ZM80.2603 147H79.3664L76.8522 143.696H77.7701L80.2603 147ZM78.5124 145.771L77.6424 147H76.8921L78.1532 145.276L78.5124 145.771ZM83.3591 141.748H84.7319V147H83.9577V142.49H83.3591V141.748ZM88.053 147.024C87.7284 147.024 87.4304 146.963 87.1591 146.84C86.8877 146.718 86.6536 146.542 86.4567 146.314C86.2651 146.079 86.1161 145.797 86.0097 145.468C85.9033 145.138 85.8501 144.768 85.8501 144.358C85.8501 143.911 85.9006 143.523 86.0017 143.193C86.1028 142.858 86.2492 142.578 86.4407 142.355C86.6376 142.131 86.8717 141.966 87.1431 141.86C87.4145 141.748 87.7178 141.692 88.053 141.692C88.3776 141.692 88.6729 141.754 88.9389 141.876C89.2103 141.998 89.4417 142.177 89.6333 142.411C89.8302 142.639 89.9818 142.919 90.0882 143.249C90.2 143.573 90.2558 143.943 90.2558 144.358C90.2558 144.779 90.2 145.154 90.0882 145.484C89.9818 145.813 89.8302 146.093 89.6333 146.322C89.4417 146.55 89.2103 146.726 88.9389 146.848C88.6729 146.965 88.3776 147.024 88.053 147.024ZM88.045 146.282C88.3536 146.282 88.6117 146.202 88.8192 146.042C89.032 145.877 89.1917 145.648 89.2981 145.356C89.4045 145.063 89.4577 144.725 89.4577 144.342C89.4577 143.959 89.4045 143.627 89.2981 143.345C89.1917 143.057 89.032 142.834 88.8192 142.674C88.6117 142.514 88.3536 142.435 88.045 142.435C87.7364 142.435 87.4783 142.517 87.2708 142.682C87.0633 142.842 86.9063 143.065 86.7999 143.352C86.6988 143.64 86.6482 143.975 86.6482 144.358C86.6482 144.736 86.6988 145.071 86.7999 145.364C86.9063 145.651 87.0633 145.877 87.2708 146.042C87.4783 146.202 87.7364 146.282 88.045 146.282ZM90.759 145.348C90.759 145.076 90.8096 144.842 90.9107 144.645C91.0171 144.449 91.1475 144.284 91.3018 144.151C91.4614 144.012 91.6237 143.909 91.7887 143.839C91.629 143.738 91.496 143.613 91.3896 143.464C91.2885 143.315 91.2379 143.124 91.2379 142.89C91.2379 142.655 91.2965 142.448 91.4135 142.267C91.5359 142.086 91.7009 141.945 91.9084 141.844C92.1159 141.738 92.3527 141.684 92.6187 141.684C92.8794 141.684 93.1136 141.738 93.3211 141.844C93.5286 141.945 93.6936 142.083 93.8159 142.259C93.9383 142.435 93.9995 142.634 93.9995 142.858C93.9995 143.108 93.9463 143.307 93.8399 143.456C93.7388 143.605 93.6084 143.733 93.4488 143.839C93.6137 143.914 93.776 144.02 93.9357 144.159C94.0953 144.292 94.2256 144.457 94.3267 144.653C94.4332 144.85 94.4864 145.082 94.4864 145.348C94.4864 145.651 94.4012 145.933 94.231 146.194C94.066 146.455 93.8425 146.665 93.5605 146.824C93.2838 146.984 92.9672 147.064 92.6107 147.064C92.2542 147.064 91.9376 146.984 91.6609 146.824C91.3843 146.665 91.1634 146.455 90.9985 146.194C90.8389 145.933 90.759 145.651 90.759 145.348ZM91.5492 145.308C91.5492 145.51 91.5971 145.694 91.6929 145.859C91.7887 146.024 91.9164 146.157 92.076 146.258C92.2356 146.359 92.4139 146.409 92.6107 146.409C92.8129 146.409 92.9965 146.359 93.1615 146.258C93.3317 146.157 93.4648 146.024 93.5605 145.859C93.6616 145.694 93.7122 145.513 93.7122 145.316C93.7122 145.114 93.6643 144.933 93.5685 144.773C93.4727 144.608 93.3424 144.475 93.1774 144.374C93.0178 144.273 92.8395 144.222 92.6427 144.222C92.4458 144.217 92.2649 144.265 92.0999 144.366C91.935 144.462 91.802 144.592 91.7009 144.757C91.5998 144.922 91.5492 145.106 91.5492 145.308ZM91.9882 142.985C91.9882 143.15 92.052 143.291 92.1797 143.408C92.3128 143.52 92.4644 143.576 92.6347 143.576C92.805 143.576 92.9513 143.52 93.0737 143.408C93.2014 143.291 93.2652 143.15 93.2652 142.985C93.2652 142.794 93.2014 142.637 93.0737 142.514C92.9513 142.392 92.805 142.331 92.6347 142.331C92.4591 142.331 92.3074 142.392 92.1797 142.514C92.052 142.637 91.9882 142.794 91.9882 142.985ZM97.2035 147.024C96.879 147.024 96.581 146.963 96.3096 146.84C96.0383 146.718 95.8041 146.542 95.6073 146.314C95.4157 146.079 95.2667 145.797 95.1603 145.468C95.0539 145.138 95.0007 144.768 95.0007 144.358C95.0007 143.911 95.0512 143.523 95.1523 143.193C95.2534 142.858 95.3997 142.578 95.5913 142.355C95.7882 142.131 96.0223 141.966 96.2937 141.86C96.565 141.748 96.8683 141.692 97.2035 141.692C97.5281 141.692 97.8234 141.754 98.0895 141.876C98.3609 141.998 98.5923 142.177 98.7839 142.411C98.9807 142.639 99.1324 142.919 99.2388 143.249C99.3505 143.573 99.4064 143.943 99.4064 144.358C99.4064 144.779 99.3505 145.154 99.2388 145.484C99.1324 145.813 98.9807 146.093 98.7839 146.322C98.5923 146.55 98.3609 146.726 98.0895 146.848C97.8234 146.965 97.5281 147.024 97.2035 147.024ZM97.1956 146.282C97.5042 146.282 97.7622 146.202 97.9698 146.042C98.1826 145.877 98.3422 145.648 98.4486 145.356C98.5551 145.063 98.6083 144.725 98.6083 144.342C98.6083 143.959 98.5551 143.627 98.4486 143.345C98.3422 143.057 98.1826 142.834 97.9698 142.674C97.7622 142.514 97.5042 142.435 97.1956 142.435C96.8869 142.435 96.6289 142.517 96.4214 142.682C96.2138 142.842 96.0569 143.065 95.9505 143.352C95.8494 143.64 95.7988 143.975 95.7988 144.358C95.7988 144.736 95.8494 145.071 95.9505 145.364C96.0569 145.651 96.2138 145.877 96.4214 146.042C96.6289 146.202 96.8869 146.282 97.1956 146.282ZM104.805 147.08C104.555 147.08 104.313 147.021 104.079 146.904C103.85 146.787 103.672 146.63 103.544 146.433L103.592 146.202V148.588H102.858V143.648H103.497L103.6 144.494L103.52 144.262C103.68 144.06 103.882 143.893 104.127 143.76C104.372 143.627 104.646 143.56 104.949 143.56C105.258 143.56 105.534 143.634 105.779 143.783C106.029 143.932 106.226 144.14 106.37 144.406C106.514 144.672 106.585 144.983 106.585 145.34C106.585 145.696 106.508 146.005 106.354 146.266C106.2 146.526 105.987 146.729 105.715 146.872C105.449 147.011 105.146 147.08 104.805 147.08ZM104.662 146.489C104.875 146.489 105.069 146.441 105.244 146.346C105.425 146.244 105.569 146.109 105.675 145.938C105.782 145.763 105.835 145.566 105.835 145.348C105.835 145.124 105.785 144.927 105.683 144.757C105.582 144.582 105.447 144.443 105.276 144.342C105.111 144.241 104.925 144.191 104.718 144.191C104.526 144.191 104.353 144.228 104.199 144.302C104.045 144.377 103.917 144.481 103.816 144.614C103.715 144.741 103.643 144.89 103.6 145.061V145.611C103.627 145.782 103.691 145.933 103.792 146.066C103.893 146.199 104.018 146.303 104.167 146.377C104.321 146.452 104.486 146.489 104.662 146.489ZM108.756 144.925L109.547 143.696H110.297L109.028 145.468L108.756 144.925ZM110.424 147H109.531L107.016 143.696H107.934L110.424 147ZM108.677 145.771L107.807 147H107.056L108.317 145.276L108.677 145.771Z" fill="#262626"/>
<path d="M83.4999 54.9999C75.4919 54.9999 69 61.5009 69 69.5202C69 75.6718 72.8219 80.9305 78.2158 83.0462C78.0891 81.8973 77.9745 80.1305 78.2661 78.8763C78.5296 77.7431 79.9664 71.6588 79.9664 71.6588C79.9664 71.6588 79.5326 70.7889 79.5326 69.503C79.5326 67.4839 80.7013 65.9766 82.1564 65.9766C83.3934 65.9766 83.991 66.9066 83.991 68.0219C83.991 69.2678 83.1989 71.1304 82.7901 72.8565C82.4485 74.3018 83.5138 75.4804 84.9373 75.4804C87.5144 75.4804 89.4955 72.7592 89.4955 68.8312C89.4955 65.3545 87.0008 62.9238 83.4387 62.9238C79.313 62.9238 76.8913 66.0226 76.8913 69.2252C76.8913 70.4732 77.3714 71.8114 77.9705 72.5389C78.089 72.6826 78.1063 72.8086 78.071 72.9553C77.961 73.4139 77.7163 74.4002 77.6683 74.6021C77.6051 74.8679 77.4582 74.9243 77.1834 74.7962C75.3724 73.9521 74.2402 71.3006 74.2402 69.171C74.2402 64.5906 77.5635 60.3841 83.8209 60.3841C88.8509 60.3841 92.7598 63.9735 92.7598 68.7704C92.7598 73.7746 89.609 77.802 85.2357 77.802C83.7663 77.802 82.385 77.0376 81.9122 76.1347C81.9122 76.1347 81.1851 78.907 81.0089 79.5864C80.6815 80.8476 79.7978 82.4286 79.2067 83.393C80.5634 83.8137 82.0052 84.0405 83.4999 84.0405C91.5081 84.0405 98 77.5395 98 69.5202C98 61.5009 91.5081 54.9999 83.4999 54.9999Z" fill="#E60023"/>
</svg>
