<svg width="169" height="161" viewBox="0 0 169 161" fill="none" xmlns="http://www.w3.org/2000/svg">
<rect width="169" height="161" rx="9.36709" fill="#F5F5F5"/>
<rect width="169" height="161" rx="9.36709" fill="#F5F5F5"/>
<path d="M28.3887 116.876H29.6129V124.826H34.2444V126H28.3887V116.876ZM38.372 126.126C37.7747 126.126 37.2615 126.008 36.8324 125.773C36.4033 125.529 36.071 125.201 35.8354 124.788C35.6082 124.368 35.4947 123.888 35.4947 123.35C35.4947 122.837 35.6251 122.37 35.8859 121.949C36.1467 121.528 36.4959 121.192 36.9333 120.939C37.3708 120.687 37.8588 120.561 38.3973 120.561C39.0872 120.561 39.6593 120.763 40.1136 121.167C40.5679 121.57 40.875 122.126 41.0348 122.832L36.7314 124.347L36.4538 123.653L39.9874 122.365L39.735 122.53C39.634 122.252 39.4658 122.012 39.2302 121.81C38.9946 121.6 38.6875 121.495 38.3089 121.495C37.9892 121.495 37.7032 121.575 37.4508 121.734C37.1984 121.886 37.0007 122.096 36.8576 122.365C36.7146 122.635 36.6431 122.942 36.6431 123.287C36.6431 123.648 36.7188 123.968 36.8702 124.246C37.0217 124.515 37.2278 124.73 37.4886 124.889C37.7579 125.041 38.0607 125.117 38.3973 125.117C38.6244 125.117 38.8432 125.075 39.0535 124.99C39.2722 124.906 39.4742 124.797 39.6593 124.662L40.2019 125.533C39.9411 125.71 39.6466 125.853 39.3185 125.962C38.9988 126.072 38.6833 126.126 38.372 126.126ZM43.5529 120.775L43.6539 122.05L43.6034 121.848C43.7717 121.461 44.0451 121.154 44.4237 120.927C44.8023 120.691 45.2398 120.573 45.7362 120.573C46.2326 120.573 46.6364 120.721 46.9477 121.015C47.2674 121.301 47.4315 121.676 47.4399 122.138V126H46.2536V122.555C46.2452 122.269 46.1611 122.037 46.0012 121.861C45.8498 121.676 45.61 121.583 45.2819 121.583C44.979 121.583 44.7055 121.667 44.4616 121.835C44.2176 122.004 44.0241 122.235 43.881 122.53C43.7464 122.824 43.6791 123.165 43.6791 123.552V126H42.5055V120.775H43.5529ZM50.9449 126.101C50.5747 126.101 50.2129 126.038 49.8596 125.912C49.5146 125.777 49.2286 125.579 49.0014 125.319L49.4936 124.637C49.7123 124.847 49.9353 125.007 50.1624 125.117C50.398 125.218 50.6294 125.268 50.8565 125.268C51.0248 125.268 51.1805 125.247 51.3235 125.205C51.4665 125.163 51.5801 125.096 51.6642 125.003C51.7568 124.902 51.803 124.767 51.803 124.599C51.803 124.414 51.7399 124.267 51.6137 124.157C51.496 124.048 51.3403 123.96 51.1468 123.892C50.9617 123.825 50.764 123.762 50.5537 123.703C50.1246 123.56 49.7965 123.362 49.5693 123.11C49.3421 122.858 49.2286 122.551 49.2286 122.189C49.2286 121.911 49.2959 121.655 49.4305 121.419C49.5735 121.175 49.7796 120.977 50.0489 120.826C50.3265 120.674 50.6672 120.599 51.0711 120.599C51.4329 120.599 51.7568 120.645 52.0428 120.737C52.3289 120.822 52.5981 120.965 52.8505 121.167L52.3836 121.899C52.2321 121.739 52.0512 121.621 51.8409 121.545C51.6306 121.469 51.4413 121.427 51.273 121.419C51.13 121.411 50.9912 121.432 50.8565 121.482C50.7303 121.533 50.6252 121.604 50.541 121.697C50.4569 121.789 50.4148 121.899 50.4148 122.025C50.4148 122.201 50.4737 122.344 50.5915 122.454C50.7093 122.563 50.8607 122.651 51.0458 122.719C51.2393 122.778 51.4286 122.841 51.6137 122.908C51.8746 122.984 52.1059 123.085 52.3078 123.211C52.5098 123.337 52.6696 123.493 52.7874 123.678C52.9136 123.863 52.9767 124.094 52.9767 124.372C52.9767 124.683 52.901 124.974 52.7495 125.243C52.6065 125.504 52.3836 125.714 52.0807 125.874C51.7862 126.025 51.4076 126.101 50.9449 126.101ZM55.125 118.478H56.2986V120.801H57.7373V121.722H56.2986V126H55.125V121.722H54.1658V120.801H55.125V118.478ZM60.8087 126.202C60.3375 126.202 59.9463 126.059 59.635 125.773C59.3321 125.478 59.1723 125.1 59.1555 124.637V120.775H60.3291V124.221C60.3459 124.507 60.4259 124.738 60.5689 124.915C60.7203 125.091 60.9559 125.184 61.2756 125.192C61.5701 125.192 61.8309 125.108 62.0581 124.94C62.2936 124.763 62.4829 124.528 62.626 124.233C62.769 123.93 62.8405 123.59 62.8405 123.211V120.775H64.0142V126H62.9415L62.8405 124.713L62.9036 124.94C62.8026 125.184 62.647 125.403 62.4367 125.596C62.2347 125.781 61.995 125.928 61.7173 126.038C61.4397 126.147 61.1368 126.202 60.8087 126.202ZM69.2249 126.126C68.7454 126.126 68.3205 126.021 67.9503 125.811C67.5885 125.6 67.2983 125.335 67.0795 125.016L67.2183 124.65V126H66.0447V116.232H67.2057V121.974L67.1679 121.533C67.3782 121.246 67.6769 121.015 68.0639 120.838C68.4593 120.653 68.8968 120.561 69.3764 120.561C69.8475 120.561 70.2766 120.674 70.6636 120.902C71.0506 121.129 71.3577 121.448 71.5849 121.861C71.8204 122.264 71.9382 122.748 71.9382 123.312C71.9382 123.901 71.812 124.406 71.5596 124.826C71.3156 125.247 70.9875 125.571 70.5753 125.798C70.163 126.017 69.7129 126.126 69.2249 126.126ZM68.9851 125.129C69.3217 125.129 69.6246 125.049 69.8938 124.889C70.163 124.73 70.3733 124.515 70.5248 124.246C70.6762 123.968 70.7519 123.653 70.7519 123.299C70.7519 122.963 70.672 122.66 70.5122 122.391C70.3607 122.113 70.1504 121.894 69.8812 121.734C69.6203 121.575 69.3217 121.495 68.9851 121.495C68.6991 121.495 68.4341 121.549 68.1901 121.659C67.9461 121.768 67.74 121.92 67.5717 122.113C67.4034 122.298 67.2857 122.517 67.2183 122.769V123.817C67.2857 124.069 67.3992 124.296 67.5591 124.498C67.7189 124.692 67.9209 124.847 68.1648 124.965C68.4088 125.075 68.6823 125.129 68.9851 125.129ZM75.9485 126.126C75.3512 126.126 74.838 126.008 74.4089 125.773C73.9798 125.529 73.6475 125.201 73.4119 124.788C73.1847 124.368 73.0712 123.888 73.0712 123.35C73.0712 122.837 73.2016 122.37 73.4624 121.949C73.7232 121.528 74.0723 121.192 74.5098 120.939C74.9473 120.687 75.4353 120.561 75.9738 120.561C76.6636 120.561 77.2358 120.763 77.6901 121.167C78.1444 121.57 78.4515 122.126 78.6113 122.832L74.3079 124.347L74.0303 123.653L77.5639 122.365L77.3115 122.53C77.2105 122.252 77.0422 122.012 76.8067 121.81C76.5711 121.6 76.264 121.495 75.8854 121.495C75.5657 121.495 75.2797 121.575 75.0273 121.734C74.7749 121.886 74.5771 122.096 74.4341 122.365C74.2911 122.635 74.2196 122.942 74.2196 123.287C74.2196 123.648 74.2953 123.968 74.4467 124.246C74.5982 124.515 74.8043 124.73 75.0651 124.889C75.3343 125.041 75.6372 125.117 75.9738 125.117C76.2009 125.117 76.4197 125.075 76.63 124.99C76.8487 124.906 77.0507 124.797 77.2358 124.662L77.7784 125.533C77.5176 125.71 77.2231 125.853 76.895 125.962C76.5753 126.072 76.2598 126.126 75.9485 126.126ZM83.6964 116.876H89.754V118.049H87.3057V126H86.0816V118.049H83.6964V116.876ZM91.4079 126V116.232H92.5563V121.987L92.5311 121.772C92.7078 121.427 92.977 121.141 93.3388 120.914C93.7089 120.687 94.1422 120.573 94.6386 120.573C95.135 120.573 95.5388 120.721 95.8501 121.015C96.1698 121.301 96.3339 121.676 96.3423 122.138V126H95.156V122.555C95.1476 122.269 95.0635 122.037 94.9036 121.861C94.7522 121.676 94.5124 121.583 94.1843 121.583C93.8814 121.583 93.608 121.671 93.364 121.848C93.12 122.016 92.9265 122.248 92.7835 122.542C92.6489 122.837 92.5816 123.173 92.5816 123.552V126H91.4079ZM100.037 126.202C99.5655 126.202 99.1742 126.059 98.863 125.773C98.5601 125.478 98.4002 125.1 98.3834 124.637V120.775H99.5571V124.221C99.5739 124.507 99.6538 124.738 99.7968 124.915C99.9483 125.091 100.184 125.184 100.504 125.192C100.798 125.192 101.059 125.108 101.286 124.94C101.522 124.763 101.711 124.528 101.854 124.233C101.997 123.93 102.068 123.59 102.068 123.211V120.775H103.242V126H102.169L102.068 124.713L102.132 124.94C102.031 125.184 101.875 125.403 101.665 125.596C101.463 125.781 101.223 125.928 100.945 126.038C100.668 126.147 100.365 126.202 100.037 126.202ZM106.32 120.775L106.421 121.949L106.371 121.848C106.564 121.453 106.837 121.141 107.191 120.914C107.553 120.687 107.965 120.573 108.428 120.573C108.722 120.573 108.983 120.62 109.21 120.712C109.437 120.805 109.622 120.939 109.765 121.116C109.917 121.284 110.014 121.495 110.056 121.747L109.992 121.785C110.194 121.406 110.472 121.112 110.825 120.902C111.187 120.683 111.566 120.573 111.961 120.573C112.474 120.573 112.878 120.721 113.173 121.015C113.476 121.301 113.631 121.676 113.64 122.138V126H112.466V122.555C112.458 122.286 112.39 122.063 112.264 121.886C112.146 121.701 111.936 121.6 111.633 121.583C111.33 121.583 111.057 121.676 110.813 121.861C110.577 122.046 110.392 122.286 110.258 122.58C110.123 122.866 110.051 123.177 110.043 123.514V126H108.869V122.555C108.861 122.286 108.789 122.063 108.655 121.886C108.529 121.701 108.314 121.6 108.011 121.583C107.7 121.583 107.426 121.676 107.191 121.861C106.955 122.046 106.77 122.286 106.636 122.58C106.509 122.874 106.446 123.19 106.446 123.526V126H105.273V120.775H106.32ZM118.867 126.126C118.387 126.126 117.962 126.021 117.592 125.811C117.23 125.6 116.94 125.335 116.721 125.016L116.86 124.65V126H115.687V116.232H116.848V121.974L116.81 121.533C117.02 121.246 117.319 121.015 117.706 120.838C118.101 120.653 118.539 120.561 119.018 120.561C119.489 120.561 119.918 120.674 120.305 120.902C120.692 121.129 121 121.448 121.227 121.861C121.462 122.264 121.58 122.748 121.58 123.312C121.58 123.901 121.454 124.406 121.202 124.826C120.958 125.247 120.629 125.571 120.217 125.798C119.805 126.017 119.355 126.126 118.867 126.126ZM118.627 125.129C118.964 125.129 119.266 125.049 119.536 124.889C119.805 124.73 120.015 124.515 120.167 124.246C120.318 123.968 120.394 123.653 120.394 123.299C120.394 122.963 120.314 122.66 120.154 122.391C120.003 122.113 119.792 121.894 119.523 121.734C119.262 121.575 118.964 121.495 118.627 121.495C118.341 121.495 118.076 121.549 117.832 121.659C117.588 121.768 117.382 121.92 117.214 122.113C117.045 122.298 116.928 122.517 116.86 122.769V123.817C116.928 124.069 117.041 124.296 117.201 124.498C117.361 124.692 117.563 124.847 117.807 124.965C118.051 125.075 118.324 125.129 118.627 125.129ZM124.215 120.775L124.316 122.05L124.265 121.848C124.434 121.461 124.707 121.154 125.086 120.927C125.464 120.691 125.902 120.573 126.398 120.573C126.894 120.573 127.298 120.721 127.61 121.015C127.929 121.301 128.093 121.676 128.102 122.138V126H126.915V122.555C126.907 122.269 126.823 122.037 126.663 121.861C126.512 121.676 126.272 121.583 125.944 121.583C125.641 121.583 125.367 121.667 125.123 121.835C124.879 122.004 124.686 122.235 124.543 122.53C124.408 122.824 124.341 123.165 124.341 123.552V126H123.167V120.775H124.215ZM132.313 126.126C131.826 126.126 131.38 126.021 130.976 125.811C130.58 125.6 130.265 125.293 130.029 124.889C129.802 124.477 129.689 123.977 129.689 123.388C129.689 122.807 129.811 122.307 130.055 121.886C130.299 121.457 130.622 121.129 131.026 120.902C131.439 120.674 131.889 120.561 132.377 120.561C132.865 120.561 133.277 120.674 133.613 120.902C133.95 121.12 134.206 121.381 134.383 121.684L134.307 121.886L134.421 120.775H135.506V126H134.333V124.637L134.459 124.94C134.425 125.024 134.35 125.133 134.232 125.268C134.122 125.394 133.971 125.525 133.777 125.659C133.592 125.794 133.378 125.907 133.134 126C132.89 126.084 132.616 126.126 132.313 126.126ZM132.629 125.154C132.923 125.154 133.188 125.1 133.424 124.99C133.66 124.881 133.853 124.73 134.005 124.536C134.164 124.334 134.274 124.094 134.333 123.817V122.795C134.265 122.542 134.148 122.323 133.979 122.138C133.811 121.945 133.609 121.798 133.374 121.697C133.138 121.587 132.877 121.533 132.591 121.533C132.28 121.533 131.994 121.608 131.733 121.76C131.472 121.911 131.262 122.121 131.102 122.391C130.951 122.66 130.875 122.975 130.875 123.337C130.875 123.674 130.955 123.981 131.115 124.258C131.274 124.536 131.489 124.755 131.758 124.915C132.027 125.075 132.318 125.154 132.629 125.154ZM137.537 120.775H138.711V126H137.537V120.775ZM137.449 118.882C137.449 118.697 137.521 118.542 137.664 118.415C137.815 118.289 137.979 118.226 138.156 118.226C138.332 118.226 138.488 118.289 138.623 118.415C138.766 118.542 138.837 118.697 138.837 118.882C138.837 119.076 138.766 119.236 138.623 119.362C138.488 119.48 138.332 119.539 138.156 119.539C137.979 119.539 137.815 119.475 137.664 119.349C137.521 119.223 137.449 119.067 137.449 118.882ZM140.742 116.232H141.915V126H140.742V116.232Z" fill="#262626"/>
<path d="M28.3887 116.876H29.6129V124.826H34.2444V126H28.3887V116.876ZM38.372 126.126C37.7747 126.126 37.2615 126.008 36.8324 125.773C36.4033 125.529 36.071 125.201 35.8354 124.788C35.6082 124.368 35.4947 123.888 35.4947 123.35C35.4947 122.837 35.6251 122.37 35.8859 121.949C36.1467 121.528 36.4959 121.192 36.9333 120.939C37.3708 120.687 37.8588 120.561 38.3973 120.561C39.0872 120.561 39.6593 120.763 40.1136 121.167C40.5679 121.57 40.875 122.126 41.0348 122.832L36.7314 124.347L36.4538 123.653L39.9874 122.365L39.735 122.53C39.634 122.252 39.4658 122.012 39.2302 121.81C38.9946 121.6 38.6875 121.495 38.3089 121.495C37.9892 121.495 37.7032 121.575 37.4508 121.734C37.1984 121.886 37.0007 122.096 36.8576 122.365C36.7146 122.635 36.6431 122.942 36.6431 123.287C36.6431 123.648 36.7188 123.968 36.8702 124.246C37.0217 124.515 37.2278 124.73 37.4886 124.889C37.7579 125.041 38.0607 125.117 38.3973 125.117C38.6244 125.117 38.8432 125.075 39.0535 124.99C39.2722 124.906 39.4742 124.797 39.6593 124.662L40.2019 125.533C39.9411 125.71 39.6466 125.853 39.3185 125.962C38.9988 126.072 38.6833 126.126 38.372 126.126ZM43.5529 120.775L43.6539 122.05L43.6034 121.848C43.7717 121.461 44.0451 121.154 44.4237 120.927C44.8023 120.691 45.2398 120.573 45.7362 120.573C46.2326 120.573 46.6364 120.721 46.9477 121.015C47.2674 121.301 47.4315 121.676 47.4399 122.138V126H46.2536V122.555C46.2452 122.269 46.1611 122.037 46.0012 121.861C45.8498 121.676 45.61 121.583 45.2819 121.583C44.979 121.583 44.7055 121.667 44.4616 121.835C44.2176 122.004 44.0241 122.235 43.881 122.53C43.7464 122.824 43.6791 123.165 43.6791 123.552V126H42.5055V120.775H43.5529ZM50.9449 126.101C50.5747 126.101 50.2129 126.038 49.8596 125.912C49.5146 125.777 49.2286 125.579 49.0014 125.319L49.4936 124.637C49.7123 124.847 49.9353 125.007 50.1624 125.117C50.398 125.218 50.6294 125.268 50.8565 125.268C51.0248 125.268 51.1805 125.247 51.3235 125.205C51.4665 125.163 51.5801 125.096 51.6642 125.003C51.7568 124.902 51.803 124.767 51.803 124.599C51.803 124.414 51.7399 124.267 51.6137 124.157C51.496 124.048 51.3403 123.96 51.1468 123.892C50.9617 123.825 50.764 123.762 50.5537 123.703C50.1246 123.56 49.7965 123.362 49.5693 123.11C49.3421 122.858 49.2286 122.551 49.2286 122.189C49.2286 121.911 49.2959 121.655 49.4305 121.419C49.5735 121.175 49.7796 120.977 50.0489 120.826C50.3265 120.674 50.6672 120.599 51.0711 120.599C51.4329 120.599 51.7568 120.645 52.0428 120.737C52.3289 120.822 52.5981 120.965 52.8505 121.167L52.3836 121.899C52.2321 121.739 52.0512 121.621 51.8409 121.545C51.6306 121.469 51.4413 121.427 51.273 121.419C51.13 121.411 50.9912 121.432 50.8565 121.482C50.7303 121.533 50.6252 121.604 50.541 121.697C50.4569 121.789 50.4148 121.899 50.4148 122.025C50.4148 122.201 50.4737 122.344 50.5915 122.454C50.7093 122.563 50.8607 122.651 51.0458 122.719C51.2393 122.778 51.4286 122.841 51.6137 122.908C51.8746 122.984 52.1059 123.085 52.3078 123.211C52.5098 123.337 52.6696 123.493 52.7874 123.678C52.9136 123.863 52.9767 124.094 52.9767 124.372C52.9767 124.683 52.901 124.974 52.7495 125.243C52.6065 125.504 52.3836 125.714 52.0807 125.874C51.7862 126.025 51.4076 126.101 50.9449 126.101ZM55.125 118.478H56.2986V120.801H57.7373V121.722H56.2986V126H55.125V121.722H54.1658V120.801H55.125V118.478ZM60.8087 126.202C60.3375 126.202 59.9463 126.059 59.635 125.773C59.3321 125.478 59.1723 125.1 59.1555 124.637V120.775H60.3291V124.221C60.3459 124.507 60.4259 124.738 60.5689 124.915C60.7203 125.091 60.9559 125.184 61.2756 125.192C61.5701 125.192 61.8309 125.108 62.0581 124.94C62.2936 124.763 62.4829 124.528 62.626 124.233C62.769 123.93 62.8405 123.59 62.8405 123.211V120.775H64.0142V126H62.9415L62.8405 124.713L62.9036 124.94C62.8026 125.184 62.647 125.403 62.4367 125.596C62.2347 125.781 61.995 125.928 61.7173 126.038C61.4397 126.147 61.1368 126.202 60.8087 126.202ZM69.2249 126.126C68.7454 126.126 68.3205 126.021 67.9503 125.811C67.5885 125.6 67.2983 125.335 67.0795 125.016L67.2183 124.65V126H66.0447V116.232H67.2057V121.974L67.1679 121.533C67.3782 121.246 67.6769 121.015 68.0639 120.838C68.4593 120.653 68.8968 120.561 69.3764 120.561C69.8475 120.561 70.2766 120.674 70.6636 120.902C71.0506 121.129 71.3577 121.448 71.5849 121.861C71.8204 122.264 71.9382 122.748 71.9382 123.312C71.9382 123.901 71.812 124.406 71.5596 124.826C71.3156 125.247 70.9875 125.571 70.5753 125.798C70.163 126.017 69.7129 126.126 69.2249 126.126ZM68.9851 125.129C69.3217 125.129 69.6246 125.049 69.8938 124.889C70.163 124.73 70.3733 124.515 70.5248 124.246C70.6762 123.968 70.7519 123.653 70.7519 123.299C70.7519 122.963 70.672 122.66 70.5122 122.391C70.3607 122.113 70.1504 121.894 69.8812 121.734C69.6203 121.575 69.3217 121.495 68.9851 121.495C68.6991 121.495 68.4341 121.549 68.1901 121.659C67.9461 121.768 67.74 121.92 67.5717 122.113C67.4034 122.298 67.2857 122.517 67.2183 122.769V123.817C67.2857 124.069 67.3992 124.296 67.5591 124.498C67.7189 124.692 67.9209 124.847 68.1648 124.965C68.4088 125.075 68.6823 125.129 68.9851 125.129ZM75.9485 126.126C75.3512 126.126 74.838 126.008 74.4089 125.773C73.9798 125.529 73.6475 125.201 73.4119 124.788C73.1847 124.368 73.0712 123.888 73.0712 123.35C73.0712 122.837 73.2016 122.37 73.4624 121.949C73.7232 121.528 74.0723 121.192 74.5098 120.939C74.9473 120.687 75.4353 120.561 75.9738 120.561C76.6636 120.561 77.2358 120.763 77.6901 121.167C78.1444 121.57 78.4515 122.126 78.6113 122.832L74.3079 124.347L74.0303 123.653L77.5639 122.365L77.3115 122.53C77.2105 122.252 77.0422 122.012 76.8067 121.81C76.5711 121.6 76.264 121.495 75.8854 121.495C75.5657 121.495 75.2797 121.575 75.0273 121.734C74.7749 121.886 74.5771 122.096 74.4341 122.365C74.2911 122.635 74.2196 122.942 74.2196 123.287C74.2196 123.648 74.2953 123.968 74.4467 124.246C74.5982 124.515 74.8043 124.73 75.0651 124.889C75.3343 125.041 75.6372 125.117 75.9738 125.117C76.2009 125.117 76.4197 125.075 76.63 124.99C76.8487 124.906 77.0507 124.797 77.2358 124.662L77.7784 125.533C77.5176 125.71 77.2231 125.853 76.895 125.962C76.5753 126.072 76.2598 126.126 75.9485 126.126ZM83.6964 116.876H89.754V118.049H87.3057V126H86.0816V118.049H83.6964V116.876ZM91.4079 126V116.232H92.5563V121.987L92.5311 121.772C92.7078 121.427 92.977 121.141 93.3388 120.914C93.7089 120.687 94.1422 120.573 94.6386 120.573C95.135 120.573 95.5388 120.721 95.8501 121.015C96.1698 121.301 96.3339 121.676 96.3423 122.138V126H95.156V122.555C95.1476 122.269 95.0635 122.037 94.9036 121.861C94.7522 121.676 94.5124 121.583 94.1843 121.583C93.8814 121.583 93.608 121.671 93.364 121.848C93.12 122.016 92.9265 122.248 92.7835 122.542C92.6489 122.837 92.5816 123.173 92.5816 123.552V126H91.4079ZM100.037 126.202C99.5655 126.202 99.1742 126.059 98.863 125.773C98.5601 125.478 98.4002 125.1 98.3834 124.637V120.775H99.5571V124.221C99.5739 124.507 99.6538 124.738 99.7968 124.915C99.9483 125.091 100.184 125.184 100.504 125.192C100.798 125.192 101.059 125.108 101.286 124.94C101.522 124.763 101.711 124.528 101.854 124.233C101.997 123.93 102.068 123.59 102.068 123.211V120.775H103.242V126H102.169L102.068 124.713L102.132 124.94C102.031 125.184 101.875 125.403 101.665 125.596C101.463 125.781 101.223 125.928 100.945 126.038C100.668 126.147 100.365 126.202 100.037 126.202ZM106.32 120.775L106.421 121.949L106.371 121.848C106.564 121.453 106.837 121.141 107.191 120.914C107.553 120.687 107.965 120.573 108.428 120.573C108.722 120.573 108.983 120.62 109.21 120.712C109.437 120.805 109.622 120.939 109.765 121.116C109.917 121.284 110.014 121.495 110.056 121.747L109.992 121.785C110.194 121.406 110.472 121.112 110.825 120.902C111.187 120.683 111.566 120.573 111.961 120.573C112.474 120.573 112.878 120.721 113.173 121.015C113.476 121.301 113.631 121.676 113.64 122.138V126H112.466V122.555C112.458 122.286 112.39 122.063 112.264 121.886C112.146 121.701 111.936 121.6 111.633 121.583C111.33 121.583 111.057 121.676 110.813 121.861C110.577 122.046 110.392 122.286 110.258 122.58C110.123 122.866 110.051 123.177 110.043 123.514V126H108.869V122.555C108.861 122.286 108.789 122.063 108.655 121.886C108.529 121.701 108.314 121.6 108.011 121.583C107.7 121.583 107.426 121.676 107.191 121.861C106.955 122.046 106.77 122.286 106.636 122.58C106.509 122.874 106.446 123.19 106.446 123.526V126H105.273V120.775H106.32ZM118.867 126.126C118.387 126.126 117.962 126.021 117.592 125.811C117.23 125.6 116.94 125.335 116.721 125.016L116.86 124.65V126H115.687V116.232H116.848V121.974L116.81 121.533C117.02 121.246 117.319 121.015 117.706 120.838C118.101 120.653 118.539 120.561 119.018 120.561C119.489 120.561 119.918 120.674 120.305 120.902C120.692 121.129 121 121.448 121.227 121.861C121.462 122.264 121.58 122.748 121.58 123.312C121.58 123.901 121.454 124.406 121.202 124.826C120.958 125.247 120.629 125.571 120.217 125.798C119.805 126.017 119.355 126.126 118.867 126.126ZM118.627 125.129C118.964 125.129 119.266 125.049 119.536 124.889C119.805 124.73 120.015 124.515 120.167 124.246C120.318 123.968 120.394 123.653 120.394 123.299C120.394 122.963 120.314 122.66 120.154 122.391C120.003 122.113 119.792 121.894 119.523 121.734C119.262 121.575 118.964 121.495 118.627 121.495C118.341 121.495 118.076 121.549 117.832 121.659C117.588 121.768 117.382 121.92 117.214 122.113C117.045 122.298 116.928 122.517 116.86 122.769V123.817C116.928 124.069 117.041 124.296 117.201 124.498C117.361 124.692 117.563 124.847 117.807 124.965C118.051 125.075 118.324 125.129 118.627 125.129ZM124.215 120.775L124.316 122.05L124.265 121.848C124.434 121.461 124.707 121.154 125.086 120.927C125.464 120.691 125.902 120.573 126.398 120.573C126.894 120.573 127.298 120.721 127.61 121.015C127.929 121.301 128.093 121.676 128.102 122.138V126H126.915V122.555C126.907 122.269 126.823 122.037 126.663 121.861C126.512 121.676 126.272 121.583 125.944 121.583C125.641 121.583 125.367 121.667 125.123 121.835C124.879 122.004 124.686 122.235 124.543 122.53C124.408 122.824 124.341 123.165 124.341 123.552V126H123.167V120.775H124.215ZM132.313 126.126C131.826 126.126 131.38 126.021 130.976 125.811C130.58 125.6 130.265 125.293 130.029 124.889C129.802 124.477 129.689 123.977 129.689 123.388C129.689 122.807 129.811 122.307 130.055 121.886C130.299 121.457 130.622 121.129 131.026 120.902C131.439 120.674 131.889 120.561 132.377 120.561C132.865 120.561 133.277 120.674 133.613 120.902C133.95 121.12 134.206 121.381 134.383 121.684L134.307 121.886L134.421 120.775H135.506V126H134.333V124.637L134.459 124.94C134.425 125.024 134.35 125.133 134.232 125.268C134.122 125.394 133.971 125.525 133.777 125.659C133.592 125.794 133.378 125.907 133.134 126C132.89 126.084 132.616 126.126 132.313 126.126ZM132.629 125.154C132.923 125.154 133.188 125.1 133.424 124.99C133.66 124.881 133.853 124.73 134.005 124.536C134.164 124.334 134.274 124.094 134.333 123.817V122.795C134.265 122.542 134.148 122.323 133.979 122.138C133.811 121.945 133.609 121.798 133.374 121.697C133.138 121.587 132.877 121.533 132.591 121.533C132.28 121.533 131.994 121.608 131.733 121.76C131.472 121.911 131.262 122.121 131.102 122.391C130.951 122.66 130.875 122.975 130.875 123.337C130.875 123.674 130.955 123.981 131.115 124.258C131.274 124.536 131.489 124.755 131.758 124.915C132.027 125.075 132.318 125.154 132.629 125.154ZM137.537 120.775H138.711V126H137.537V120.775ZM137.449 118.882C137.449 118.697 137.521 118.542 137.664 118.415C137.815 118.289 137.979 118.226 138.156 118.226C138.332 118.226 138.488 118.289 138.623 118.415C138.766 118.542 138.837 118.697 138.837 118.882C138.837 119.076 138.766 119.236 138.623 119.362C138.488 119.48 138.332 119.539 138.156 119.539C137.979 119.539 137.815 119.475 137.664 119.349C137.521 119.223 137.449 119.067 137.449 118.882ZM140.742 116.232H141.915V126H140.742V116.232Z" fill="#262626"/>
<path d="M59.9214 133.748H61.2943V139H60.5201V134.49H59.9214V133.748ZM62.5481 139C62.8887 138.67 63.2133 138.346 63.5219 138.026C63.8305 137.707 64.1072 137.398 64.3519 137.1C64.602 136.802 64.7989 136.515 64.9426 136.238C65.0862 135.956 65.1581 135.685 65.1581 135.424C65.1581 135.249 65.1288 135.1 65.0703 134.977C65.0117 134.85 64.9346 134.746 64.8388 134.666C64.7484 134.586 64.6446 134.528 64.5275 134.49C64.4105 134.448 64.2908 134.427 64.1684 134.427C63.9928 134.427 63.8438 134.456 63.7214 134.514C63.599 134.568 63.4979 134.639 63.4181 134.73C63.3436 134.82 63.2878 134.916 63.2505 135.017C63.2186 135.118 63.2026 135.219 63.2026 135.321C63.2026 135.496 63.2292 135.656 63.2824 135.799C63.3356 135.938 63.4128 136.06 63.5139 136.167L63.035 136.59C62.9126 136.51 62.8062 136.398 62.7158 136.254C62.6306 136.111 62.5641 135.956 62.5162 135.791C62.4737 135.621 62.4524 135.47 62.4524 135.337C62.4524 135.049 62.5215 134.78 62.6599 134.53C62.8036 134.275 63.0111 134.07 63.2824 133.916C63.5591 133.762 63.8943 133.684 64.2881 133.684C64.6233 133.684 64.916 133.762 65.1661 133.916C65.4161 134.07 65.6104 134.275 65.7487 134.53C65.887 134.78 65.9562 135.057 65.9562 135.36C65.9562 135.627 65.903 135.887 65.7966 136.143C65.6902 136.398 65.5465 136.651 65.3656 136.901C65.19 137.151 64.9931 137.398 64.775 137.643C64.5621 137.883 64.3493 138.125 64.1365 138.369L63.8012 138.258H66.1318V139H62.5481ZM66.6979 137.348C66.6979 137.076 66.7484 136.842 66.8495 136.645C66.9559 136.449 67.0863 136.284 67.2406 136.151C67.4002 136.012 67.5625 135.909 67.7275 135.839C67.5678 135.738 67.4348 135.613 67.3284 135.464C67.2273 135.315 67.1767 135.124 67.1767 134.89C67.1767 134.655 67.2353 134.448 67.3523 134.267C67.4747 134.086 67.6397 133.945 67.8472 133.844C68.0547 133.738 68.2915 133.684 68.5575 133.684C68.8183 133.684 69.0524 133.738 69.2599 133.844C69.4674 133.945 69.6324 134.083 69.7547 134.259C69.8771 134.435 69.9383 134.634 69.9383 134.858C69.9383 135.108 69.8851 135.307 69.7787 135.456C69.6776 135.605 69.5472 135.733 69.3876 135.839C69.5526 135.914 69.7148 136.02 69.8745 136.159C70.0341 136.292 70.1645 136.457 70.2656 136.653C70.372 136.85 70.4252 137.082 70.4252 137.348C70.4252 137.651 70.3401 137.933 70.1698 138.194C70.0048 138.455 69.7814 138.665 69.4993 138.824C69.2227 138.984 68.9061 139.064 68.5496 139.064C68.1931 139.064 67.8765 138.984 67.5998 138.824C67.3231 138.665 67.1023 138.455 66.9373 138.194C66.7777 137.933 66.6979 137.651 66.6979 137.348ZM67.488 137.308C67.488 137.51 67.5359 137.694 67.6317 137.859C67.7275 138.024 67.8552 138.157 68.0148 138.258C68.1744 138.359 68.3527 138.409 68.5496 138.409C68.7518 138.409 68.9353 138.359 69.1003 138.258C69.2705 138.157 69.4036 138.024 69.4993 137.859C69.6004 137.694 69.651 137.513 69.651 137.316C69.651 137.114 69.6031 136.933 69.5073 136.773C69.4115 136.608 69.2812 136.475 69.1162 136.374C68.9566 136.273 68.7784 136.222 68.5815 136.222C68.3846 136.217 68.2037 136.265 68.0387 136.366C67.8738 136.462 67.7408 136.592 67.6397 136.757C67.5386 136.922 67.488 137.106 67.488 137.308ZM67.927 134.985C67.927 135.15 67.9909 135.291 68.1186 135.408C68.2516 135.52 68.4032 135.576 68.5735 135.576C68.7438 135.576 68.8901 135.52 69.0125 135.408C69.1402 135.291 69.204 135.15 69.204 134.985C69.204 134.794 69.1402 134.637 69.0125 134.514C68.8901 134.392 68.7438 134.331 68.5735 134.331C68.3979 134.331 68.2463 134.392 68.1186 134.514C67.9909 134.637 67.927 134.794 67.927 134.985ZM73.1424 139.024C72.8178 139.024 72.5198 138.963 72.2484 138.84C71.9771 138.718 71.743 138.542 71.5461 138.314C71.3545 138.079 71.2055 137.797 71.0991 137.468C70.9927 137.138 70.9395 136.768 70.9395 136.358C70.9395 135.911 70.99 135.523 71.0911 135.193C71.1922 134.858 71.3386 134.578 71.5301 134.355C71.727 134.131 71.9611 133.966 72.2325 133.86C72.5039 133.748 72.8071 133.692 73.1424 133.692C73.4669 133.692 73.7623 133.754 74.0283 133.876C74.2997 133.998 74.5311 134.177 74.7227 134.411C74.9196 134.639 75.0712 134.919 75.1776 135.249C75.2894 135.573 75.3452 135.943 75.3452 136.358C75.3452 136.779 75.2894 137.154 75.1776 137.484C75.0712 137.813 74.9196 138.093 74.7227 138.322C74.5311 138.55 74.2997 138.726 74.0283 138.848C73.7623 138.965 73.4669 139.024 73.1424 139.024ZM73.1344 138.282C73.443 138.282 73.7011 138.202 73.9086 138.042C74.1214 137.877 74.281 137.648 74.3875 137.356C74.4939 137.063 74.5471 136.725 74.5471 136.342C74.5471 135.959 74.4939 135.627 74.3875 135.345C74.281 135.057 74.1214 134.834 73.9086 134.674C73.7011 134.514 73.443 134.435 73.1344 134.435C72.8258 134.435 72.5677 134.517 72.3602 134.682C72.1527 134.842 71.9957 135.065 71.8893 135.352C71.7882 135.64 71.7376 135.975 71.7376 136.358C71.7376 136.736 71.7882 137.071 71.8893 137.364C71.9957 137.651 72.1527 137.877 72.3602 138.042C72.5677 138.202 72.8258 138.282 73.1344 138.282ZM80.0419 136.925L80.8321 135.696H81.5823L80.3133 137.468L80.0419 136.925ZM81.71 139H80.8161L78.302 135.696H79.2198L81.71 139ZM79.9621 137.771L79.0921 139H78.3419L79.603 137.276L79.9621 137.771ZM88.0653 133.748L85.9661 139H85.0962L86.9878 134.379L87.2591 134.49H84.6332V133.748H88.0653ZM88.7138 139C89.0543 138.67 89.3789 138.346 89.6875 138.026C89.9962 137.707 90.2728 137.398 90.5176 137.1C90.7677 136.802 90.9646 136.515 91.1082 136.238C91.2519 135.956 91.3237 135.685 91.3237 135.424C91.3237 135.249 91.2945 135.1 91.2359 134.977C91.1774 134.85 91.1003 134.746 91.0045 134.666C90.914 134.586 90.8103 134.528 90.6932 134.49C90.5761 134.448 90.4564 134.427 90.334 134.427C90.1584 134.427 90.0095 134.456 89.8871 134.514C89.7647 134.568 89.6636 134.639 89.5838 134.73C89.5093 134.82 89.4534 134.916 89.4162 135.017C89.3842 135.118 89.3683 135.219 89.3683 135.321C89.3683 135.496 89.3949 135.656 89.4481 135.799C89.5013 135.938 89.5785 136.06 89.6796 136.167L89.2007 136.59C89.0783 136.51 88.9719 136.398 88.8814 136.254C88.7963 136.111 88.7298 135.956 88.6819 135.791C88.6393 135.621 88.618 135.47 88.618 135.337C88.618 135.049 88.6872 134.78 88.8255 134.53C88.9692 134.275 89.1767 134.07 89.4481 133.916C89.7248 133.762 90.06 133.684 90.4538 133.684C90.789 133.684 91.0816 133.762 91.3317 133.916C91.5818 134.07 91.776 134.275 91.9144 134.53C92.0527 134.78 92.1219 135.057 92.1219 135.36C92.1219 135.627 92.0687 135.887 91.9622 136.143C91.8558 136.398 91.7122 136.651 91.5313 136.901C91.3557 137.151 91.1588 137.398 90.9406 137.643C90.7278 137.883 90.5149 138.125 90.3021 138.369L89.9669 138.258H92.2975V139H88.7138ZM95.1302 139.024C94.8057 139.024 94.5077 138.963 94.2363 138.84C93.965 138.718 93.7308 138.542 93.534 138.314C93.3424 138.079 93.1934 137.797 93.087 137.468C92.9806 137.138 92.9274 136.768 92.9274 136.358C92.9274 135.911 92.9779 135.523 93.079 135.193C93.1801 134.858 93.3264 134.578 93.518 134.355C93.7149 134.131 93.949 133.966 94.2204 133.86C94.4917 133.748 94.795 133.692 95.1302 133.692C95.4548 133.692 95.7501 133.754 96.0162 133.876C96.2876 133.998 96.519 134.177 96.7106 134.411C96.9074 134.639 97.0591 134.919 97.1655 135.249C97.2773 135.573 97.3331 135.943 97.3331 136.358C97.3331 136.779 97.2773 137.154 97.1655 137.484C97.0591 137.813 96.9074 138.093 96.7106 138.322C96.519 138.55 96.2876 138.726 96.0162 138.848C95.7501 138.965 95.4548 139.024 95.1302 139.024ZM95.1223 138.282C95.4309 138.282 95.6889 138.202 95.8965 138.042C96.1093 137.877 96.2689 137.648 96.3754 137.356C96.4818 137.063 96.535 136.725 96.535 136.342C96.535 135.959 96.4818 135.627 96.3754 135.345C96.2689 135.057 96.1093 134.834 95.8965 134.674C95.6889 134.514 95.4309 134.435 95.1223 134.435C94.8137 134.435 94.5556 134.517 94.3481 134.682C94.1406 134.842 93.9836 135.065 93.8772 135.352C93.7761 135.64 93.7255 135.975 93.7255 136.358C93.7255 136.736 93.7761 137.071 93.8772 137.364C93.9836 137.651 94.1406 137.877 94.3481 138.042C94.5556 138.202 94.8137 138.282 95.1223 138.282ZM102.732 139.08C102.482 139.08 102.24 139.021 102.006 138.904C101.777 138.787 101.599 138.63 101.471 138.433L101.519 138.202V140.588H100.785V135.648H101.423L101.527 136.494L101.447 136.262C101.607 136.06 101.809 135.893 102.054 135.76C102.299 135.627 102.573 135.56 102.876 135.56C103.184 135.56 103.461 135.634 103.706 135.783C103.956 135.932 104.153 136.14 104.297 136.406C104.44 136.672 104.512 136.983 104.512 137.34C104.512 137.696 104.435 138.005 104.281 138.266C104.126 138.526 103.913 138.729 103.642 138.872C103.376 139.011 103.073 139.08 102.732 139.08ZM102.589 138.489C102.801 138.489 102.996 138.441 103.171 138.346C103.352 138.244 103.496 138.109 103.602 137.938C103.709 137.763 103.762 137.566 103.762 137.348C103.762 137.124 103.711 136.927 103.61 136.757C103.509 136.582 103.373 136.443 103.203 136.342C103.038 136.241 102.852 136.191 102.644 136.191C102.453 136.191 102.28 136.228 102.126 136.302C101.971 136.377 101.844 136.481 101.742 136.614C101.641 136.741 101.57 136.89 101.527 137.061V137.611C101.554 137.782 101.617 137.933 101.719 138.066C101.82 138.199 101.945 138.303 102.094 138.377C102.248 138.452 102.413 138.489 102.589 138.489ZM106.683 136.925L107.473 135.696H108.223L106.954 137.468L106.683 136.925ZM108.351 139H107.457L104.943 135.696H105.861L108.351 139ZM106.603 137.771L105.733 139H104.983L106.244 137.276L106.603 137.771Z" fill="#262626"/>
<path d="M59.9214 133.748H61.2943V139H60.5201V134.49H59.9214V133.748ZM62.5481 139C62.8887 138.67 63.2133 138.346 63.5219 138.026C63.8305 137.707 64.1072 137.398 64.3519 137.1C64.602 136.802 64.7989 136.515 64.9426 136.238C65.0862 135.956 65.1581 135.685 65.1581 135.424C65.1581 135.249 65.1288 135.1 65.0703 134.977C65.0117 134.85 64.9346 134.746 64.8388 134.666C64.7484 134.586 64.6446 134.528 64.5275 134.49C64.4105 134.448 64.2908 134.427 64.1684 134.427C63.9928 134.427 63.8438 134.456 63.7214 134.514C63.599 134.568 63.4979 134.639 63.4181 134.73C63.3436 134.82 63.2878 134.916 63.2505 135.017C63.2186 135.118 63.2026 135.219 63.2026 135.321C63.2026 135.496 63.2292 135.656 63.2824 135.799C63.3356 135.938 63.4128 136.06 63.5139 136.167L63.035 136.59C62.9126 136.51 62.8062 136.398 62.7158 136.254C62.6306 136.111 62.5641 135.956 62.5162 135.791C62.4737 135.621 62.4524 135.47 62.4524 135.337C62.4524 135.049 62.5215 134.78 62.6599 134.53C62.8036 134.275 63.0111 134.07 63.2824 133.916C63.5591 133.762 63.8943 133.684 64.2881 133.684C64.6233 133.684 64.916 133.762 65.1661 133.916C65.4161 134.07 65.6104 134.275 65.7487 134.53C65.887 134.78 65.9562 135.057 65.9562 135.36C65.9562 135.627 65.903 135.887 65.7966 136.143C65.6902 136.398 65.5465 136.651 65.3656 136.901C65.19 137.151 64.9931 137.398 64.775 137.643C64.5621 137.883 64.3493 138.125 64.1365 138.369L63.8012 138.258H66.1318V139H62.5481ZM66.6979 137.348C66.6979 137.076 66.7484 136.842 66.8495 136.645C66.9559 136.449 67.0863 136.284 67.2406 136.151C67.4002 136.012 67.5625 135.909 67.7275 135.839C67.5678 135.738 67.4348 135.613 67.3284 135.464C67.2273 135.315 67.1767 135.124 67.1767 134.89C67.1767 134.655 67.2353 134.448 67.3523 134.267C67.4747 134.086 67.6397 133.945 67.8472 133.844C68.0547 133.738 68.2915 133.684 68.5575 133.684C68.8183 133.684 69.0524 133.738 69.2599 133.844C69.4674 133.945 69.6324 134.083 69.7547 134.259C69.8771 134.435 69.9383 134.634 69.9383 134.858C69.9383 135.108 69.8851 135.307 69.7787 135.456C69.6776 135.605 69.5472 135.733 69.3876 135.839C69.5526 135.914 69.7148 136.02 69.8745 136.159C70.0341 136.292 70.1645 136.457 70.2656 136.653C70.372 136.85 70.4252 137.082 70.4252 137.348C70.4252 137.651 70.3401 137.933 70.1698 138.194C70.0048 138.455 69.7814 138.665 69.4993 138.824C69.2227 138.984 68.9061 139.064 68.5496 139.064C68.1931 139.064 67.8765 138.984 67.5998 138.824C67.3231 138.665 67.1023 138.455 66.9373 138.194C66.7777 137.933 66.6979 137.651 66.6979 137.348ZM67.488 137.308C67.488 137.51 67.5359 137.694 67.6317 137.859C67.7275 138.024 67.8552 138.157 68.0148 138.258C68.1744 138.359 68.3527 138.409 68.5496 138.409C68.7518 138.409 68.9353 138.359 69.1003 138.258C69.2705 138.157 69.4036 138.024 69.4993 137.859C69.6004 137.694 69.651 137.513 69.651 137.316C69.651 137.114 69.6031 136.933 69.5073 136.773C69.4115 136.608 69.2812 136.475 69.1162 136.374C68.9566 136.273 68.7784 136.222 68.5815 136.222C68.3846 136.217 68.2037 136.265 68.0387 136.366C67.8738 136.462 67.7408 136.592 67.6397 136.757C67.5386 136.922 67.488 137.106 67.488 137.308ZM67.927 134.985C67.927 135.15 67.9909 135.291 68.1186 135.408C68.2516 135.52 68.4032 135.576 68.5735 135.576C68.7438 135.576 68.8901 135.52 69.0125 135.408C69.1402 135.291 69.204 135.15 69.204 134.985C69.204 134.794 69.1402 134.637 69.0125 134.514C68.8901 134.392 68.7438 134.331 68.5735 134.331C68.3979 134.331 68.2463 134.392 68.1186 134.514C67.9909 134.637 67.927 134.794 67.927 134.985ZM73.1424 139.024C72.8178 139.024 72.5198 138.963 72.2484 138.84C71.9771 138.718 71.743 138.542 71.5461 138.314C71.3545 138.079 71.2055 137.797 71.0991 137.468C70.9927 137.138 70.9395 136.768 70.9395 136.358C70.9395 135.911 70.99 135.523 71.0911 135.193C71.1922 134.858 71.3386 134.578 71.5301 134.355C71.727 134.131 71.9611 133.966 72.2325 133.86C72.5039 133.748 72.8071 133.692 73.1424 133.692C73.4669 133.692 73.7623 133.754 74.0283 133.876C74.2997 133.998 74.5311 134.177 74.7227 134.411C74.9196 134.639 75.0712 134.919 75.1776 135.249C75.2894 135.573 75.3452 135.943 75.3452 136.358C75.3452 136.779 75.2894 137.154 75.1776 137.484C75.0712 137.813 74.9196 138.093 74.7227 138.322C74.5311 138.55 74.2997 138.726 74.0283 138.848C73.7623 138.965 73.4669 139.024 73.1424 139.024ZM73.1344 138.282C73.443 138.282 73.7011 138.202 73.9086 138.042C74.1214 137.877 74.281 137.648 74.3875 137.356C74.4939 137.063 74.5471 136.725 74.5471 136.342C74.5471 135.959 74.4939 135.627 74.3875 135.345C74.281 135.057 74.1214 134.834 73.9086 134.674C73.7011 134.514 73.443 134.435 73.1344 134.435C72.8258 134.435 72.5677 134.517 72.3602 134.682C72.1527 134.842 71.9957 135.065 71.8893 135.352C71.7882 135.64 71.7376 135.975 71.7376 136.358C71.7376 136.736 71.7882 137.071 71.8893 137.364C71.9957 137.651 72.1527 137.877 72.3602 138.042C72.5677 138.202 72.8258 138.282 73.1344 138.282ZM80.0419 136.925L80.8321 135.696H81.5823L80.3133 137.468L80.0419 136.925ZM81.71 139H80.8161L78.302 135.696H79.2198L81.71 139ZM79.9621 137.771L79.0921 139H78.3419L79.603 137.276L79.9621 137.771ZM88.0653 133.748L85.9661 139H85.0962L86.9878 134.379L87.2591 134.49H84.6332V133.748H88.0653ZM88.7138 139C89.0543 138.67 89.3789 138.346 89.6875 138.026C89.9962 137.707 90.2728 137.398 90.5176 137.1C90.7677 136.802 90.9646 136.515 91.1082 136.238C91.2519 135.956 91.3237 135.685 91.3237 135.424C91.3237 135.249 91.2945 135.1 91.2359 134.977C91.1774 134.85 91.1003 134.746 91.0045 134.666C90.914 134.586 90.8103 134.528 90.6932 134.49C90.5761 134.448 90.4564 134.427 90.334 134.427C90.1584 134.427 90.0095 134.456 89.8871 134.514C89.7647 134.568 89.6636 134.639 89.5838 134.73C89.5093 134.82 89.4534 134.916 89.4162 135.017C89.3842 135.118 89.3683 135.219 89.3683 135.321C89.3683 135.496 89.3949 135.656 89.4481 135.799C89.5013 135.938 89.5785 136.06 89.6796 136.167L89.2007 136.59C89.0783 136.51 88.9719 136.398 88.8814 136.254C88.7963 136.111 88.7298 135.956 88.6819 135.791C88.6393 135.621 88.618 135.47 88.618 135.337C88.618 135.049 88.6872 134.78 88.8255 134.53C88.9692 134.275 89.1767 134.07 89.4481 133.916C89.7248 133.762 90.06 133.684 90.4538 133.684C90.789 133.684 91.0816 133.762 91.3317 133.916C91.5818 134.07 91.776 134.275 91.9144 134.53C92.0527 134.78 92.1219 135.057 92.1219 135.36C92.1219 135.627 92.0687 135.887 91.9622 136.143C91.8558 136.398 91.7122 136.651 91.5313 136.901C91.3557 137.151 91.1588 137.398 90.9406 137.643C90.7278 137.883 90.5149 138.125 90.3021 138.369L89.9669 138.258H92.2975V139H88.7138ZM95.1302 139.024C94.8057 139.024 94.5077 138.963 94.2363 138.84C93.965 138.718 93.7308 138.542 93.534 138.314C93.3424 138.079 93.1934 137.797 93.087 137.468C92.9806 137.138 92.9274 136.768 92.9274 136.358C92.9274 135.911 92.9779 135.523 93.079 135.193C93.1801 134.858 93.3264 134.578 93.518 134.355C93.7149 134.131 93.949 133.966 94.2204 133.86C94.4917 133.748 94.795 133.692 95.1302 133.692C95.4548 133.692 95.7501 133.754 96.0162 133.876C96.2876 133.998 96.519 134.177 96.7106 134.411C96.9074 134.639 97.0591 134.919 97.1655 135.249C97.2773 135.573 97.3331 135.943 97.3331 136.358C97.3331 136.779 97.2773 137.154 97.1655 137.484C97.0591 137.813 96.9074 138.093 96.7106 138.322C96.519 138.55 96.2876 138.726 96.0162 138.848C95.7501 138.965 95.4548 139.024 95.1302 139.024ZM95.1223 138.282C95.4309 138.282 95.6889 138.202 95.8965 138.042C96.1093 137.877 96.2689 137.648 96.3754 137.356C96.4818 137.063 96.535 136.725 96.535 136.342C96.535 135.959 96.4818 135.627 96.3754 135.345C96.2689 135.057 96.1093 134.834 95.8965 134.674C95.6889 134.514 95.4309 134.435 95.1223 134.435C94.8137 134.435 94.5556 134.517 94.3481 134.682C94.1406 134.842 93.9836 135.065 93.8772 135.352C93.7761 135.64 93.7255 135.975 93.7255 136.358C93.7255 136.736 93.7761 137.071 93.8772 137.364C93.9836 137.651 94.1406 137.877 94.3481 138.042C94.5556 138.202 94.8137 138.282 95.1223 138.282ZM102.732 139.08C102.482 139.08 102.24 139.021 102.006 138.904C101.777 138.787 101.599 138.63 101.471 138.433L101.519 138.202V140.588H100.785V135.648H101.423L101.527 136.494L101.447 136.262C101.607 136.06 101.809 135.893 102.054 135.76C102.299 135.627 102.573 135.56 102.876 135.56C103.184 135.56 103.461 135.634 103.706 135.783C103.956 135.932 104.153 136.14 104.297 136.406C104.44 136.672 104.512 136.983 104.512 137.34C104.512 137.696 104.435 138.005 104.281 138.266C104.126 138.526 103.913 138.729 103.642 138.872C103.376 139.011 103.073 139.08 102.732 139.08ZM102.589 138.489C102.801 138.489 102.996 138.441 103.171 138.346C103.352 138.244 103.496 138.109 103.602 137.938C103.709 137.763 103.762 137.566 103.762 137.348C103.762 137.124 103.711 136.927 103.61 136.757C103.509 136.582 103.373 136.443 103.203 136.342C103.038 136.241 102.852 136.191 102.644 136.191C102.453 136.191 102.28 136.228 102.126 136.302C101.971 136.377 101.844 136.481 101.742 136.614C101.641 136.741 101.57 136.89 101.527 137.061V137.611C101.554 137.782 101.617 137.933 101.719 138.066C101.82 138.199 101.945 138.303 102.094 138.377C102.248 138.452 102.413 138.489 102.589 138.489ZM106.683 136.925L107.473 135.696H108.223L106.954 137.468L106.683 136.925ZM108.351 139H107.457L104.943 135.696H105.861L108.351 139ZM106.603 137.771L105.733 139H104.983L106.244 137.276L106.603 137.771Z" fill="#262626"/>
<rect x="46.75" y="53.75" width="76.5" height="54.5" rx="4.25" fill="#F5F5F5" stroke="#4A47D9" stroke-width="1.5"/>
<rect x="46.75" y="53.75" width="76.5" height="54.5" rx="4.25" fill="#F5F5F5" stroke="#4A47D9" stroke-width="1.5"/>
<path d="M100.975 82.4505L73.5051 98.3625L73.3562 98.4487L72.8879 98.7199C72.7895 98.7768 72.6892 98.8228 72.588 98.8579C72.5835 98.8598 72.5793 98.8614 72.5749 98.8627C72.2487 98.9742 71.9127 98.9787 71.6028 98.8972C71.438 98.8541 71.2808 98.7867 71.1361 98.6979C70.6553 98.4037 70.3154 97.876 70.3154 97.23V86.9732C70.3183 86.9722 70.3212 86.9712 70.3241 86.97C70.8317 86.7879 71.3396 86.6055 71.8472 86.4231C78.8411 83.9119 85.8347 81.4008 92.8283 78.8896H92.8286C93.5167 78.6424 94.2044 78.3954 94.8925 78.1485C95.181 78.0447 95.4691 77.9412 95.7576 77.8377C96.6607 77.5135 97.6605 77.6003 98.4939 78.0763C99.3897 78.5874 100.285 79.0985 101.181 79.6096C102.114 80.3409 102.046 81.8307 100.975 82.4505Z" fill="#312F8D"/>
<path d="M94.4331 76.6397C94.4331 76.6428 94.4331 76.6457 94.4328 76.6489C94.4325 76.7492 94.4232 76.8473 94.406 76.9428L91.3831 77.6977L74.6122 81.8859L73.6417 82.1283L73.0137 82.2852L72.6901 82.366L72.6566 82.3743L72.3042 82.4625L72.3017 82.4631L72.2934 82.465C72.2934 82.465 72.2905 82.4657 72.2851 82.467C72.2276 82.4794 71.8749 82.5465 71.4593 82.4043C71.4456 82.3999 71.4315 82.3948 71.4171 82.3893C71.4143 82.3884 71.4114 82.3874 71.4085 82.3861C71.406 82.3852 71.4034 82.3842 71.4008 82.3829C71.3983 82.382 71.3957 82.381 71.3932 82.3801C71.3753 82.373 71.3577 82.3657 71.3405 82.358C71.3376 82.3571 71.3357 82.3561 71.3328 82.3552C71.314 82.3472 71.2951 82.3382 71.2759 82.329C71.2612 82.3219 71.2462 82.3143 71.2315 82.3066C71.2172 82.2989 71.2025 82.2913 71.1881 82.283C71.1724 82.2743 71.1571 82.2654 71.1418 82.2561C71.1341 82.2517 71.1268 82.2469 71.1191 82.2421C71.1117 82.2373 71.1041 82.2325 71.0967 82.228C71.0942 82.2264 71.0913 82.2245 71.0887 82.2226C71.0785 82.2159 71.0683 82.2088 71.0581 82.2018C71.045 82.1929 71.0322 82.1839 71.0194 82.1743C70.9974 82.1584 70.9753 82.1414 70.9533 82.1236C70.8945 82.0769 70.8393 82.0264 70.7888 81.9725C70.7837 81.9673 70.7789 81.9619 70.7744 81.9568L70.8993 81.684L70.9198 81.6396L70.9629 81.5457L71.5928 80.1711L72.0908 79.0847L75.5686 71.4972L80.1629 70.4319L81.7128 70.0725L82.8306 69.8134C83.4797 69.663 84.1617 69.7649 84.7389 70.0984C87.582 71.7387 90.4254 73.3788 93.2684 75.0191C93.4623 75.1309 93.6565 75.2427 93.8504 75.3548C94.2073 75.6679 94.4331 76.1276 94.4331 76.6397Z" fill="#3F45AA"/>
<path d="M94.4331 76.6397C94.4331 76.6428 94.4331 76.6457 94.4328 76.6489C94.4325 76.7492 94.4232 76.8473 94.406 76.9428L91.3831 77.6977L74.6122 81.8859L73.6417 82.1283L73.0137 82.2852L72.6901 82.366L72.6566 82.3743L72.3042 82.4625L72.3017 82.4631L72.2934 82.465C72.2934 82.465 72.2905 82.4657 72.2851 82.467C72.2276 82.4794 71.8749 82.5465 71.4593 82.4043C71.4456 82.3999 71.4315 82.3948 71.4171 82.3893C71.4143 82.3884 71.4114 82.3874 71.4085 82.3861C71.406 82.3852 71.4034 82.3842 71.4008 82.3829C71.3983 82.382 71.3957 82.381 71.3932 82.3801C71.3753 82.373 71.3577 82.3657 71.3405 82.358C71.3376 82.3571 71.3357 82.3561 71.3328 82.3552C71.314 82.3472 71.2951 82.3382 71.2759 82.329C71.2612 82.3219 71.2462 82.3143 71.2315 82.3066C71.2172 82.2989 71.2025 82.2913 71.1881 82.283C71.1724 82.2743 71.1571 82.2654 71.1418 82.2561C71.1341 82.2517 71.1268 82.2469 71.1191 82.2421C71.1117 82.2373 71.1041 82.2325 71.0967 82.228C71.0942 82.2264 71.0913 82.2245 71.0887 82.2226C71.0785 82.2159 71.0683 82.2088 71.0581 82.2018C71.045 82.1929 71.0322 82.1839 71.0194 82.1743C70.9974 82.1584 70.9753 82.1414 70.9533 82.1236C70.8945 82.0769 70.8393 82.0264 70.7888 81.9725C70.7837 81.9673 70.7789 81.9619 70.7744 81.9568L70.8993 81.684L70.9198 81.6396L70.9629 81.5457L71.5928 80.1711L72.0908 79.0847L75.5686 71.4972L80.1629 70.4319L81.7128 70.0725L82.8306 69.8134C83.4797 69.663 84.1617 69.7649 84.7389 70.0984C87.582 71.7387 90.4254 73.3788 93.2684 75.0191C93.4623 75.1309 93.6565 75.2427 93.8504 75.3548C94.2073 75.6679 94.4331 76.1276 94.4331 76.6397Z" fill="#312F8D"/>
<g opacity="0.25">
<path d="M94.8919 78.1485L94.1055 78.8896L73.6121 98.2066L73.3556 98.4484L72.8873 98.7196C72.7963 98.7803 72.7043 98.8285 72.6116 98.8659C72.6072 98.8678 72.6027 98.8697 72.5982 98.8713C72.5902 98.8685 72.5823 98.8653 72.5743 98.8624C72.5018 98.8346 72.4315 98.8017 72.3634 98.7643C72.3612 98.763 72.359 98.7621 72.3571 98.7611C72.3535 98.7592 72.351 98.7579 72.3497 98.7573C72.3491 98.757 72.3487 98.7567 72.3487 98.7567C72.328 98.7455 72.3075 98.7333 72.2871 98.7209C72.2871 98.7209 72.2869 98.7209 72.2865 98.7206C72.2577 98.703 72.2293 98.6848 72.2015 98.6656C72.2012 98.6656 72.2008 98.6653 72.2008 98.665C72.1338 98.6187 72.0702 98.5675 72.0101 98.5123C71.8996 98.4101 71.8019 98.2931 71.7207 98.1635C71.5597 97.9066 71.4648 97.6 71.4648 97.2607V87.8305C71.4648 87.5466 71.5083 87.2654 71.5926 86.9965C71.5955 86.9875 71.5984 86.9789 71.6012 86.97C71.6629 86.7805 71.7447 86.5968 71.8466 86.4231C71.8549 86.4081 71.8638 86.3934 71.8728 86.3787L74.3079 82.278L74.9468 82.1182L75.8898 81.886L92.521 77.4917L94.3952 76.9966C94.323 77.3374 94.1486 77.6409 93.9061 77.8731C93.9036 77.8757 93.9007 77.8786 93.8978 77.8808L92.828 78.8893C93.5161 78.6424 94.2039 78.3954 94.8919 78.1485Z" fill="black"/>
<path d="M73.612 98.2067C73.5664 98.2642 73.5309 98.3159 73.5044 98.3622L73.3555 98.4485L72.8872 98.7197C72.7962 98.7804 72.7042 98.8286 72.6115 98.866C72.6032 98.8634 72.5952 98.8606 72.5873 98.8577C72.4477 98.8088 72.3601 98.7628 72.3496 98.7574C72.349 98.7571 72.3486 98.7567 72.3486 98.7567L72.364 98.7427L73.2533 97.9307L73.6117 98.2067H73.612Z" fill="black"/>
</g>
<g opacity="0.25">
<path d="M81.7128 70.0726C81.6888 70.108 81.6636 70.1432 81.6371 70.1777C81.5716 70.2626 81.5061 70.3473 81.4406 70.4319C79.0732 73.4951 76.7061 76.4356 74.339 79.4342C74.0704 79.7744 73.8017 80.1153 73.5334 80.4571H73.5331C73.5331 80.4571 73.5328 80.458 73.5324 80.4583C73.1938 80.8893 72.8552 81.3221 72.5166 81.7569C72.4345 81.862 72.3527 81.9677 72.2703 82.0731C72.2572 82.0901 72.2441 82.1067 72.231 82.1236C72.1722 82.077 72.117 82.0265 72.0665 81.9725C72.0614 81.9674 72.0566 81.962 72.0521 81.9569C71.8704 81.7623 71.7343 81.5259 71.6592 81.2633C71.6573 81.2576 71.6563 81.2522 71.6544 81.2455C71.6528 81.24 71.6516 81.2349 71.6503 81.2295C71.6301 81.1563 71.6155 81.0809 71.6059 81.0043C71.5972 80.935 71.5928 80.864 71.5928 80.7925V64.7321C71.5931 63.9795 72.0579 63.3876 72.6693 63.1406C72.6802 63.1448 72.6907 63.1492 72.7016 63.154C75.0661 64.5334 77.4306 65.9128 79.7955 67.2918C80.8155 67.8869 81.0803 69.2427 80.3593 70.1777C80.2938 70.2626 80.2283 70.3473 80.1628 70.4319L81.7128 70.0726Z" fill="black"/>
<path d="M74.3638 82.2893L73.5713 82.465C73.5713 82.465 73.3186 82.5279 72.9781 82.4666L73.0861 82.2893L72.673 82.381C72.6676 82.3787 72.6621 82.3768 72.6567 82.3743C72.6564 82.3746 72.6564 82.3743 72.6564 82.3743C72.5171 82.3184 72.3727 82.2379 72.2312 82.1235L72.2207 82.0363L72.168 81.607L73.5333 80.4573C73.5333 80.4573 73.533 80.4579 73.5326 80.4582C73.5039 80.5052 72.7861 81.6871 73.6419 82.1283C73.648 82.1315 73.654 82.1344 73.6601 82.1376C73.8297 82.2206 74.0591 82.2759 74.3638 82.2893Z" fill="black"/>
</g>
<path d="M80.3597 70.1778C80.2942 70.2628 80.2287 70.3474 80.1633 70.4321C77.7959 73.4952 75.4288 76.4357 73.0617 79.4343C72.793 79.7746 72.5244 80.1154 72.2561 80.4572H72.2557C72.2557 80.4572 72.2554 80.4582 72.2551 80.4585C72.0535 80.715 71.852 80.9722 71.6507 81.2296C71.5133 81.405 71.3763 81.581 71.2393 81.757C71.1441 81.8791 71.0492 82.0014 70.9537 82.1237C70.8949 82.0771 70.8396 82.0266 70.7892 81.9727C70.7841 81.9675 70.7793 81.9621 70.7748 81.957C70.593 81.7625 70.4569 81.5261 70.3819 81.2635C70.38 81.2577 70.379 81.2523 70.3771 81.2456C70.3362 81.1012 70.3154 80.9492 70.3154 80.7926V64.7322C70.3157 63.495 71.5708 62.6932 72.6697 63.1408C72.6806 63.1449 72.6911 63.1494 72.702 63.1542C75.0665 64.5335 77.4311 65.9129 79.7959 67.2919C80.8159 67.8871 81.0807 69.2428 80.3597 70.1778Z" fill="#4A47D9"/>
<path d="M73.0865 82.2895L72.6734 82.3812L72.3048 82.4627L72.3023 82.4633L72.2939 82.4652C72.2939 82.4652 72.2911 82.4659 72.2856 82.4671C72.2281 82.4796 71.8755 82.5467 71.4599 82.4045C71.4461 82.4001 71.4321 82.3949 71.4177 82.3895C71.4123 82.3876 71.4068 82.3854 71.4014 82.3831C71.3989 82.3822 71.3963 82.3812 71.3938 82.3803C71.3739 82.3726 71.3538 82.3643 71.3334 82.3553C71.3145 82.3474 71.2957 82.3384 71.2765 82.3291C71.2618 82.3221 71.2468 82.3145 71.2321 82.3068C71.2177 82.2991 71.203 82.2914 71.1887 82.2831C71.173 82.2745 71.1577 82.2656 71.1423 82.2563C71.1347 82.2518 71.1273 82.247 71.1197 82.2423C71.1098 82.2359 71.0995 82.2295 71.0893 82.2228C71.0791 82.2161 71.0689 82.209 71.0587 82.202C71.0456 82.1931 71.0328 82.1841 71.02 82.1745C70.998 82.1586 70.9759 82.1416 70.9539 82.1237L70.8999 81.6842L70.8906 81.6072L70.9635 81.5459L71.6065 81.0044L72.2559 80.4575C72.2559 80.4575 72.2556 80.4582 72.2553 80.4585C72.2281 80.5026 71.5963 81.543 72.2211 82.0365C72.2368 82.0493 72.2534 82.0614 72.2709 82.0733C72.4358 82.1844 72.675 82.2624 73.0143 82.2854C73.0379 82.287 73.0619 82.2886 73.0865 82.2895Z" fill="#4A47D9"/>
<path d="M94.433 76.6489C94.4327 76.7492 94.4234 76.8473 94.4062 76.9428C94.403 76.9607 94.3995 76.9786 94.3956 76.9965C94.3234 77.3373 94.149 77.6408 93.9066 77.873C93.904 77.8756 93.9011 77.8785 93.8983 77.8807L92.8284 78.8892H92.8281L72.3348 98.2065L72.0106 98.5122L71.6617 98.8409L71.6026 98.8968L71.5665 98.931C71.3234 98.8767 71.1455 98.7939 71.0896 98.7661C71.0842 98.7633 71.0797 98.761 71.0765 98.7594C71.073 98.7575 71.0714 98.7566 71.0714 98.7566C70.8142 98.6141 70.5932 98.4071 70.4367 98.1525C70.2798 97.8979 70.1875 97.5951 70.1875 97.2606V87.8304C70.1875 87.5465 70.2309 87.2653 70.3153 86.9964C70.3182 86.9874 70.321 86.9788 70.3239 86.9699C70.3907 86.7641 70.4814 86.5654 70.5954 86.3786L73.0306 82.2779L73.6694 82.1181L74.6124 81.8859L91.2437 77.4916L94.433 76.6489Z" fill="#4A47D9"/>
<path d="M72.8877 98.7197C72.7966 98.7804 72.7046 98.8286 72.612 98.866C72.6075 98.8679 72.603 98.8698 72.5986 98.8714C72.2248 99.0193 71.8507 98.9947 71.5664 98.9312C71.3233 98.8769 71.1454 98.7941 71.0895 98.7663C71.0841 98.7635 71.0796 98.7612 71.0764 98.7596C71.0729 98.7577 71.0713 98.7567 71.0713 98.7567L71.1358 98.6977L71.721 98.1635L71.9763 97.9307L72.3347 98.2067C72.1433 98.4475 72.1302 98.5871 72.2012 98.6651C72.2012 98.6654 72.2015 98.6657 72.2018 98.6657C72.2232 98.6893 72.2526 98.7072 72.2868 98.7206C72.2868 98.7206 72.287 98.721 72.2874 98.721C72.3111 98.7302 72.3369 98.7373 72.3644 98.7427C72.5794 98.7845 72.8873 98.7197 72.8873 98.7197H72.8877Z" fill="#4A47D9"/>
<path d="M92.1973 77.2307C92.5608 77.1582 92.9272 77.2655 93.1237 77.5182C93.4054 77.8807 93.3217 78.5209 92.8285 78.8892L93.8983 77.8807C94.0108 77.7785 94.2139 77.5658 94.3375 77.2307C94.4896 76.8186 94.4337 76.4592 94.4014 76.3091L92.9 76.9751C92.6659 77.0604 92.4314 77.1454 92.1973 77.2307Z" fill="#2A2F63"/>
<path d="M72.877 82.2725C72.877 82.2725 72.9987 82.2779 73.0306 82.2779L73.0143 82.3054L72.877 82.2725Z" fill="#5F61DD"/>
<path opacity="0.4" d="M72.7217 82.7979L92.5637 77.5992C92.5637 77.5992 93.0613 77.5357 93.2683 77.8462C93.2683 77.8462 93.2236 77.5625 92.9821 77.3804C92.9821 77.3804 92.7371 77.1706 92.2755 77.2166L84.5015 79.2731L74.0308 82.0293L73.0306 82.2778L72.7217 82.7979Z" fill="black"/>
<path d="M100.975 82.4505L73.5051 98.3625L73.3562 98.4487L72.8879 98.7199C72.7895 98.7768 72.6892 98.8228 72.588 98.8579C72.5835 98.8598 72.5793 98.8614 72.5749 98.8627C72.2487 98.9742 71.9127 98.9787 71.6028 98.8972C71.438 98.8541 71.2808 98.7867 71.1361 98.6979C70.6553 98.4037 70.3154 97.876 70.3154 97.23V86.9732C70.3183 86.9722 70.3212 86.9712 70.3241 86.97C70.8317 86.7879 71.3396 86.6055 71.8472 86.4231C78.8411 83.9119 85.8347 81.4008 92.8283 78.8896H92.8286C93.5167 78.6424 94.2044 78.3954 94.8925 78.1485C95.181 78.0447 95.4691 77.9412 95.7576 77.8377C96.6607 77.5135 97.6605 77.6003 98.4939 78.0763C99.3897 78.5874 100.285 79.0985 101.181 79.6096C102.114 80.3409 102.046 81.8307 100.975 82.4505Z" fill="#312F8D"/>
<path d="M94.4331 76.6397C94.4331 76.6428 94.4331 76.6457 94.4328 76.6489C94.4325 76.7492 94.4232 76.8473 94.406 76.9428L91.3831 77.6977L74.6122 81.8859L73.6417 82.1283L73.0137 82.2852L72.6901 82.366L72.6566 82.3743L72.3042 82.4625L72.3017 82.4631L72.2934 82.465C72.2934 82.465 72.2905 82.4657 72.2851 82.467C72.2276 82.4794 71.8749 82.5465 71.4593 82.4043C71.4456 82.3999 71.4315 82.3948 71.4171 82.3893C71.4143 82.3884 71.4114 82.3874 71.4085 82.3861C71.406 82.3852 71.4034 82.3842 71.4008 82.3829C71.3983 82.382 71.3957 82.381 71.3932 82.3801C71.3753 82.373 71.3577 82.3657 71.3405 82.358C71.3376 82.3571 71.3357 82.3561 71.3328 82.3552C71.314 82.3472 71.2951 82.3382 71.2759 82.329C71.2612 82.3219 71.2462 82.3143 71.2315 82.3066C71.2172 82.2989 71.2025 82.2913 71.1881 82.283C71.1724 82.2743 71.1571 82.2654 71.1418 82.2561C71.1341 82.2517 71.1268 82.2469 71.1191 82.2421C71.1117 82.2373 71.1041 82.2325 71.0967 82.228C71.0942 82.2264 71.0913 82.2245 71.0887 82.2226C71.0785 82.2159 71.0683 82.2088 71.0581 82.2018C71.045 82.1929 71.0322 82.1839 71.0194 82.1743C70.9974 82.1584 70.9753 82.1414 70.9533 82.1236C70.8945 82.0769 70.8393 82.0264 70.7888 81.9725C70.7837 81.9673 70.7789 81.9619 70.7744 81.9568L70.8993 81.684L70.9198 81.6396L70.9629 81.5457L71.5928 80.1711L72.0908 79.0847L75.5686 71.4972L80.1629 70.4319L81.7128 70.0725L82.8306 69.8134C83.4797 69.663 84.1617 69.7649 84.7389 70.0984C87.582 71.7387 90.4254 73.3788 93.2684 75.0191C93.4623 75.1309 93.6565 75.2427 93.8504 75.3548C94.2073 75.6679 94.4331 76.1276 94.4331 76.6397Z" fill="#3F45AA"/>
<path d="M94.4331 76.6397C94.4331 76.6428 94.4331 76.6457 94.4328 76.6489C94.4325 76.7492 94.4232 76.8473 94.406 76.9428L91.3831 77.6977L74.6122 81.8859L73.6417 82.1283L73.0137 82.2852L72.6901 82.366L72.6566 82.3743L72.3042 82.4625L72.3017 82.4631L72.2934 82.465C72.2934 82.465 72.2905 82.4657 72.2851 82.467C72.2276 82.4794 71.8749 82.5465 71.4593 82.4043C71.4456 82.3999 71.4315 82.3948 71.4171 82.3893C71.4143 82.3884 71.4114 82.3874 71.4085 82.3861C71.406 82.3852 71.4034 82.3842 71.4008 82.3829C71.3983 82.382 71.3957 82.381 71.3932 82.3801C71.3753 82.373 71.3577 82.3657 71.3405 82.358C71.3376 82.3571 71.3357 82.3561 71.3328 82.3552C71.314 82.3472 71.2951 82.3382 71.2759 82.329C71.2612 82.3219 71.2462 82.3143 71.2315 82.3066C71.2172 82.2989 71.2025 82.2913 71.1881 82.283C71.1724 82.2743 71.1571 82.2654 71.1418 82.2561C71.1341 82.2517 71.1268 82.2469 71.1191 82.2421C71.1117 82.2373 71.1041 82.2325 71.0967 82.228C71.0942 82.2264 71.0913 82.2245 71.0887 82.2226C71.0785 82.2159 71.0683 82.2088 71.0581 82.2018C71.045 82.1929 71.0322 82.1839 71.0194 82.1743C70.9974 82.1584 70.9753 82.1414 70.9533 82.1236C70.8945 82.0769 70.8393 82.0264 70.7888 81.9725C70.7837 81.9673 70.7789 81.9619 70.7744 81.9568L70.8993 81.684L70.9198 81.6396L70.9629 81.5457L71.5928 80.1711L72.0908 79.0847L75.5686 71.4972L80.1629 70.4319L81.7128 70.0725L82.8306 69.8134C83.4797 69.663 84.1617 69.7649 84.7389 70.0984C87.582 71.7387 90.4254 73.3788 93.2684 75.0191C93.4623 75.1309 93.6565 75.2427 93.8504 75.3548C94.2073 75.6679 94.4331 76.1276 94.4331 76.6397Z" fill="#312F8D"/>
<g opacity="0.25">
<path d="M94.8919 78.1485L94.1055 78.8896L73.6121 98.2066L73.3556 98.4484L72.8873 98.7196C72.7963 98.7803 72.7043 98.8285 72.6116 98.8659C72.6072 98.8678 72.6027 98.8697 72.5982 98.8713C72.5902 98.8685 72.5823 98.8653 72.5743 98.8624C72.5018 98.8346 72.4315 98.8017 72.3634 98.7643C72.3612 98.763 72.359 98.7621 72.3571 98.7611C72.3535 98.7592 72.351 98.7579 72.3497 98.7573C72.3491 98.757 72.3487 98.7567 72.3487 98.7567C72.328 98.7455 72.3075 98.7333 72.2871 98.7209C72.2871 98.7209 72.2869 98.7209 72.2865 98.7206C72.2577 98.703 72.2293 98.6848 72.2015 98.6656C72.2012 98.6656 72.2008 98.6653 72.2008 98.665C72.1338 98.6187 72.0702 98.5675 72.0101 98.5123C71.8996 98.4101 71.8019 98.2931 71.7207 98.1635C71.5597 97.9066 71.4648 97.6 71.4648 97.2607V87.8305C71.4648 87.5466 71.5083 87.2654 71.5926 86.9965C71.5955 86.9875 71.5984 86.9789 71.6012 86.97C71.6629 86.7805 71.7447 86.5968 71.8466 86.4231C71.8549 86.4081 71.8638 86.3934 71.8728 86.3787L74.3079 82.278L74.9468 82.1182L75.8898 81.886L92.521 77.4917L94.3952 76.9966C94.323 77.3374 94.1486 77.6409 93.9061 77.8731C93.9036 77.8757 93.9007 77.8786 93.8978 77.8808L92.828 78.8893C93.5161 78.6424 94.2039 78.3954 94.8919 78.1485Z" fill="black"/>
<path d="M73.612 98.2067C73.5664 98.2642 73.5309 98.3159 73.5044 98.3622L73.3555 98.4485L72.8872 98.7197C72.7962 98.7804 72.7042 98.8286 72.6115 98.866C72.6032 98.8634 72.5952 98.8606 72.5873 98.8577C72.4477 98.8088 72.3601 98.7628 72.3496 98.7574C72.349 98.7571 72.3486 98.7567 72.3486 98.7567L72.364 98.7427L73.2533 97.9307L73.6117 98.2067H73.612Z" fill="black"/>
</g>
<g opacity="0.25">
<path d="M81.7128 70.0726C81.6888 70.108 81.6636 70.1432 81.6371 70.1777C81.5716 70.2626 81.5061 70.3473 81.4406 70.4319C79.0732 73.4951 76.7061 76.4356 74.339 79.4342C74.0704 79.7744 73.8017 80.1153 73.5334 80.4571H73.5331C73.5331 80.4571 73.5328 80.458 73.5324 80.4583C73.1938 80.8893 72.8552 81.3221 72.5166 81.7569C72.4345 81.862 72.3527 81.9677 72.2703 82.0731C72.2572 82.0901 72.2441 82.1067 72.231 82.1236C72.1722 82.077 72.117 82.0265 72.0665 81.9725C72.0614 81.9674 72.0566 81.962 72.0521 81.9569C71.8704 81.7623 71.7343 81.5259 71.6592 81.2633C71.6573 81.2576 71.6563 81.2522 71.6544 81.2455C71.6528 81.24 71.6516 81.2349 71.6503 81.2295C71.6301 81.1563 71.6155 81.0809 71.6059 81.0043C71.5972 80.935 71.5928 80.864 71.5928 80.7925V64.7321C71.5931 63.9795 72.0579 63.3876 72.6693 63.1406C72.6802 63.1448 72.6907 63.1492 72.7016 63.154C75.0661 64.5334 77.4306 65.9128 79.7955 67.2918C80.8155 67.8869 81.0803 69.2427 80.3593 70.1777C80.2938 70.2626 80.2283 70.3473 80.1628 70.4319L81.7128 70.0726Z" fill="black"/>
<path d="M74.3638 82.2893L73.5713 82.465C73.5713 82.465 73.3186 82.5279 72.9781 82.4666L73.0861 82.2893L72.673 82.381C72.6676 82.3787 72.6621 82.3768 72.6567 82.3743C72.6564 82.3746 72.6564 82.3743 72.6564 82.3743C72.5171 82.3184 72.3727 82.2379 72.2312 82.1235L72.2207 82.0363L72.168 81.607L73.5333 80.4573C73.5333 80.4573 73.533 80.4579 73.5326 80.4582C73.5039 80.5052 72.7861 81.6871 73.6419 82.1283C73.648 82.1315 73.654 82.1344 73.6601 82.1376C73.8297 82.2206 74.0591 82.2759 74.3638 82.2893Z" fill="black"/>
</g>
<path d="M80.3597 70.1778C80.2942 70.2628 80.2287 70.3474 80.1633 70.4321C77.7959 73.4952 75.4288 76.4357 73.0617 79.4343C72.793 79.7746 72.5244 80.1154 72.2561 80.4572H72.2557C72.2557 80.4572 72.2554 80.4582 72.2551 80.4585C72.0535 80.715 71.852 80.9722 71.6507 81.2296C71.5133 81.405 71.3763 81.581 71.2393 81.757C71.1441 81.8791 71.0492 82.0014 70.9537 82.1237C70.8949 82.0771 70.8396 82.0266 70.7892 81.9727C70.7841 81.9675 70.7793 81.9621 70.7748 81.957C70.593 81.7625 70.4569 81.5261 70.3819 81.2635C70.38 81.2577 70.379 81.2523 70.3771 81.2456C70.3362 81.1012 70.3154 80.9492 70.3154 80.7926V64.7322C70.3157 63.495 71.5708 62.6932 72.6697 63.1408C72.6806 63.1449 72.6911 63.1494 72.702 63.1542C75.0665 64.5335 77.4311 65.9129 79.7959 67.2919C80.8159 67.8871 81.0807 69.2428 80.3597 70.1778Z" fill="#4A47D9"/>
<path d="M73.0865 82.2895L72.6734 82.3812L72.3048 82.4627L72.3023 82.4633L72.2939 82.4652C72.2939 82.4652 72.2911 82.4659 72.2856 82.4671C72.2281 82.4796 71.8755 82.5467 71.4599 82.4045C71.4461 82.4001 71.4321 82.3949 71.4177 82.3895C71.4123 82.3876 71.4068 82.3854 71.4014 82.3831C71.3989 82.3822 71.3963 82.3812 71.3938 82.3803C71.3739 82.3726 71.3538 82.3643 71.3334 82.3553C71.3145 82.3474 71.2957 82.3384 71.2765 82.3291C71.2618 82.3221 71.2468 82.3145 71.2321 82.3068C71.2177 82.2991 71.203 82.2914 71.1887 82.2831C71.173 82.2745 71.1577 82.2656 71.1423 82.2563C71.1347 82.2518 71.1273 82.247 71.1197 82.2423C71.1098 82.2359 71.0995 82.2295 71.0893 82.2228C71.0791 82.2161 71.0689 82.209 71.0587 82.202C71.0456 82.1931 71.0328 82.1841 71.02 82.1745C70.998 82.1586 70.9759 82.1416 70.9539 82.1237L70.8999 81.6842L70.8906 81.6072L70.9635 81.5459L71.6065 81.0044L72.2559 80.4575C72.2559 80.4575 72.2556 80.4582 72.2553 80.4585C72.2281 80.5026 71.5963 81.543 72.2211 82.0365C72.2368 82.0493 72.2534 82.0614 72.2709 82.0733C72.4358 82.1844 72.675 82.2624 73.0143 82.2854C73.0379 82.287 73.0619 82.2886 73.0865 82.2895Z" fill="#4A47D9"/>
<path d="M94.433 76.6489C94.4327 76.7492 94.4234 76.8473 94.4062 76.9428C94.403 76.9607 94.3995 76.9786 94.3956 76.9965C94.3234 77.3373 94.149 77.6408 93.9066 77.873C93.904 77.8756 93.9011 77.8785 93.8983 77.8807L92.8284 78.8892H92.8281L72.3348 98.2065L72.0106 98.5122L71.6617 98.8409L71.6026 98.8968L71.5665 98.931C71.3234 98.8767 71.1455 98.7939 71.0896 98.7661C71.0842 98.7633 71.0797 98.761 71.0765 98.7594C71.073 98.7575 71.0714 98.7566 71.0714 98.7566C70.8142 98.6141 70.5932 98.4071 70.4367 98.1525C70.2798 97.8979 70.1875 97.5951 70.1875 97.2606V87.8304C70.1875 87.5465 70.2309 87.2653 70.3153 86.9964C70.3182 86.9874 70.321 86.9788 70.3239 86.9699C70.3907 86.7641 70.4814 86.5654 70.5954 86.3786L73.0306 82.2779L73.6694 82.1181L74.6124 81.8859L91.2437 77.4916L94.433 76.6489Z" fill="#4A47D9"/>
<path d="M72.8877 98.7197C72.7966 98.7804 72.7046 98.8286 72.612 98.866C72.6075 98.8679 72.603 98.8698 72.5986 98.8714C72.2248 99.0193 71.8507 98.9947 71.5664 98.9312C71.3233 98.8769 71.1454 98.7941 71.0895 98.7663C71.0841 98.7635 71.0796 98.7612 71.0764 98.7596C71.0729 98.7577 71.0713 98.7567 71.0713 98.7567L71.1358 98.6977L71.721 98.1635L71.9763 97.9307L72.3347 98.2067C72.1433 98.4475 72.1302 98.5871 72.2012 98.6651C72.2012 98.6654 72.2015 98.6657 72.2018 98.6657C72.2232 98.6893 72.2526 98.7072 72.2868 98.7206C72.2868 98.7206 72.287 98.721 72.2874 98.721C72.3111 98.7302 72.3369 98.7373 72.3644 98.7427C72.5794 98.7845 72.8873 98.7197 72.8873 98.7197H72.8877Z" fill="#4A47D9"/>
<path d="M92.1973 77.2307C92.5608 77.1582 92.9272 77.2655 93.1237 77.5182C93.4054 77.8807 93.3217 78.5209 92.8285 78.8892L93.8983 77.8807C94.0108 77.7785 94.2139 77.5658 94.3375 77.2307C94.4896 76.8186 94.4337 76.4592 94.4014 76.3091L92.9 76.9751C92.6659 77.0604 92.4314 77.1454 92.1973 77.2307Z" fill="#2A2F63"/>
<path d="M72.877 82.2725C72.877 82.2725 72.9987 82.2779 73.0306 82.2779L73.0143 82.3054L72.877 82.2725Z" fill="#5F61DD"/>
<path opacity="0.4" d="M72.7217 82.7979L92.5637 77.5992C92.5637 77.5992 93.0613 77.5357 93.2683 77.8462C93.2683 77.8462 93.2236 77.5625 92.9821 77.3804C92.9821 77.3804 92.7371 77.1706 92.2755 77.2166L84.5015 79.2731L74.0308 82.0293L73.0306 82.2778L72.7217 82.7979Z" fill="black"/>
</svg>
