<svg width="169" height="161" viewBox="0 0 169 161" fill="none" xmlns="http://www.w3.org/2000/svg">
<rect width="169" height="161" rx="9.36709" fill="#F5F5F5"/>
<rect x="35.75" y="61.75" width="98.5" height="36.5" rx="4.25" stroke="#1877F2" stroke-width="1.5"/>
<path d="M27.3544 124.876H32.7683V126.049H28.5785V128.965H32.2509V130.126H28.5785V134H27.3544V124.876ZM35.9884 134.126C35.5004 134.126 35.0545 134.021 34.6507 133.811C34.2553 133.6 33.9398 133.293 33.7042 132.889C33.477 132.477 33.3635 131.977 33.3635 131.388C33.3635 130.807 33.4854 130.307 33.7294 129.886C33.9734 129.457 34.2973 129.129 34.7012 128.902C35.1134 128.674 35.5635 128.561 36.0515 128.561C36.5395 128.561 36.9517 128.674 37.2883 128.902C37.6248 129.12 37.8814 129.381 38.0581 129.684L37.9824 129.886L38.0959 128.775H39.1813V134H38.0076V132.637L38.1338 132.94C38.1002 133.024 38.0244 133.133 37.9066 133.268C37.7973 133.394 37.6458 133.525 37.4523 133.659C37.2672 133.794 37.0527 133.907 36.8087 134C36.5647 134.084 36.2913 134.126 35.9884 134.126ZM36.3039 133.154C36.5984 133.154 36.8634 133.1 37.099 132.99C37.3345 132.881 37.528 132.73 37.6795 132.536C37.8393 132.334 37.9487 132.094 38.0076 131.817V130.795C37.9403 130.542 37.8225 130.323 37.6542 130.138C37.486 129.945 37.2841 129.798 37.0485 129.697C36.8129 129.587 36.5521 129.533 36.266 129.533C35.9548 129.533 35.6687 129.608 35.4079 129.76C35.1471 129.911 34.9367 130.121 34.7769 130.391C34.6254 130.66 34.5497 130.975 34.5497 131.337C34.5497 131.674 34.6297 131.981 34.7895 132.258C34.9494 132.536 35.1639 132.755 35.4331 132.915C35.7024 133.075 35.9926 133.154 36.3039 133.154ZM45.4526 133.52C45.217 133.706 44.9352 133.853 44.6071 133.962C44.2789 134.072 43.9508 134.126 43.6227 134.126C43.0506 134.126 42.55 134.013 42.1209 133.785C41.6919 133.558 41.3553 133.243 41.1113 132.839C40.8758 132.427 40.758 131.943 40.758 131.388C40.758 130.832 40.8842 130.349 41.1366 129.936C41.3974 129.524 41.7339 129.209 42.1462 128.99C42.5668 128.763 43.0169 128.649 43.4965 128.649C43.9172 128.649 44.2916 128.708 44.6197 128.826C44.9562 128.944 45.2423 129.103 45.4778 129.305L44.8973 130.063C44.7459 129.945 44.5608 129.84 44.342 129.747C44.1233 129.655 43.8751 129.608 43.5975 129.608C43.2946 129.608 43.0127 129.688 42.7519 129.848C42.4995 129.999 42.2976 130.21 42.1462 130.479C42.0031 130.748 41.9316 131.051 41.9316 131.388C41.9316 131.707 42.0074 132.006 42.1588 132.284C42.3102 132.553 42.5206 132.767 42.7898 132.927C43.059 133.079 43.3661 133.154 43.711 133.154C43.9382 133.154 44.1443 133.121 44.3294 133.054C44.5229 132.986 44.6954 132.894 44.8468 132.776L45.4526 133.52ZM49.3907 134.126C48.7934 134.126 48.2802 134.008 47.8511 133.773C47.422 133.529 47.0897 133.201 46.8541 132.788C46.627 132.368 46.5134 131.888 46.5134 131.35C46.5134 130.837 46.6438 130.37 46.9046 129.949C47.1654 129.528 47.5146 129.192 47.9521 128.939C48.3895 128.687 48.8775 128.561 49.416 128.561C50.1059 128.561 50.678 128.763 51.1323 129.167C51.5866 129.57 51.8937 130.126 52.0535 130.832L47.7501 132.347L47.4725 131.653L51.0061 130.365L50.7537 130.53C50.6527 130.252 50.4845 130.012 50.2489 129.81C50.0133 129.6 49.7062 129.495 49.3276 129.495C49.0079 129.495 48.7219 129.575 48.4695 129.734C48.2171 129.886 48.0194 130.096 47.8763 130.365C47.7333 130.635 47.6618 130.942 47.6618 131.287C47.6618 131.648 47.7375 131.968 47.889 132.246C48.0404 132.515 48.2465 132.73 48.5073 132.889C48.7766 133.041 49.0794 133.117 49.416 133.117C49.6431 133.117 49.8619 133.075 50.0722 132.99C50.291 132.906 50.4929 132.797 50.678 132.662L51.2206 133.533C50.9598 133.71 50.6653 133.853 50.3372 133.962C50.0175 134.072 49.702 134.126 49.3907 134.126ZM56.7044 134.126C56.2248 134.126 55.8 134.021 55.4298 133.811C55.068 133.6 54.7778 133.335 54.559 133.016L54.6978 132.65V134H53.5242V124.232H54.6852V129.974L54.6473 129.533C54.8577 129.246 55.1564 129.015 55.5434 128.838C55.9388 128.653 56.3763 128.561 56.8558 128.561C57.327 128.561 57.7561 128.674 58.1431 128.902C58.5301 129.129 58.8372 129.448 59.0643 129.861C59.2999 130.264 59.4177 130.748 59.4177 131.312C59.4177 131.901 59.2915 132.406 59.0391 132.826C58.7951 133.247 58.467 133.571 58.0547 133.798C57.6425 134.017 57.1924 134.126 56.7044 134.126ZM56.4646 133.129C56.8012 133.129 57.104 133.049 57.3733 132.889C57.6425 132.73 57.8528 132.515 58.0043 132.246C58.1557 131.968 58.2314 131.653 58.2314 131.299C58.2314 130.963 58.1515 130.66 57.9916 130.391C57.8402 130.113 57.6299 129.894 57.3606 129.734C57.0998 129.575 56.8012 129.495 56.4646 129.495C56.1786 129.495 55.9136 129.549 55.6696 129.659C55.4256 129.768 55.2195 129.92 55.0512 130.113C54.8829 130.298 54.7651 130.517 54.6978 130.769V131.817C54.7651 132.069 54.8787 132.296 55.0386 132.498C55.1984 132.692 55.4003 132.847 55.6443 132.965C55.8883 133.075 56.1617 133.129 56.4646 133.129ZM60.5506 131.337C60.5506 130.816 60.6726 130.344 60.9166 129.924C61.169 129.503 61.514 129.171 61.9515 128.927C62.389 128.683 62.8853 128.561 63.4406 128.561C64.0127 128.561 64.5133 128.683 64.9424 128.927C65.3715 129.171 65.7038 129.503 65.9394 129.924C66.1749 130.344 66.2927 130.816 66.2927 131.337C66.2927 131.859 66.1749 132.334 65.9394 132.763C65.7038 133.184 65.3673 133.516 64.9298 133.76C64.5007 134.004 64.0001 134.126 63.428 134.126C62.8727 134.126 62.3763 134.013 61.9388 133.785C61.5098 133.55 61.169 133.226 60.9166 132.814C60.6726 132.393 60.5506 131.901 60.5506 131.337ZM61.7243 131.35C61.7243 131.686 61.8 131.993 61.9515 132.271C62.1029 132.54 62.3048 132.755 62.5572 132.915C62.818 133.075 63.1041 133.154 63.4154 133.154C63.7435 133.154 64.0338 133.075 64.2862 132.915C64.547 132.755 64.7489 132.54 64.8919 132.271C65.0349 131.993 65.1065 131.686 65.1065 131.35C65.1065 131.013 65.0349 130.71 64.8919 130.441C64.7489 130.164 64.547 129.945 64.2862 129.785C64.0338 129.617 63.7435 129.533 63.4154 129.533C63.0957 129.533 62.8054 129.617 62.5446 129.785C62.2922 129.953 62.0903 130.176 61.9388 130.454C61.7958 130.723 61.7243 131.022 61.7243 131.35ZM67.4275 131.337C67.4275 130.816 67.5495 130.344 67.7935 129.924C68.0459 129.503 68.3909 129.171 68.8284 128.927C69.2659 128.683 69.7622 128.561 70.3175 128.561C70.8896 128.561 71.3902 128.683 71.8193 128.927C72.2484 129.171 72.5807 129.503 72.8163 129.924C73.0519 130.344 73.1696 130.816 73.1696 131.337C73.1696 131.859 73.0519 132.334 72.8163 132.763C72.5807 133.184 72.2442 133.516 71.8067 133.76C71.3776 134.004 70.877 134.126 70.3049 134.126C69.7496 134.126 69.2532 134.013 68.8157 133.785C68.3867 133.55 68.0459 133.226 67.7935 132.814C67.5495 132.393 67.4275 131.901 67.4275 131.337ZM68.6012 131.35C68.6012 131.686 68.6769 131.993 68.8284 132.271C68.9798 132.54 69.1817 132.755 69.4341 132.915C69.6949 133.075 69.981 133.154 70.2923 133.154C70.6204 133.154 70.9107 133.075 71.1631 132.915C71.4239 132.755 71.6258 132.54 71.7688 132.271C71.9118 131.993 71.9834 131.686 71.9834 131.35C71.9834 131.013 71.9118 130.71 71.7688 130.441C71.6258 130.164 71.4239 129.945 71.1631 129.785C70.9107 129.617 70.6204 129.533 70.2923 129.533C69.9726 129.533 69.6823 129.617 69.4215 129.785C69.1691 129.953 68.9672 130.176 68.8157 130.454C68.6727 130.723 68.6012 131.022 68.6012 131.35ZM74.7588 134V124.232H75.9324V134H74.7588ZM77.1944 130.53L79.5922 134H78.2166L76.412 131.186L77.1944 130.53ZM75.5664 132.334L75.4529 131.211L78.6205 128.662L79.3398 129.28L75.5664 132.334ZM92.0286 133.319C91.8772 133.419 91.6711 133.533 91.4102 133.659C91.1494 133.785 90.8423 133.891 90.489 133.975C90.144 134.059 89.7654 134.101 89.3532 134.101C88.6465 134.093 88.0071 133.966 87.435 133.722C86.8713 133.478 86.3917 133.146 85.9963 132.725C85.6008 132.305 85.2938 131.821 85.075 131.274C84.8647 130.719 84.7595 130.13 84.7595 129.507C84.7595 128.826 84.8689 128.199 85.0876 127.627C85.3148 127.046 85.6303 126.546 86.0341 126.125C86.438 125.696 86.9133 125.364 87.4602 125.128C88.0155 124.893 88.6212 124.775 89.2775 124.775C89.8243 124.775 90.3207 124.851 90.7666 125.002C91.2125 125.145 91.5953 125.317 91.915 125.519L91.4229 126.655C91.1705 126.487 90.8634 126.327 90.5016 126.176C90.1482 126.024 89.7528 125.948 89.3153 125.948C88.8694 125.948 88.4488 126.037 88.0533 126.213C87.6579 126.39 87.3088 126.638 87.0059 126.958C86.703 127.278 86.4632 127.652 86.2865 128.081C86.1183 128.502 86.0341 128.956 86.0341 129.444C86.0341 129.941 86.1099 130.403 86.2613 130.832C86.4211 131.253 86.6441 131.619 86.9302 131.93C87.2246 132.242 87.578 132.486 87.9902 132.662C88.4025 132.839 88.8652 132.927 89.3784 132.927C89.8412 132.927 90.2534 132.856 90.6152 132.713C90.977 132.57 91.2756 132.41 91.5112 132.233L92.0286 133.319ZM93.3453 131.337C93.3453 130.816 93.4673 130.344 93.7113 129.924C93.9637 129.503 94.3087 129.171 94.7462 128.927C95.1836 128.683 95.68 128.561 96.2353 128.561C96.8074 128.561 97.308 128.683 97.7371 128.927C98.1662 129.171 98.4985 129.503 98.7341 129.924C98.9696 130.344 99.0874 130.816 99.0874 131.337C99.0874 131.859 98.9696 132.334 98.7341 132.763C98.4985 133.184 98.162 133.516 97.7245 133.76C97.2954 134.004 96.7948 134.126 96.2227 134.126C95.6674 134.126 95.171 134.013 94.7335 133.785C94.3045 133.55 93.9637 133.226 93.7113 132.814C93.4673 132.393 93.3453 131.901 93.3453 131.337ZM94.519 131.35C94.519 131.686 94.5947 131.993 94.7462 132.271C94.8976 132.54 95.0995 132.755 95.3519 132.915C95.6127 133.075 95.8988 133.154 96.2101 133.154C96.5382 133.154 96.8285 133.075 97.0808 132.915C97.3417 132.755 97.5436 132.54 97.6866 132.271C97.8296 131.993 97.9011 131.686 97.9011 131.35C97.9011 131.013 97.8296 130.71 97.6866 130.441C97.5436 130.164 97.3417 129.945 97.0808 129.785C96.8285 129.617 96.5382 129.533 96.2101 129.533C95.8904 129.533 95.6001 129.617 95.3393 129.785C95.0869 129.953 94.885 130.176 94.7335 130.454C94.5905 130.723 94.519 131.022 94.519 131.35ZM102.637 134.151L99.7339 128.775H101.122L103.091 132.927L102.371 132.902L104.176 128.775H105.489L102.7 134.151H102.637ZM109.052 134.126C108.455 134.126 107.942 134.008 107.513 133.773C107.083 133.529 106.751 133.201 106.516 132.788C106.288 132.368 106.175 131.888 106.175 131.35C106.175 130.837 106.305 130.37 106.566 129.949C106.827 129.528 107.176 129.192 107.614 128.939C108.051 128.687 108.539 128.561 109.077 128.561C109.767 128.561 110.339 128.763 110.794 129.167C111.248 129.57 111.555 130.126 111.715 130.832L107.412 132.347L107.134 131.653L110.668 130.365L110.415 130.53C110.314 130.252 110.146 130.012 109.91 129.81C109.675 129.6 109.368 129.495 108.989 129.495C108.669 129.495 108.383 129.575 108.131 129.734C107.879 129.886 107.681 130.096 107.538 130.365C107.395 130.635 107.323 130.942 107.323 131.287C107.323 131.648 107.399 131.968 107.55 132.246C107.702 132.515 107.908 132.73 108.169 132.889C108.438 133.041 108.741 133.117 109.077 133.117C109.305 133.117 109.523 133.075 109.734 132.99C109.952 132.906 110.154 132.797 110.339 132.662L110.882 133.533C110.621 133.71 110.327 133.853 109.999 133.962C109.679 134.072 109.363 134.126 109.052 134.126ZM114.233 128.775L114.347 130.29L114.284 130.088C114.418 129.768 114.612 129.499 114.864 129.28C115.125 129.053 115.394 128.88 115.672 128.763C115.958 128.637 116.206 128.573 116.416 128.573L116.353 129.734C115.958 129.709 115.609 129.785 115.306 129.962C115.011 130.138 114.776 130.374 114.599 130.668C114.431 130.963 114.347 131.278 114.347 131.615V134H113.186V128.775H114.233ZM124.649 124.876C125.314 124.876 125.882 124.989 126.353 125.216C126.824 125.435 127.186 125.755 127.438 126.176C127.699 126.596 127.83 127.105 127.83 127.703C127.83 128.064 127.775 128.422 127.666 128.775C127.556 129.12 127.38 129.436 127.136 129.722C126.9 129.999 126.589 130.222 126.202 130.391C125.815 130.559 125.344 130.643 124.788 130.643H123.438V134H122.214V124.876H124.649ZM124.776 129.469C125.137 129.469 125.436 129.411 125.672 129.293C125.907 129.175 126.092 129.028 126.227 128.851C126.362 128.666 126.458 128.472 126.517 128.271C126.576 128.069 126.606 127.888 126.606 127.728C126.606 127.543 126.576 127.353 126.517 127.16C126.458 126.958 126.357 126.777 126.214 126.617C126.08 126.449 125.899 126.314 125.672 126.213C125.453 126.104 125.179 126.049 124.851 126.049H123.438V129.469H124.776ZM128.975 131.337C128.975 130.816 129.097 130.344 129.341 129.924C129.593 129.503 129.938 129.171 130.375 128.927C130.813 128.683 131.309 128.561 131.865 128.561C132.437 128.561 132.937 128.683 133.366 128.927C133.795 129.171 134.128 129.503 134.363 129.924C134.599 130.344 134.717 130.816 134.717 131.337C134.717 131.859 134.599 132.334 134.363 132.763C134.128 133.184 133.791 133.516 133.354 133.76C132.925 134.004 132.424 134.126 131.852 134.126C131.297 134.126 130.8 134.013 130.363 133.785C129.934 133.55 129.593 133.226 129.341 132.814C129.097 132.393 128.975 131.901 128.975 131.337ZM130.148 131.35C130.148 131.686 130.224 131.993 130.375 132.271C130.527 132.54 130.729 132.755 130.981 132.915C131.242 133.075 131.528 133.154 131.839 133.154C132.167 133.154 132.458 133.075 132.71 132.915C132.971 132.755 133.173 132.54 133.316 132.271C133.459 131.993 133.53 131.686 133.53 131.35C133.53 131.013 133.459 130.71 133.316 130.441C133.173 130.164 132.971 129.945 132.71 129.785C132.458 129.617 132.167 129.533 131.839 129.533C131.52 129.533 131.229 129.617 130.969 129.785C130.716 129.953 130.514 130.176 130.363 130.454C130.22 130.723 130.148 131.022 130.148 131.35ZM137.77 134.101C137.4 134.101 137.038 134.038 136.684 133.912C136.339 133.777 136.053 133.579 135.826 133.319L136.318 132.637C136.537 132.847 136.76 133.007 136.987 133.117C137.223 133.218 137.454 133.268 137.681 133.268C137.85 133.268 138.005 133.247 138.148 133.205C138.291 133.163 138.405 133.096 138.489 133.003C138.582 132.902 138.628 132.767 138.628 132.599C138.628 132.414 138.565 132.267 138.439 132.157C138.321 132.048 138.165 131.96 137.972 131.892C137.787 131.825 137.589 131.762 137.379 131.703C136.949 131.56 136.621 131.362 136.394 131.11C136.167 130.858 136.053 130.551 136.053 130.189C136.053 129.911 136.121 129.655 136.255 129.419C136.398 129.175 136.605 128.977 136.874 128.826C137.151 128.674 137.492 128.599 137.896 128.599C138.258 128.599 138.582 128.645 138.868 128.737C139.154 128.822 139.423 128.965 139.675 129.167L139.208 129.899C139.057 129.739 138.876 129.621 138.666 129.545C138.455 129.469 138.266 129.427 138.098 129.419C137.955 129.411 137.816 129.432 137.681 129.482C137.555 129.533 137.45 129.604 137.366 129.697C137.282 129.789 137.24 129.899 137.24 130.025C137.24 130.201 137.299 130.344 137.416 130.454C137.534 130.563 137.686 130.651 137.871 130.719C138.064 130.778 138.254 130.841 138.439 130.908C138.699 130.984 138.931 131.085 139.133 131.211C139.335 131.337 139.494 131.493 139.612 131.678C139.738 131.863 139.802 132.094 139.802 132.372C139.802 132.683 139.726 132.974 139.574 133.243C139.431 133.504 139.208 133.714 138.906 133.874C138.611 134.025 138.232 134.101 137.77 134.101ZM141.95 126.478H143.123V128.801H144.562V129.722H143.123V134H141.95V129.722H140.991V128.801H141.95V126.478Z" fill="#262626"/>
<path d="M62.5719 145.348C62.5719 145.076 62.6225 144.842 62.7236 144.645C62.83 144.449 62.9603 144.284 63.1147 144.151C63.2743 144.012 63.4366 143.909 63.6015 143.839C63.4419 143.738 63.3089 143.613 63.2024 143.464C63.1013 143.315 63.0508 143.124 63.0508 142.89C63.0508 142.655 63.1093 142.448 63.2264 142.267C63.3488 142.086 63.5137 141.945 63.7212 141.844C63.9288 141.738 64.1655 141.684 64.4316 141.684C64.6923 141.684 64.9264 141.738 65.134 141.844C65.3415 141.945 65.5064 142.083 65.6288 142.259C65.7512 142.435 65.8124 142.634 65.8124 142.858C65.8124 143.108 65.7592 143.307 65.6527 143.456C65.5516 143.605 65.4213 143.733 65.2617 143.839C65.4266 143.914 65.5889 144.02 65.7485 144.159C65.9081 144.292 66.0385 144.457 66.1396 144.653C66.246 144.85 66.2992 145.082 66.2992 145.348C66.2992 145.651 66.2141 145.933 66.0438 146.194C65.8789 146.455 65.6554 146.665 65.3734 146.824C65.0967 146.984 64.7801 147.064 64.4236 147.064C64.0671 147.064 63.7505 146.984 63.4738 146.824C63.1971 146.665 62.9763 146.455 62.8114 146.194C62.6517 145.933 62.5719 145.651 62.5719 145.348ZM63.3621 145.308C63.3621 145.51 63.41 145.694 63.5057 145.859C63.6015 146.024 63.7292 146.157 63.8888 146.258C64.0485 146.359 64.2267 146.409 64.4236 146.409C64.6258 146.409 64.8094 146.359 64.9743 146.258C65.1446 146.157 65.2776 146.024 65.3734 145.859C65.4745 145.694 65.525 145.513 65.525 145.316C65.525 145.114 65.4772 144.933 65.3814 144.773C65.2856 144.608 65.1552 144.475 64.9903 144.374C64.8307 144.273 64.6524 144.222 64.4555 144.222C64.2587 144.217 64.0777 144.265 63.9128 144.366C63.7478 144.462 63.6148 144.592 63.5137 144.757C63.4126 144.922 63.3621 145.106 63.3621 145.308ZM63.8011 142.985C63.8011 143.15 63.8649 143.291 63.9926 143.408C64.1256 143.52 64.2773 143.576 64.4475 143.576C64.6178 143.576 64.7641 143.52 64.8865 143.408C65.0142 143.291 65.0781 143.15 65.0781 142.985C65.0781 142.794 65.0142 142.637 64.8865 142.514C64.7641 142.392 64.6178 142.331 64.4475 142.331C64.272 142.331 64.1203 142.392 63.9926 142.514C63.8649 142.637 63.8011 142.794 63.8011 142.985ZM66.9492 147C67.2898 146.67 67.6143 146.346 67.923 146.026C68.2316 145.707 68.5083 145.398 68.753 145.1C69.0031 144.802 69.2 144.515 69.3437 144.238C69.4873 143.956 69.5592 143.685 69.5592 143.424C69.5592 143.249 69.5299 143.1 69.4714 142.977C69.4128 142.85 69.3357 142.746 69.2399 142.666C69.1494 142.586 69.0457 142.528 68.9286 142.49C68.8116 142.448 68.6918 142.427 68.5695 142.427C68.3939 142.427 68.2449 142.456 68.1225 142.514C68.0001 142.568 67.899 142.639 67.8192 142.73C67.7447 142.82 67.6888 142.916 67.6516 143.017C67.6197 143.118 67.6037 143.219 67.6037 143.321C67.6037 143.496 67.6303 143.656 67.6835 143.799C67.7367 143.938 67.8139 144.06 67.915 144.167L67.4361 144.59C67.3137 144.51 67.2073 144.398 67.1168 144.254C67.0317 144.111 66.9652 143.956 66.9173 143.791C66.8747 143.621 66.8534 143.47 66.8534 143.337C66.8534 143.049 66.9226 142.78 67.061 142.53C67.2046 142.275 67.4121 142.07 67.6835 141.916C67.9602 141.762 68.2954 141.684 68.6892 141.684C69.0244 141.684 69.317 141.762 69.5671 141.916C69.8172 142.07 70.0114 142.275 70.1498 142.53C70.2881 142.78 70.3573 143.057 70.3573 143.36C70.3573 143.627 70.3041 143.887 70.1977 144.143C70.0912 144.398 69.9476 144.651 69.7667 144.901C69.5911 145.151 69.3942 145.398 69.176 145.643C68.9632 145.883 68.7504 146.125 68.5375 146.369L68.2023 146.258H70.5329V147H66.9492ZM73.3657 147.024C73.0411 147.024 72.7431 146.963 72.4717 146.84C72.2004 146.718 71.9663 146.542 71.7694 146.314C71.5778 146.079 71.4288 145.797 71.3224 145.468C71.216 145.138 71.1628 144.768 71.1628 144.358C71.1628 143.911 71.2133 143.523 71.3144 143.193C71.4155 142.858 71.5619 142.578 71.7534 142.355C71.9503 142.131 72.1844 141.966 72.4558 141.86C72.7272 141.748 73.0304 141.692 73.3657 141.692C73.6902 141.692 73.9856 141.754 74.2516 141.876C74.523 141.998 74.7544 142.177 74.946 142.411C75.1429 142.639 75.2945 142.919 75.4009 143.249C75.5127 143.573 75.5685 143.943 75.5685 144.358C75.5685 144.779 75.5127 145.154 75.4009 145.484C75.2945 145.813 75.1429 146.093 74.946 146.322C74.7544 146.55 74.523 146.726 74.2516 146.848C73.9856 146.965 73.6902 147.024 73.3657 147.024ZM73.3577 146.282C73.6663 146.282 73.9244 146.202 74.1319 146.042C74.3447 145.877 74.5043 145.648 74.6108 145.356C74.7172 145.063 74.7704 144.725 74.7704 144.342C74.7704 143.959 74.7172 143.627 74.6108 143.345C74.5043 143.057 74.3447 142.834 74.1319 142.674C73.9244 142.514 73.6663 142.435 73.3577 142.435C73.0491 142.435 72.791 142.517 72.5835 142.682C72.376 142.842 72.219 143.065 72.1126 143.352C72.0115 143.64 71.9609 143.975 71.9609 144.358C71.9609 144.736 72.0115 145.071 72.1126 145.364C72.219 145.651 72.376 145.877 72.5835 146.042C72.791 146.202 73.0491 146.282 73.3577 146.282ZM80.2652 144.925L81.0554 143.696H81.8056L80.5366 145.468L80.2652 144.925ZM81.9333 147H81.0394L78.5253 143.696H79.4431L81.9333 147ZM80.1854 145.771L79.3154 147H78.5652L79.8263 145.276L80.1854 145.771ZM88.097 141.748L86.6923 144.007L86.2294 143.791C86.2985 143.754 86.3757 143.728 86.4608 143.712C86.5459 143.696 86.6311 143.688 86.7162 143.688C86.9131 143.677 87.1046 143.698 87.2909 143.752C87.4771 143.805 87.6447 143.893 87.7937 144.015C87.9427 144.137 88.0598 144.3 88.1449 144.502C88.2353 144.704 88.2806 144.954 88.2806 145.252C88.2806 145.625 88.1954 145.946 88.0252 146.218C87.8549 146.489 87.6288 146.699 87.3467 146.848C87.0701 146.992 86.7614 147.064 86.4209 147.064C86.1655 147.064 85.9101 147.013 85.6547 146.912C85.4046 146.806 85.1971 146.667 85.0321 146.497L85.4232 145.859C85.5243 145.976 85.6627 146.082 85.8383 146.178C86.0192 146.274 86.2054 146.322 86.397 146.322C86.5992 146.322 86.7801 146.276 86.9397 146.186C87.1046 146.095 87.235 145.968 87.3308 145.803C87.4319 145.633 87.4824 145.436 87.4824 145.212C87.4824 144.904 87.392 144.661 87.2111 144.486C87.0355 144.31 86.7934 144.222 86.4848 144.222C86.3304 144.222 86.2001 144.236 86.0937 144.262C85.9872 144.284 85.8915 144.31 85.8063 144.342L85.7824 144.31L87.0195 142.387L87.259 142.49H85.3354V141.748H88.097ZM89.2099 141.748H90.5827V147H89.8085V142.49H89.2099V141.748ZM91.8366 147C92.1772 146.67 92.5017 146.346 92.8103 146.026C93.119 145.707 93.3956 145.398 93.6404 145.1C93.8905 144.802 94.0874 144.515 94.231 144.238C94.3747 143.956 94.4465 143.685 94.4465 143.424C94.4465 143.249 94.4173 143.1 94.3587 142.977C94.3002 142.85 94.2231 142.746 94.1273 142.666C94.0368 142.586 93.9331 142.528 93.816 142.49C93.6989 142.448 93.5792 142.427 93.4568 142.427C93.2812 142.427 93.1323 142.456 93.0099 142.514C92.8875 142.568 92.7864 142.639 92.7066 142.73C92.6321 142.82 92.5762 142.916 92.539 143.017C92.5071 143.118 92.4911 143.219 92.4911 143.321C92.4911 143.496 92.5177 143.656 92.5709 143.799C92.6241 143.938 92.7013 144.06 92.8024 144.167L92.3235 144.59C92.2011 144.51 92.0947 144.398 92.0042 144.254C91.9191 144.111 91.8526 143.956 91.8047 143.791C91.7621 143.621 91.7408 143.47 91.7408 143.337C91.7408 143.049 91.81 142.78 91.9484 142.53C92.092 142.275 92.2995 142.07 92.5709 141.916C92.8476 141.762 93.1828 141.684 93.5766 141.684C93.9118 141.684 94.2044 141.762 94.4545 141.916C94.7046 142.07 94.8988 142.275 95.0372 142.53C95.1755 142.78 95.2447 143.057 95.2447 143.36C95.2447 143.627 95.1915 143.887 95.085 144.143C94.9786 144.398 94.835 144.651 94.6541 144.901C94.4785 145.151 94.2816 145.398 94.0634 145.643C93.8506 145.883 93.6378 146.125 93.4249 146.369L93.0897 146.258H95.4203V147H91.8366ZM100.882 147.08C100.632 147.08 100.39 147.021 100.156 146.904C99.9271 146.787 99.7488 146.63 99.6211 146.433L99.669 146.202V148.588H98.9347V143.648H99.5732L99.677 144.494L99.5972 144.262C99.7568 144.06 99.959 143.893 100.204 143.76C100.449 143.627 100.723 143.56 101.026 143.56C101.334 143.56 101.611 143.634 101.856 143.783C102.106 143.932 102.303 144.14 102.447 144.406C102.59 144.672 102.662 144.983 102.662 145.34C102.662 145.696 102.585 146.005 102.431 146.266C102.276 146.526 102.063 146.729 101.792 146.872C101.526 147.011 101.223 147.08 100.882 147.08ZM100.739 146.489C100.951 146.489 101.146 146.441 101.321 146.346C101.502 146.244 101.646 146.109 101.752 145.938C101.859 145.763 101.912 145.566 101.912 145.348C101.912 145.124 101.861 144.927 101.76 144.757C101.659 144.582 101.523 144.443 101.353 144.342C101.188 144.241 101.002 144.191 100.794 144.191C100.603 144.191 100.43 144.228 100.276 144.302C100.121 144.377 99.9936 144.481 99.8925 144.614C99.7914 144.741 99.7196 144.89 99.677 145.061V145.611C99.7036 145.782 99.7674 145.933 99.8685 146.066C99.9696 146.199 100.095 146.303 100.244 146.377C100.398 146.452 100.563 146.489 100.739 146.489ZM104.833 144.925L105.623 143.696H106.373L105.104 145.468L104.833 144.925ZM106.501 147H105.607L103.093 143.696H104.011L106.501 147ZM104.753 145.771L103.883 147H103.133L104.394 145.276L104.753 145.771Z" fill="#262626"/>
<path d="M64.8507 84.5953H63.1551V80.3584H62V78.979H63.1551V77.9974C63.1551 76.8342 63.6659 76 65.357 76C65.7147 76 66.2762 76.0723 66.2762 76.0723V77.3532H65.6864C65.0855 77.3532 64.8508 77.5364 64.8508 78.0429V78.979H66.2537L66.1287 80.3584H64.8508L64.8507 84.5953ZM68.7414 78.8687C68.7167 78.8687 68.6913 78.8696 68.6662 78.8703C67.0939 78.8703 66.3745 80.0557 66.3745 81.7385C66.3745 83.8584 67.3076 84.7068 68.6784 84.7068C69.4628 84.7068 69.9781 84.3759 70.2913 83.7584V84.5959H71.904V78.9796H70.2913V79.8433C70.0355 79.2876 69.5058 78.8753 68.7414 78.8687ZM69.1515 80.1959C69.8119 80.1959 70.2083 80.6576 70.2083 81.4429L70.2098 82.245C70.2098 82.7743 69.8824 83.3936 69.1515 83.3936C68.0279 83.3936 68.0579 82.1774 68.0579 81.7724C68.0579 80.4099 68.6566 80.1959 69.1515 80.1959ZM72.5554 81.788C72.5554 81.1056 72.5228 78.8724 75.4255 78.8724C76.5907 78.8724 77.0772 79.2437 77.0772 79.2437L76.6862 80.4595C76.6862 80.4595 76.2002 80.1913 75.5671 80.1913C74.7562 80.1913 74.2387 80.6625 74.2387 81.4916L74.2396 82.0861C74.2396 82.8827 74.7389 83.4145 75.5688 83.4145C76.1456 83.4145 76.6772 83.1438 76.6772 83.1438L77.0673 84.3341C77.0673 84.3341 76.6224 84.7078 75.4336 84.7078C72.6698 84.7078 72.5554 82.7042 72.5554 81.788H72.5554ZM86.5336 78.8703C88.106 78.8703 88.8367 80.0557 88.8367 81.7385C88.8367 83.8584 87.9035 84.7068 86.5327 84.7068C85.7484 84.7068 85.1686 84.376 84.8554 83.7584V84.5959L83.2629 84.5953V76.1708L84.9537 76.023V79.7672C85.1978 79.1121 85.9997 78.8703 86.5336 78.8703ZM86.0596 80.1959C85.3992 80.1959 84.9537 80.6576 84.9537 81.4429L84.9522 82.245C84.9512 82.7743 85.2607 83.3936 86.0596 83.3936C87.1833 83.3936 87.1532 82.1774 87.1532 81.7724C87.1532 80.4099 86.5546 80.1959 86.0596 80.1959ZM80.0109 78.8749C78.2276 78.8749 77.2861 79.8495 77.2861 81.5815V81.9032C77.2861 84.1512 78.6082 84.7299 80.1845 84.7299C81.7166 84.7299 82.4101 84.3004 82.4101 84.3004L82.0937 83.1565C82.0937 83.1565 81.278 83.5044 80.3872 83.5044C79.4638 83.5044 79.0667 83.2685 78.9649 82.379H82.5453V81.4613C82.5453 79.5826 81.4886 78.8749 80.0109 78.8749L80.0109 78.8749ZM80.0539 80.0203C80.6712 80.0203 81.0712 80.3997 81.0493 81.2797H78.968C79.0041 80.3536 79.4355 80.0203 80.0539 80.0203ZM92.2081 78.8672C90.3768 78.8672 89.4126 79.9016 89.4126 81.7554C89.4126 84.2989 91.0746 84.7083 92.2112 84.7083C93.8751 84.7083 94.9821 83.8104 94.9821 81.7785C94.9821 79.6637 93.7374 78.8672 92.2081 78.8672ZM92.1851 80.2005C92.9904 80.2005 93.3095 80.8046 93.3095 81.4922V82.0834C93.3095 82.9164 92.863 83.3982 92.182 83.3982C91.5452 83.3982 91.0976 82.9475 91.0976 82.0834V81.4922C91.0976 80.5706 91.6302 80.2005 92.1851 80.2005ZM98.3505 78.8672C96.5192 78.8672 95.5551 79.9016 95.5551 81.7554C95.5551 84.2989 97.217 84.7083 98.3536 84.7083C100.017 84.7083 101.125 83.8104 101.125 81.7785C101.125 79.6637 99.8798 78.8672 98.3505 78.8672ZM98.3275 80.2005C99.1328 80.2005 99.4518 80.8046 99.4518 81.4922V82.0834C99.4518 82.9164 99.0053 83.3982 98.3245 83.3982C97.6876 83.3982 97.24 82.9475 97.24 82.0834V81.4922C97.24 80.5706 97.7726 80.2005 98.3275 80.2005ZM101.763 84.5953V76.1708L103.459 76.023V81.6696L105.142 78.979H106.932L105.177 81.7657L107 84.5953H105.204L103.459 81.8478V84.5953H101.763Z" fill="#1877F2"/>
</svg>
