<svg width="49" height="49" viewBox="0 0 49 49" fill="none" xmlns="http://www.w3.org/2000/svg">
<rect x="0.634216" y="0.634186" width="47" height="47" rx="23.5" fill="white" stroke="#E3E3E3"/>
<g clip-path="url(#clip0_93_112)">
<path d="M24 25.3333C27.1947 25.3333 30.1 26.2586 32.2373 27.5626C33.304 28.2133 34.216 28.9813 34.8747 29.816C35.5227 30.636 36 31.6173 36 32.6666C36 33.7933 35.452 34.6813 34.6627 35.3146C33.916 35.9146 32.9307 36.312 31.884 36.5893C29.78 37.1453 26.972 37.3333 24 37.3333C21.028 37.3333 18.22 37.1466 16.116 36.5893C15.0693 36.312 14.084 35.9146 13.3373 35.3146C12.5467 34.68 12 33.7933 12 32.6666C12 31.6173 12.4773 30.636 13.1253 29.8146C13.784 28.9813 14.6947 28.2146 15.7627 27.5613C17.9 26.26 20.8067 25.3333 24 25.3333ZM24 10.6666C25.7681 10.6666 27.4638 11.369 28.714 12.6192C29.9643 13.8695 30.6667 15.5652 30.6667 17.3333C30.6667 19.1014 29.9643 20.7971 28.714 22.0473C27.4638 23.2976 25.7681 24 24 24C22.2319 24 20.5362 23.2976 19.286 22.0473C18.0357 20.7971 17.3333 19.1014 17.3333 17.3333C17.3333 15.5652 18.0357 13.8695 19.286 12.6192C20.5362 11.369 22.2319 10.6666 24 10.6666Z" fill="#43A6B7"/>
</g>
<defs>
<clipPath id="clip0_93_112">
<rect width="32" height="32" fill="white" transform="translate(8 7.99997)"/>
</clipPath>
</defs>
</svg>
