<svg width="70" height="17" viewBox="0 0 70 17" fill="none" xmlns="http://www.w3.org/2000/svg">
<path d="M15.024 16.048C14.672 15.28 14.256 14.44 13.776 13.528C13.296 12.6 12.792 11.656 12.264 10.696C11.752 9.71998 11.24 8.77598 10.728 7.86398C10.232 6.95198 9.776 6.11998 9.36 5.36798C8.96 4.61598 8.648 3.99998 8.424 3.51998C8.376 3.72798 8.296 4.09598 8.184 4.62398C8.072 5.13598 7.936 5.74398 7.776 6.44798C7.632 7.15198 7.48 7.89598 7.32 8.67998C7.176 9.44798 7.032 10.2 6.888 10.936C6.744 11.672 6.616 12.336 6.504 12.928C6.408 13.504 6.344 13.944 6.312 14.248C6.296 14.456 6.36 14.632 6.504 14.776C6.648 14.92 6.808 15.032 6.984 15.112C7.176 15.176 7.32 15.216 7.416 15.232C7.688 15.248 8.032 15.264 8.448 15.28C8.864 15.296 9.32 15.304 9.816 15.304C9.896 15.304 9.936 15.328 9.936 15.376C9.936 15.44 9.896 15.512 9.816 15.592C9.736 15.656 9.656 15.688 9.576 15.688C9.432 15.688 9.128 15.68 8.664 15.664C8.2 15.632 7.672 15.608 7.08 15.592C6.504 15.56 5.952 15.544 5.424 15.544C5.28 15.544 5.136 15.552 4.992 15.568C4.864 15.568 4.736 15.568 4.608 15.568C4.336 15.584 3.928 15.608 3.384 15.64C2.856 15.656 2.288 15.664 1.68 15.664C1.488 15.664 1.288 15.664 1.08 15.664C0.888 15.648 0.688 15.64 0.48 15.64H0.456C0.392 15.64 0.336 15.616 0.288 15.568C0.256 15.504 0.24 15.448 0.24 15.4C0.24 15.304 0.296 15.264 0.408 15.28C0.68 15.28 0.928 15.288 1.152 15.304C1.376 15.304 1.592 15.304 1.8 15.304C2.424 15.304 2.92 15.248 3.288 15.136C3.672 15.024 3.984 14.776 4.224 14.392C4.48 14.008 4.728 13.408 4.968 12.592C5.48 10.848 5.896 9.17598 6.216 7.57598C6.536 5.95998 6.84 4.27998 7.128 2.53598C7.176 2.21598 7.12 1.94398 6.96 1.71998C6.816 1.47998 6.632 1.34398 6.408 1.31198C6.248 1.27998 5.976 1.25598 5.592 1.23998C5.208 1.22398 4.832 1.21598 4.464 1.21598C4.112 1.19998 3.872 1.19998 3.744 1.21598C3.664 1.21598 3.624 1.19198 3.624 1.14398C3.624 1.07998 3.664 1.00798 3.744 0.927984C3.84 0.847984 3.92 0.807984 3.984 0.807984C4.544 0.807984 5.184 0.823984 5.904 0.855984C6.64 0.887984 7.352 0.903985 8.04 0.903985C8.36 0.903985 8.616 0.887984 8.808 0.855984C9.016 0.823984 9.248 0.807984 9.504 0.807984C9.648 0.807984 9.752 0.847984 9.816 0.927984C9.896 0.991984 9.992 1.17598 10.104 1.47998C10.216 1.76798 10.408 2.19198 10.68 2.75198C10.968 3.31198 11.296 3.94398 11.664 4.64798C12.032 5.33598 12.416 6.05598 12.816 6.80798C13.216 7.54398 13.608 8.25598 13.992 8.94398C14.376 9.61598 14.712 10.208 15 10.72C15.304 11.216 15.528 11.576 15.672 11.8C15.768 11.432 15.88 10.928 16.008 10.288C16.136 9.64798 16.272 8.94398 16.416 8.17598C16.56 7.40798 16.696 6.64798 16.824 5.89598C16.952 5.12798 17.064 4.43198 17.16 3.80798C17.272 3.18398 17.344 2.70398 17.376 2.36798C17.408 2.09598 17.328 1.87998 17.136 1.71998C16.944 1.55998 16.696 1.43998 16.392 1.35998C16.104 1.27998 15.808 1.23198 15.504 1.21598C15.216 1.18398 14.984 1.16798 14.808 1.16798H14.784C14.72 1.16798 14.688 1.14398 14.688 1.09598C14.688 1.03198 14.728 0.967985 14.808 0.903985C14.888 0.823985 14.968 0.783985 15.048 0.783985C15.24 0.783985 15.624 0.799984 16.2 0.831984C16.792 0.863984 17.416 0.879983 18.072 0.879983C18.248 0.879983 18.416 0.879983 18.576 0.879983C18.736 0.879983 18.896 0.871984 19.056 0.855984C19.296 0.839984 19.648 0.831984 20.112 0.831984C20.576 0.831984 21.08 0.831984 21.624 0.831984C22.184 0.815984 22.728 0.807984 23.256 0.807984C23.32 0.807984 23.352 0.831984 23.352 0.879983C23.352 0.943984 23.312 1.02398 23.232 1.11998C23.152 1.21598 23.072 1.25598 22.992 1.23998C22.096 1.22398 21.392 1.24798 20.88 1.31198C20.368 1.35998 19.976 1.47998 19.704 1.67198C19.448 1.84798 19.248 2.11998 19.104 2.48798C18.976 2.83998 18.832 3.31998 18.672 3.92798C18.56 4.32798 18.432 4.84798 18.288 5.48798C18.16 6.12798 18.016 6.82398 17.856 7.57598C17.712 8.32798 17.568 9.06398 17.424 9.78398C17.28 10.504 17.152 11.152 17.04 11.728C16.944 12.304 16.872 12.744 16.824 13.048C16.936 13.256 16.992 13.488 16.992 13.744C16.992 14.208 16.816 14.592 16.464 14.896C16.32 15.008 16.144 15.184 15.936 15.424C15.728 15.648 15.536 15.84 15.36 16C15.184 16.144 15.072 16.16 15.024 16.048ZM23.1658 15.88C22.5578 15.88 21.9658 15.792 21.3898 15.616C20.8298 15.424 20.4378 15.096 20.2138 14.632C20.0538 14.296 19.9738 13.824 19.9738 13.216C19.9738 12.656 20.0298 12.056 20.1418 11.416C20.2538 10.776 20.3898 10.152 20.5498 9.54398C20.7258 8.93598 20.8858 8.43198 21.0298 8.03198C21.2378 7.47198 21.5658 6.94398 22.0138 6.44798C22.4618 5.95198 23.0538 5.55998 23.7898 5.27198C24.0618 5.15998 24.4138 5.06398 24.8458 4.98398C25.2938 4.90398 25.7498 4.86398 26.2138 4.86398C26.8378 4.86398 27.4298 4.95998 27.9898 5.15198C28.5498 5.32798 28.9498 5.65598 29.1898 6.13598C29.3498 6.45598 29.4298 6.91198 29.4298 7.50398C29.4298 8.04798 29.3658 8.64798 29.2378 9.30398C29.1258 9.95998 28.9898 10.592 28.8298 11.2C28.6698 11.792 28.5098 12.296 28.3498 12.712C28.1418 13.256 27.8138 13.784 27.3658 14.296C26.9178 14.792 26.3258 15.184 25.5898 15.472C25.3178 15.584 24.9578 15.68 24.5098 15.76C24.0778 15.84 23.6298 15.88 23.1658 15.88ZM23.5258 15.328C23.8938 15.328 24.3418 15.208 24.8698 14.968C25.3338 14.744 25.7018 14.384 25.9738 13.888C26.2618 13.392 26.4858 12.848 26.6458 12.256C26.8058 11.664 26.9338 11.128 27.0298 10.648C27.1098 10.248 27.1818 9.80798 27.2458 9.32798C27.3098 8.84798 27.3418 8.37598 27.3418 7.91198C27.3418 7.23998 27.2378 6.66398 27.0298 6.18398C26.8218 5.68798 26.4298 5.43998 25.8538 5.43998C25.5018 5.43998 25.0618 5.55998 24.5338 5.79998C24.0858 6.00798 23.7178 6.36798 23.4298 6.87998C23.1418 7.37598 22.9178 7.91998 22.7578 8.51198C22.5978 9.08798 22.4698 9.61598 22.3738 10.096C22.2938 10.496 22.2138 10.944 22.1338 11.44C22.0698 11.92 22.0378 12.392 22.0378 12.856C22.0378 13.528 22.1418 14.112 22.3498 14.608C22.5578 15.088 22.9498 15.328 23.5258 15.328ZM31.9541 14.944C32.0981 14.304 32.2821 13.536 32.5061 12.64C32.7461 11.728 33.0261 10.808 33.3461 9.87998C33.6661 8.93598 34.0261 8.07998 34.4261 7.31198C34.8261 6.52798 35.2581 5.94398 35.7221 5.55998C36.0101 5.30398 36.3461 5.14398 36.7301 5.07998C37.1141 5.01598 37.5061 4.97598 37.9061 4.95998C38.2741 4.92798 38.6501 4.88798 39.0341 4.83998C39.4341 4.79198 39.7941 4.66398 40.1141 4.45598L40.3541 4.57598L38.7701 6.51998C38.4181 6.74398 38.0821 6.88798 37.7621 6.95198C37.4421 6.99998 37.1461 7.03998 36.8741 7.07198C36.6181 7.08798 36.3621 7.10398 36.1061 7.11998C35.8501 7.11998 35.6101 7.18398 35.3861 7.31198C35.0821 7.47198 34.7781 7.79198 34.4741 8.27198C34.1701 8.75198 33.8581 9.49598 33.5381 10.504C33.2181 11.512 32.8741 12.896 32.5061 14.656L31.9541 14.944ZM29.5541 16.24C29.7621 15.344 30.0021 14.4 30.2741 13.408C30.5461 12.4 30.7941 11.44 31.0181 10.528C31.2101 9.77598 31.3621 9.08798 31.4741 8.46398C31.6021 7.82398 31.6661 7.30398 31.6661 6.90398C31.6661 6.82398 31.6661 6.75198 31.6661 6.68798C31.6661 6.60798 31.6581 6.53598 31.6421 6.47198C31.5781 6.48798 31.5061 6.51998 31.4261 6.56798C31.3621 6.59998 31.2901 6.63198 31.2101 6.66398L30.3701 7.09598L30.2981 6.71198C30.8101 6.43998 31.3701 6.10398 31.9781 5.70398C32.6021 5.30398 33.1221 4.95998 33.5381 4.67198C33.6501 4.84798 33.7061 5.13598 33.7061 5.53598C33.7061 5.96798 33.6501 6.50398 33.5381 7.14398C33.4261 7.76798 33.2821 8.43998 33.1061 9.15998C32.8661 10.2 32.6021 11.28 32.3141 12.4C32.0261 13.504 31.7781 14.504 31.5701 15.4L29.5541 16.24ZM38.2937 16.336C38.4377 15.44 38.6217 14.488 38.8457 13.48C39.0857 12.456 39.2857 11.488 39.4457 10.576C39.5737 9.91998 39.6697 9.30398 39.7337 8.72798C39.8137 8.15198 39.8537 7.66398 39.8537 7.26398C39.8537 6.99198 39.8297 6.75998 39.7817 6.56798C39.7817 6.56798 39.6777 6.60798 39.4697 6.68798C39.2777 6.75198 39.0537 6.83198 38.7977 6.92798C38.5577 7.02398 38.3497 7.11998 38.1737 7.21598L38.3177 6.73598C38.8297 6.47998 39.3897 6.16798 39.9977 5.79998C40.6217 5.41598 41.1337 5.07998 41.5337 4.79198C41.6617 4.99998 41.7257 5.42398 41.7257 6.06398C41.7257 6.79998 41.6457 7.70398 41.4857 8.77598C41.3417 9.83198 41.1737 10.864 40.9817 11.872C41.1097 11.616 41.2457 11.368 41.3897 11.128C41.5497 10.872 41.7017 10.616 41.8457 10.36C41.9737 10.152 42.1817 9.83198 42.4697 9.39998C42.7737 8.96798 43.1257 8.49598 43.5257 7.98398C43.9257 7.45598 44.3337 6.95198 44.7497 6.47198C45.1817 5.99198 45.5897 5.59998 45.9737 5.29598C46.3737 4.97598 46.7097 4.80798 46.9817 4.79198C47.0937 4.99998 47.1497 5.32798 47.1497 5.77598C47.1497 6.03198 47.1337 6.33598 47.1017 6.68798C47.0697 7.02398 47.0217 7.37598 46.9577 7.74398C46.8617 8.36798 46.7177 9.03998 46.5257 9.75998C46.3337 10.464 46.1657 11.16 46.0217 11.848C46.3097 11.32 46.6777 10.76 47.1257 10.168C47.5737 9.57598 48.0617 8.99998 48.5897 8.43998C49.1337 7.87998 49.6777 7.36798 50.2217 6.90398C50.7817 6.43998 51.3097 6.07198 51.8057 5.79998C52.1897 5.57598 52.6297 5.36798 53.1257 5.17598C53.6377 4.98398 54.1017 4.80798 54.5177 4.64798L54.6137 4.86398L54.2537 5.00798C53.8857 5.16798 53.5417 5.48798 53.2217 5.96798C52.9017 6.44798 52.6057 7.01598 52.3337 7.67198C52.0777 8.32798 51.8457 9.01598 51.6377 9.73598C51.4457 10.44 51.2857 11.12 51.1577 11.776C51.0297 12.416 50.9337 12.952 50.8697 13.384C51.3817 12.632 51.9817 11.872 52.6697 11.104C53.3577 10.32 54.0297 9.70398 54.6857 9.25598L54.8537 9.51998C54.5817 9.69598 54.2297 10.016 53.7977 10.48C53.3817 10.944 52.9577 11.472 52.5257 12.064C52.0937 12.656 51.7177 13.24 51.3977 13.816C51.0777 14.376 50.8937 14.856 50.8457 15.256L48.9497 16.216C48.9337 16.12 48.9177 16.016 48.9017 15.904C48.9017 15.776 48.9017 15.656 48.9017 15.544C48.9017 14.968 48.9577 14.296 49.0697 13.528C49.1977 12.76 49.3577 11.968 49.5497 11.152C49.7417 10.336 49.9497 9.56798 50.1737 8.84798C50.3977 8.11198 50.6137 7.49598 50.8217 6.99998C50.5017 7.25598 50.1177 7.62398 49.6697 8.10398C49.2377 8.56798 48.7897 9.11198 48.3257 9.73598C47.8617 10.344 47.4137 10.984 46.9817 11.656C46.5657 12.312 46.2137 12.968 45.9257 13.624C45.6377 14.264 45.4537 14.848 45.3737 15.376L43.4537 16.264C43.5977 15.4 43.7737 14.496 43.9817 13.552C44.2057 12.608 44.4057 11.696 44.5817 10.816C44.7257 10.112 44.8457 9.43198 44.9417 8.77598C45.0537 8.11998 45.1097 7.63998 45.1097 7.33598C45.1097 7.17598 45.1017 7.07998 45.0857 7.04798C44.4937 7.52798 43.9257 8.15198 43.3817 8.91998C42.8377 9.68798 42.3417 10.504 41.8937 11.368C41.4617 12.216 41.0937 13.008 40.7897 13.744C40.4857 14.464 40.2857 15.032 40.1897 15.448L38.2937 16.336ZM58.1029 4.76798C57.9109 4.76798 57.7189 4.74398 57.5269 4.69598C57.3509 4.63198 57.1509 4.54398 56.9269 4.43198L57.9349 3.08798C58.0629 3.15198 58.2389 3.18398 58.4629 3.18398C58.8149 3.18398 59.2149 3.11198 59.6629 2.96798C60.1109 2.80798 60.5189 2.59998 60.8869 2.34398C61.0149 2.13598 61.1589 2.03198 61.3189 2.03198C61.4149 2.03198 61.4629 2.07998 61.4629 2.17598C61.4629 2.23998 61.4149 2.34398 61.3189 2.48798C61.2229 2.63198 61.0389 2.82398 60.7669 3.06398C60.5109 3.28798 60.2309 3.52798 59.9269 3.78398C59.6389 4.02398 59.3909 4.23198 59.1829 4.40798C58.9749 4.56798 58.8709 4.64798 58.8709 4.64798C58.7269 4.67998 58.5909 4.71198 58.4629 4.74398C58.3509 4.75998 58.2309 4.76798 58.1029 4.76798ZM54.3349 16.24C54.3189 16.16 54.3109 16.072 54.3109 15.976C54.3109 15.864 54.3109 15.752 54.3109 15.64C54.3109 15.144 54.3429 14.552 54.4069 13.864C54.4869 13.176 54.5909 12.464 54.7189 11.728C54.8629 10.992 55.0149 10.32 55.1749 9.71198C55.4949 8.62398 55.8469 7.79198 56.2309 7.21598C56.6149 6.63998 57.1669 6.22398 57.8869 5.96798C57.9669 5.93598 58.1109 5.88798 58.3189 5.82398C58.5429 5.74398 58.7749 5.65598 59.0149 5.55998C59.2549 5.46398 59.4629 5.38398 59.6389 5.31998C59.8149 5.25598 59.9029 5.22398 59.9029 5.22398L59.9989 5.43998L59.3509 5.72798C59.0629 5.85598 58.7669 6.11998 58.4629 6.51998C58.1589 6.90398 57.8789 7.35998 57.6229 7.88798C57.3669 8.39998 57.1669 8.91998 57.0229 9.44798C56.8629 10.088 56.7109 10.76 56.5669 11.464C56.4229 12.152 56.3189 12.8 56.2549 13.408C56.7669 12.656 57.3589 11.896 58.0309 11.128C58.7189 10.344 59.3909 9.73598 60.0469 9.30398L60.2149 9.54398C59.8149 9.78398 59.3989 10.168 58.9669 10.696C58.5509 11.224 58.1429 11.792 57.7429 12.4C57.3589 13.008 57.0309 13.576 56.7589 14.104C56.4869 14.632 56.3109 15.032 56.2309 15.304L54.3349 16.24ZM68.3001 8.91998L68.0121 8.72798C68.0441 8.56798 68.0681 8.42398 68.0841 8.29598C68.1161 8.15198 68.1321 8.01598 68.1321 7.88798C68.1321 7.37598 67.9801 6.98398 67.6761 6.71198C67.3881 6.43998 67.0041 6.30398 66.5241 6.30398C66.0761 6.30398 65.5561 6.43998 64.9641 6.71198L64.8441 6.51998C65.5961 6.08798 66.2921 5.75198 66.9321 5.51198C67.5881 5.27198 68.2121 5.15198 68.8041 5.15198H68.9001C69.0761 5.15198 69.1641 5.24798 69.1641 5.43998C69.1641 5.64798 69.1241 5.89598 69.0441 6.18398C68.9641 6.45598 68.8761 6.74398 68.7801 7.04798C68.7161 7.20798 68.6601 7.36798 68.6121 7.52798C68.5641 7.67198 68.5241 7.82398 68.4921 7.98398C68.3801 8.38398 68.3161 8.69598 68.3001 8.91998ZM63.0681 16.024C62.5881 16.024 62.1401 15.952 61.7241 15.808C61.3081 15.664 61.0121 15.408 60.8361 15.04C60.7241 14.816 60.6441 14.56 60.5961 14.272C60.5641 13.968 60.5481 13.656 60.5481 13.336C60.5481 12.76 60.6041 12.152 60.7161 11.512C60.8441 10.856 60.9881 10.256 61.1481 9.71198C61.4841 8.62398 61.8601 7.79198 62.2761 7.21598C62.6921 6.63998 63.2601 6.22398 63.9801 5.96798C64.0921 5.93598 64.2681 5.87198 64.5081 5.77598C64.7641 5.67998 65.0201 5.58398 65.2761 5.48798C65.5481 5.37598 65.7641 5.29598 65.9241 5.24798L65.9481 5.53598L64.5321 6.30398C64.3241 6.41598 64.1081 6.67198 63.8841 7.07198C63.6601 7.45598 63.4521 7.91998 63.2601 8.46398C63.0681 9.00798 62.8921 9.56798 62.7321 10.144L64.2441 9.42398C64.4361 9.37598 64.6441 9.35198 64.8681 9.35198C65.0761 9.35198 65.2761 9.36798 65.4681 9.39998C65.6761 9.43198 65.8841 9.46398 66.0921 9.49598C66.4601 9.54398 66.8361 9.56798 67.2201 9.56798C67.3801 9.56798 67.5401 9.55998 67.7001 9.54398C67.8761 9.52798 68.0441 9.50398 68.2041 9.47198L68.3001 9.63998L66.0681 10.744C65.9721 10.76 65.8761 10.776 65.7801 10.792C65.7001 10.792 65.6121 10.792 65.5161 10.792C65.1321 10.792 64.7401 10.744 64.3401 10.648C63.9561 10.552 63.5721 10.504 63.1881 10.504C63.0921 10.504 62.9961 10.504 62.9001 10.504C62.8201 10.504 62.7321 10.52 62.6361 10.552C62.5561 10.936 62.4841 11.312 62.4201 11.68C62.3721 12.032 62.3481 12.368 62.3481 12.688C62.3481 13.184 62.4201 13.592 62.5641 13.912C62.7721 14.36 63.0761 14.712 63.4761 14.968C63.8761 15.208 64.3161 15.328 64.7961 15.328C65.5001 15.328 66.1961 15.04 66.8841 14.464C67.5721 13.888 68.0681 12.96 68.3721 11.68L68.7081 11.92C68.5641 12.32 68.4121 12.76 68.2521 13.24C68.0921 13.704 67.9481 14.272 67.8201 14.944C67.6601 15.2 67.4601 15.368 67.2201 15.448C66.9801 15.528 66.7081 15.568 66.4041 15.568C66.2921 15.568 66.1641 15.568 66.0201 15.568C65.8761 15.552 65.7321 15.544 65.5881 15.544C65.3641 15.656 65.0121 15.768 64.5321 15.88C64.0681 15.976 63.5801 16.024 63.0681 16.024Z" fill="url(#paint0_linear_93_120)"/>
<defs>
<linearGradient id="paint0_linear_93_120" x1="35" y1="-7.00002" x2="56.3444" y2="17.9994" gradientUnits="userSpaceOnUse">
<stop stop-color="#34A0B3" stop-opacity="0.92"/>
<stop offset="1" stop-opacity="0.76"/>
</linearGradient>
</defs>
</svg>
