<svg width="17" height="19" viewBox="0 0 17 19" fill="none" xmlns="http://www.w3.org/2000/svg">
<path d="M15.1784 7.22154C15.1784 3.53913 12.1824 0.542969 8.49982 0.542969C4.81724 0.542969 1.82125 3.53896 1.82125 7.22154C1.82125 7.23035 1.82166 7.23916 1.82233 7.24783L1.83494 7.39284H1.83507C1.18023 7.65318 0.670677 8.18497 0.438644 8.85026C0.206629 9.51569 0.27507 10.249 0.626071 10.8599C0.977069 11.4709 1.57623 11.8993 2.26779 12.034C2.54696 13.7494 3.25725 15.3659 4.33207 16.7319C5.33698 18.0108 6.8734 18.7576 8.49985 18.7576C10.1263 18.7576 11.6627 18.0108 12.6676 16.7319C13.7424 15.3661 14.4527 13.7496 14.7319 12.034C15.4235 11.8991 16.0223 11.4708 16.3733 10.8598C16.7242 10.2489 16.7927 9.51569 16.5608 8.85026C16.3288 8.18497 15.8193 7.65319 15.1646 7.39284L15.1772 7.24783C15.178 7.23916 15.1784 7.23035 15.1784 7.22154H15.1784ZM0.910535 9.65011C0.9104 9.31686 1.00161 8.99013 1.17454 8.70526C1.34746 8.42039 1.5952 8.18849 1.89089 8.03497L2.1717 11.2649C2.17536 11.306 2.17929 11.347 2.18349 11.3881V11.388C1.81324 11.2728 1.48961 11.0418 1.26056 10.7289C1.03139 10.4161 0.908594 10.0379 0.910502 9.65014L0.910535 9.65011ZM14.2229 11.2121C14.0612 13.0885 13.3545 14.8765 12.1899 16.3565C11.3002 17.489 9.93986 18.1502 8.49954 18.1502C7.05923 18.1502 5.69895 17.489 4.80916 16.3565C3.64462 14.8766 2.93784 13.0886 2.77616 11.2121L2.42801 7.20846C2.43506 3.86661 5.15596 1.15022 8.49944 1.15022C11.8429 1.15022 14.5639 3.86678 14.5709 7.20846L14.2229 11.2121ZM15.5554 8.36196C16.0055 8.81219 16.188 9.46471 16.0369 10.0831C15.8858 10.7015 15.423 11.1961 14.816 11.388C14.82 11.347 14.8242 11.306 14.8278 11.2648L15.1086 8.03491C15.2732 8.12056 15.4239 8.23088 15.5554 8.36193L15.5554 8.36196Z" fill="#1B1A1D"/>
<path d="M17.0002 16.9358V14.2036H16.3931V16.6322H14.2681V17.2393H16.6966C16.7771 17.2393 16.8544 17.2073 16.9113 17.1504C16.9682 17.0935 17.0002 17.0163 17.0002 16.9358Z" fill="#1B1A1D"/>
<path d="M0 16.9358C0 17.0163 0.0319836 17.0935 0.0889031 17.1504C0.145823 17.2073 0.223071 17.2393 0.303571 17.2393H2.73214V16.6322H0.607143V14.2036H0V16.9358Z" fill="#1B1A1D"/>
<path d="M0 2.36436V5.09651H0.607143V2.66793H2.73214V2.06079H0.303571C0.135931 2.06079 0 2.19672 0 2.36436Z" fill="#1B1A1D"/>
<path d="M17.0002 2.36436C17.0002 2.28386 16.9682 2.20661 16.9113 2.14969C16.8544 2.09278 16.7771 2.06079 16.6966 2.06079H14.2681V2.66793H16.3931V5.09651H17.0002V2.36436Z" fill="#1B1A1D"/>
<path d="M5.16106 8.43579C4.83906 8.43579 4.53019 8.56372 4.30239 8.7914C4.07471 9.01922 3.94678 9.32808 3.94678 9.65008C3.94678 9.97207 4.07471 10.281 4.30239 10.5088C4.5302 10.7364 4.83907 10.8644 5.16106 10.8644C5.48306 10.8644 5.79194 10.7364 6.01974 10.5088C6.24742 10.2809 6.37535 9.97207 6.37535 9.65008C6.37494 9.32808 6.24687 9.01948 6.01932 8.79182C5.79164 8.56428 5.48306 8.43621 5.16106 8.43579ZM5.16106 10.2572C5.00006 10.2572 4.84556 10.1933 4.73173 10.0794C4.61789 9.96558 4.55392 9.81108 4.55392 9.65008C4.55392 9.48908 4.61789 9.33458 4.73173 9.22074C4.84556 9.1069 5.00006 9.04293 5.16106 9.04293C5.32206 9.04293 5.47656 9.1069 5.5904 9.22074C5.70424 9.33458 5.76821 9.48908 5.76821 9.65008C5.76807 9.81108 5.70397 9.9653 5.59013 10.0791C5.47629 10.193 5.32206 10.2571 5.16106 10.2572Z" fill="#1B1A1D"/>
<path d="M11.8393 8.43579C11.5173 8.43579 11.2084 8.56372 10.9806 8.7914C10.7529 9.01922 10.625 9.32808 10.625 9.65008C10.625 9.97207 10.7529 10.281 10.9806 10.5088C11.2084 10.7364 11.5173 10.8644 11.8393 10.8644C12.1613 10.8644 12.4702 10.7364 12.698 10.5088C12.9256 10.2809 13.0536 9.97207 13.0536 9.65008C13.0532 9.32808 12.9251 9.01948 12.6975 8.79182C12.4699 8.56428 12.1613 8.43621 11.8393 8.43579ZM11.8393 10.2572C11.6783 10.2572 11.5238 10.1933 11.4099 10.0794C11.2961 9.96558 11.2321 9.81108 11.2321 9.65008C11.2321 9.48908 11.2961 9.33458 11.4099 9.22074C11.5238 9.1069 11.6783 9.04293 11.8393 9.04293C12.0003 9.04293 12.1548 9.1069 12.2686 9.22074C12.3825 9.33458 12.4464 9.48908 12.4464 9.65008C12.4463 9.81108 12.3822 9.9653 12.2684 10.0791C12.1545 10.193 12.0003 10.2571 11.8393 10.2572Z" fill="#1B1A1D"/>
<path d="M8.19678 9.04297H8.80392V12.9894H8.19678V9.04297Z" fill="#1B1A1D"/>
<path d="M7.04149 13.906L6.92236 14.5014L6.9225 14.5015C7.96359 14.7107 9.03612 14.7107 10.0772 14.5015L9.95809 13.9061L9.95822 13.906C8.99561 14.0995 8.0041 14.0995 7.04149 13.906Z" fill="#1B1A1D"/>
<path d="M10.1191 7.60234L10.5238 8.055C11.3131 7.34946 12.3934 7.34783 13.1507 8.0512L13.5639 7.60629C13.0673 7.14524 12.4634 6.90672 11.8169 6.91838H11.8167C11.1872 6.93545 10.5847 7.17815 10.1191 7.60234Z" fill="#1B1A1D"/>
<path d="M3.43604 7.60629L3.84924 8.0512C4.60668 7.34796 5.6868 7.34959 6.47609 8.055L6.88076 7.60235H6.88062C6.4151 7.17815 5.81271 6.93543 5.18319 6.91836C4.53632 6.90697 3.93244 7.14525 3.43604 7.60629Z" fill="#1B1A1D"/>
</svg>
