<svg width="17" height="17" viewBox="0 0 17 17" fill="none" xmlns="http://www.w3.org/2000/svg">
<path d="M0.544 0.000872382C0.394079 0.016542 0.255448 0.087408 0.154923 0.199498C0.0544125 0.311728 -0.000786794 0.457273 5.88662e-05 0.607909V2.42926C-0.00219984 2.59175 0.0606212 2.74844 0.174825 2.8642C0.288888 2.97981 0.444598 3.04503 0.607233 3.04503C0.769719 3.04503 0.925429 2.97981 1.0395 2.8642C1.1537 2.74844 1.21666 2.59174 1.21426 2.42926V1.21505H2.42862C2.5911 1.21731 2.7478 1.15435 2.86341 1.04028C2.97917 0.92622 3.04439 0.770366 3.04439 0.607876C3.04439 0.445386 2.97917 0.28968 2.86341 0.175613C2.74779 0.0614057 2.59109 -0.00155264 2.42862 0.000847016H0.607265C0.58609 -0.000282339 0.565033 -0.000256972 0.544 0.000872382ZM4.00969 0.000872382C3.84862 0.00920142 3.69757 0.0811992 3.58957 0.201052C3.48172 0.320763 3.42582 0.478591 3.43414 0.63953C3.44247 0.800604 3.51461 0.951655 3.63432 1.05965C3.75417 1.1675 3.91186 1.2234 4.07295 1.21508H6.07149H6.07135C6.23397 1.21734 6.39053 1.15438 6.50628 1.04031C6.62204 0.926249 6.68712 0.770395 6.68712 0.607905C6.68712 0.445415 6.62204 0.289709 6.50628 0.175642C6.39052 0.0614346 6.23397 -0.00152369 6.07135 0.000875967H4.0728H4.07295C4.05191 -0.000253388 4.03072 -0.000256972 4.00969 0.000872382ZM7.62724 0.000872382C7.46631 0.00920142 7.31511 0.0811992 7.20726 0.201052C7.09927 0.320763 7.04337 0.478591 7.05169 0.63953C7.06017 0.800604 7.13216 0.951655 7.25187 1.05965C7.37173 1.1675 7.52955 1.2234 7.6905 1.21508H8.90485V2.42929C8.90245 2.59177 8.96541 2.74847 9.07962 2.86422C9.19368 2.97984 9.34939 3.04506 9.51188 3.04506C9.67451 3.04506 9.83022 2.97984 9.94429 2.86422C10.0585 2.74847 10.1215 2.59177 10.1191 2.42929V0.607937C10.1191 0.447005 10.0551 0.292564 9.94118 0.178638C9.8274 0.0648571 9.67296 0.000904917 9.51188 0.000904917H7.69053C7.6695 -0.000224437 7.64832 -0.000224437 7.62729 0.000904917L7.62724 0.000872382ZM0.607313 3.44116C0.447367 3.4444 0.295188 3.51075 0.18394 3.62567C0.0725584 3.74044 0.0110058 3.89459 0.0127007 4.05453V6.05929C0.010442 6.22178 0.0734039 6.37847 0.187467 6.49423C0.301675 6.60984 0.457385 6.67506 0.619874 6.67506C0.78236 6.67506 0.938211 6.60984 1.05228 6.49423C1.16634 6.37847 1.22931 6.22177 1.22705 6.05929V4.05453C1.22874 3.89021 1.1638 3.73224 1.04706 3.61663C0.930167 3.50101 0.771494 3.43763 0.607313 3.44116ZM9.5119 3.44116C9.3521 3.4444 9.19992 3.51075 9.08853 3.62567C8.97729 3.74044 8.91574 3.89459 8.91744 4.05453V6.05929C8.91518 6.22178 8.97814 6.37847 9.0922 6.49408C9.20641 6.60984 9.36212 6.67506 9.52461 6.67506C9.6871 6.67506 9.84295 6.60984 9.95702 6.49408C10.0711 6.37847 10.134 6.22176 10.1318 6.05929V4.05453C10.1335 3.89021 10.0685 3.73224 9.95179 3.61663C9.8349 3.50101 9.67623 3.43763 9.5119 3.44116ZM7.425 6.88144C7.27508 6.89711 7.13645 6.96798 7.03592 7.08007C6.93541 7.1923 6.88021 7.33784 6.88106 7.48848V16.3929C6.88106 16.5538 6.94501 16.7082 7.05893 16.822C7.17272 16.9359 7.32716 16.9999 7.48823 16.9999H16.393C16.5539 16.9999 16.7083 16.9359 16.8223 16.822C16.936 16.7082 17 16.5538 17 16.3929V7.48848C17 7.32755 16.9361 7.1731 16.8221 7.05918C16.7083 6.9454 16.5539 6.88145 16.393 6.88145H7.48824C7.46706 6.88032 7.44603 6.88031 7.425 6.88144ZM0.601027 7.07117H0.601168C0.438964 7.07273 0.284245 7.13922 0.171436 7.25568C0.0585002 7.37201 -0.00304891 7.52884 0.000337345 7.69091V9.51226C0.000337345 9.67319 0.0642861 9.82763 0.178212 9.94156C0.291993 10.0553 0.446434 10.1193 0.607511 10.1193H2.42886C2.59121 10.1214 2.74776 10.0584 2.86326 9.94439C2.97887 9.83018 3.04395 9.67461 3.04395 9.51227C3.04395 9.34978 2.97887 9.19421 2.86326 9.08015C2.74778 8.96594 2.59122 8.90298 2.42886 8.9051H1.21451V7.69089C1.21804 7.52657 1.15465 7.36789 1.03903 7.25114C0.923416 7.13425 0.765447 7.06932 0.601132 7.07115L0.601027 7.07117ZM8.09561 8.09565H15.7861V15.7857H8.09561V8.09565ZM4.01019 8.9051C3.79322 8.91639 3.59882 9.0426 3.50016 9.236C3.40148 9.42954 3.41362 9.66093 3.53178 9.84318C3.65008 10.0254 3.85647 10.1306 4.07344 10.1193H6.07198H6.07184C6.23432 10.1214 6.39074 10.0585 6.50634 9.9444C6.62196 9.83019 6.68704 9.67462 6.68704 9.51228C6.68704 9.34979 6.62196 9.19422 6.50634 9.08016C6.39072 8.96595 6.23431 8.90299 6.07184 8.90511H4.0733H4.07344C4.0524 8.90398 4.03123 8.90397 4.01019 8.9051Z" fill="#1B1A1D"/>
</svg>
