<svg width="17" height="18" viewBox="0 0 17 18" fill="none" xmlns="http://www.w3.org/2000/svg">
<path d="M0.849922 9.84994H3.44333C3.64047 10.8189 4.49899 11.55 5.52503 11.55H14.875C16.0463 11.55 17 10.5972 17 9.42498C17 8.25278 16.0463 7.29999 14.875 7.29999H5.52503C4.49915 7.29999 3.64061 8.03106 3.44333 9.00002H0.849922V3.90003H3.44333C3.64047 4.86899 4.49899 5.60007 5.52503 5.60007H14.875C16.0463 5.60007 17 4.64727 17 3.47507C17 2.30287 16.0463 1.34992 14.875 1.34992H5.52503C4.49915 1.34992 3.64061 2.081 3.44333 3.04996H0.849922V0.924961C0.849922 0.690316 0.659451 0.5 0.424961 0.5C0.190464 0.5 0 0.690472 0 0.924961V15.3749C0 15.6096 0.190472 15.7999 0.424961 15.7999H3.44333C3.64047 16.7689 4.49899 17.4999 5.52503 17.4999H14.875C16.0463 17.4999 17 16.5471 17 15.3749C17 14.2027 16.0463 13.2499 14.875 13.2499H5.52503C4.49915 13.2499 3.64061 13.981 3.44333 14.95H0.849922V9.84994ZM5.52491 8.15006H14.8749C15.5778 8.15006 16.15 8.72206 16.15 9.42513C16.15 10.128 15.578 10.7002 14.8749 10.7002L5.52491 10.7001C4.82203 10.7001 4.24984 10.1281 4.24984 9.42498C4.24984 8.7221 4.82184 8.15006 5.52491 8.15006ZM5.52491 2.20007H14.8749C15.5778 2.20007 16.15 2.77208 16.15 3.47515C16.15 4.17803 15.5778 4.75007 14.8749 4.75007H5.52491C4.82188 4.75007 4.24984 4.17806 4.24984 3.47499C4.24984 2.77211 4.82184 2.20007 5.52491 2.20007ZM5.52491 14.1H14.8749C15.5778 14.1 16.15 14.672 16.15 15.3751C16.15 16.078 15.578 16.6502 14.8749 16.6502H5.52491C4.82203 16.6502 4.24984 16.0782 4.24984 15.3751C4.24984 14.6722 4.82184 14.1 5.52491 14.1Z" fill="#1B1A1D"/>
</svg>
