<svg width="17" height="18" viewBox="0 0 17 18" fill="none" xmlns="http://www.w3.org/2000/svg">
<path d="M0 12.212C0 12.6508 0.226783 13.0437 0.606751 13.2629L7.46618 17.2231C7.78501 17.4071 8.14254 17.4993 8.49997 17.4993C8.8574 17.4993 9.21492 17.4071 9.53375 17.2231L16.3932 13.2629C16.7732 13.0437 16.9999 12.6509 16.9999 12.212C16.9999 11.7735 16.7732 11.3807 16.3932 11.1614L16.0805 10.9808C15.8607 10.8535 15.5796 10.9291 15.4529 11.149C15.3261 11.3689 15.4012 11.6499 15.621 11.7767L15.9337 11.9573C16.0668 12.034 16.081 12.161 16.081 12.212C16.081 12.2633 16.0665 12.3903 15.9337 12.467L9.07429 16.4272C8.72008 16.6315 8.27985 16.6317 7.92564 16.4272L1.06621 12.467C0.933399 12.3903 0.918913 12.2633 0.918913 12.212C0.918913 12.161 0.933399 12.034 1.06621 11.9573L2.48729 11.137L7.46621 14.0113C7.78504 14.1952 8.14257 14.2874 8.5 14.2874C8.85743 14.2874 9.21495 14.1952 9.53379 14.0113L16.3932 10.0511C16.7732 9.83158 17 9.43879 17 9.0002C17 8.56161 16.7732 8.16883 16.3932 7.94934L16.0812 7.76923C15.8618 7.64244 15.5803 7.71756 15.4535 7.93768C15.3267 8.15754 15.4021 8.43856 15.622 8.56533L15.9338 8.7452C16.0668 8.82186 16.0811 8.9489 16.0811 9.00018C16.0811 9.05146 16.0666 9.1785 15.9338 9.25517L9.07433 13.2154C8.72011 13.4196 8.27989 13.4199 7.92567 13.2154L1.06625 9.25517C0.933432 9.1785 0.918945 9.05146 0.918945 9.00018C0.918945 8.9489 0.933432 8.82186 1.06625 8.7452L2.48733 7.9246L7.46625 10.7994C7.78507 10.9834 8.1426 11.0756 8.50003 11.0756C8.85746 11.0756 9.21499 10.9834 9.53382 10.7994L16.3932 6.83922C16.7732 6.61975 17 6.22695 17 5.78837C17 5.34981 16.7732 4.957 16.3932 4.73778L9.53382 0.777219C8.89629 0.408896 8.10378 0.408896 7.46625 0.777219L0.606817 4.73745C0.226843 4.95667 6.56013e-05 5.34945 6.56013e-05 5.7883C6.56013e-05 6.22712 0.226849 6.61993 0.606817 6.83915L1.56844 7.39438L0.606817 7.94961C0.226843 8.16883 6.56013e-05 8.56161 6.56013e-05 9.0002C6.56013e-05 9.43879 0.226849 9.83156 0.606817 10.0511L1.56844 10.6063L0.606817 11.1615C0.226843 11.3807 6.56013e-05 11.7735 6.56013e-05 12.2121L0 12.212ZM1.06621 6.0431C0.933399 5.96644 0.918913 5.8394 0.918913 5.78838C0.918913 5.73735 0.933399 5.61031 1.06621 5.53365L7.92564 1.57309C8.10281 1.47092 8.30125 1.41989 8.49997 1.41989C8.69842 1.41989 8.89714 1.47117 9.07429 1.57309L15.9337 5.53332C16.0668 5.60998 16.081 5.73702 16.081 5.7883C16.081 5.83958 16.0665 5.96663 15.9337 6.04329L14.3973 6.93028L9.0741 10.0036C8.71988 10.2081 8.27966 10.2081 7.92544 10.0036L1.06621 6.0431Z" fill="#1B1A1D"/>
</svg>
