<svg width="18" height="19" viewBox="0 0 18 19" fill="none" xmlns="http://www.w3.org/2000/svg">
<path d="M16.8406 4.13468L8.94331 0.078749C8.73732 -0.0262497 8.4931 -0.0262497 8.28712 0.078749L0.389785 4.13468C0.150908 4.25738 0 4.5041 0 4.77335V13.892C0 14.1613 0.150737 14.408 0.389785 14.5307L8.28712 18.5866C8.49412 18.6921 8.73635 18.6921 8.94331 18.5866L16.8406 14.5307C17.0797 14.408 17.2306 14.1613 17.2306 13.892V4.77335C17.2306 4.50409 17.0797 4.25737 16.8406 4.13468ZM8.61511 1.52437L15.7945 5.21138V9.35961C14.8711 8.66069 13.6877 7.89681 12.9228 7.89681C11.8887 7.89681 9.03279 10.2546 8.0096 11.1301C6.66966 10.2671 5.01986 9.33273 4.30756 9.33273C3.54368 9.33273 2.36032 10.0966 1.43584 10.796V5.2115L8.61511 1.52437ZM8.61511 17.1413L1.43571 13.4541V12.6395C2.82809 11.4588 4.0038 10.7834 4.28709 10.768C4.84665 10.8353 7.55559 12.436 8.88874 13.4861C9.20107 13.7319 9.65163 13.6778 9.89702 13.367C10.1422 13.0556 10.0892 12.6041 9.77782 12.3587C9.64712 12.2558 9.45715 12.1155 9.23262 11.9559C10.426 10.9509 12.4783 9.43919 12.9208 9.33287C13.2261 9.34739 14.4032 10.0223 15.7947 11.2035V13.4537L8.61511 17.1413Z" fill="#1B1A1D"/>
<path d="M7.89739 8.61484C9.08511 8.61484 10.0511 7.64883 10.0511 6.46111C10.0511 5.27339 9.08511 4.30737 7.89739 4.30737C6.70967 4.30737 5.74365 5.27339 5.74365 6.46111C5.74365 7.64883 6.70967 8.61484 7.89739 8.61484ZM7.89739 5.74312C8.29351 5.74312 8.61537 6.06497 8.61537 6.46111C8.61537 6.85725 8.29353 7.17909 7.89739 7.17909C7.50125 7.17909 7.1794 6.85725 7.1794 6.46111C7.1794 6.06497 7.50142 5.74312 7.89739 5.74312Z" fill="#1B1A1D"/>
</svg>
