<svg width="18" height="18" viewBox="0 0 18 18" fill="none" xmlns="http://www.w3.org/2000/svg">
<path fill-rule="evenodd" clip-rule="evenodd" d="M5.03876 0H16.6531C16.9332 0 17.1608 0.227065 17.1608 0.507656V4.52994H4.53161V0.507656C4.53161 0.227062 4.75868 0 5.03927 0H5.03876ZM0.508129 4.53063H3.51586V12.2869C3.51586 13.1277 4.19803 13.8093 5.03823 13.8093H12.6297V16.817C12.6297 17.0971 12.4026 17.3247 12.122 17.3247H0.507656C0.227555 17.3247 0 17.0976 0 16.817V5.03813C0 4.75754 0.227065 4.53048 0.507656 4.53048L0.508129 4.53063ZM17.1602 5.54595V12.2871C17.1602 12.5672 16.9332 12.7948 16.6526 12.7948H12.6297V5.5462L17.1602 5.54595ZM11.6148 12.7945H5.03813C4.75803 12.7945 4.53048 12.567 4.53048 12.2869V5.54569H11.6142V12.7943L11.6148 12.7945Z" fill="black"/>
</svg>
