<svg width="17" height="22" viewBox="0 0 17 22" fill="none" xmlns="http://www.w3.org/2000/svg">
<path d="M6.05688 5.74999L5.06886 4.95143L8.5008 0.70459L11.9327 4.95143L10.9444 5.75015L9.13638 3.51164V17.1442H7.86521V3.5124L6.05688 5.74999ZM15.7301 13.1379V16.627C15.7289 17.4587 15.3979 18.256 14.8098 18.8439C14.2216 19.4319 13.4242 19.7626 12.5926 19.7636H4.40872C3.57705 19.7627 2.77967 19.4319 2.19152 18.8439C1.60337 18.2561 1.27235 17.4587 1.27118 16.627V13.1379H0V16.627H0.000147775C0.00162554 17.7955 0.466673 18.9156 1.29304 19.7416C2.11941 20.5677 3.23968 21.0323 4.40815 21.0335H12.592C13.7605 21.0323 14.8807 20.5677 15.7071 19.7416C16.5335 18.9156 16.9984 17.7955 17 16.627V13.1379H15.7301Z" fill="#1B1A1D"/>
</svg>
